#N canvas 62 143 1409 676 12;
#X obj 63 44 receive fromGUI;
#X obj 60 69 route list;
#X obj 50 393 soundfiler;
#X obj 56 190 select 1;
#X obj 58 272 dac~;
#X obj 206 189 select 1;
#X obj 208 271 dac~;
#X obj 74 143 bng 15 250 50 0 empty empty empty 17 7 0 10 -262144 -1
-1;
#X obj 213 151 bng 15 250 50 0 empty empty empty 17 7 0 10 -262144
-1 -1;
#X obj 48 335 loadbang;
#X msg 56 216 bang;
#X msg 207 214 bang;
#X obj 424 394 soundfiler;
#X obj 422 336 loadbang;
#X obj 59 240 tabplay~ kick-long;
#X obj 131 393 table kick-long;
#X obj 505 394 table kick-short;
#X obj 209 239 tabplay~ kick-short;
#X msg 50 364 read -resize Classic-808_Kick_long.wav kick-long;
#X msg 424 364 read -resize Classic-808_Kick_short.wav kick-short;
#X obj 43 1207 soundfiler;
#X obj 41 1149 loadbang;
#X obj 426 496 soundfiler;
#X obj 424 438 loadbang;
#X obj 360 188 select 1;
#X obj 362 270 dac~;
#X obj 344 152 bng 15 250 50 0 empty empty empty 17 7 0 10 -262144
-1 -1;
#X msg 361 213 bang;
#X obj 530 190 select 1;
#X obj 532 272 dac~;
#X obj 520 149 bng 15 250 50 0 empty empty empty 17 7 0 10 -262144
-1 -1;
#X msg 531 215 bang;
#X obj 705 191 select 1;
#X obj 707 273 dac~;
#X obj 693 153 bng 15 250 50 0 empty empty empty 17 7 0 10 -262144
-1 -1;
#X msg 706 216 bang;
#X obj 876 192 select 1;
#X obj 878 274 dac~;
#X obj 859 167 bng 15 250 50 0 empty empty empty 17 7 0 10 -262144
-1 -1;
#X msg 877 217 bang;
#X obj 1036 194 select 1;
#X obj 1038 276 dac~;
#X obj 1021 175 bng 15 250 50 0 empty empty empty 17 7 0 10 -262144
-1 -1;
#X msg 1037 219 bang;
#X obj 1195 194 select 1;
#X obj 1197 276 dac~;
#X obj 1169 171 bng 15 250 50 0 empty empty empty 17 7 0 10 -262144
-1 -1;
#X msg 1196 219 bang;
#X obj 1368 194 select 1;
#X obj 1370 276 dac~;
#X obj 1355 173 bng 15 250 50 0 empty empty empty 17 7 0 10 -262144
-1 -1;
#X msg 1369 219 bang;
#X obj 1542 195 select 1;
#X obj 1544 277 dac~;
#X obj 1539 175 bng 15 250 50 0 empty empty empty 17 7 0 10 -262144
-1 -1;
#X msg 1543 220 bang;
#X obj 1717 194 select 1;
#X obj 1719 276 dac~;
#X obj 1714 172 bng 15 250 50 0 empty empty empty 17 7 0 10 -262144
-1 -1;
#X msg 1718 219 bang;
#X obj 50 497 soundfiler;
#X obj 48 439 loadbang;
#X obj 131 497 table clap;
#X msg 50 467 read -resize Classic-808_Clap.wav clap;
#X obj 363 238 tabplay~ clap;
#X obj 507 496 table clave;
#X msg 426 466 read -resize Classic-808_Clave.wav clave;
#X obj 533 240 tabplay~ clave;
#X obj 49 595 soundfiler;
#X obj 47 537 loadbang;
#X obj 130 595 table snare-lo2;
#X msg 49 566 read -resize Classic-808_Snare_lo2.wav snare-lo2;
#X obj 708 241 tabplay~ snare-lo2;
#X obj 431 598 soundfiler;
#X obj 429 540 loadbang;
#X msg 431 569 read -resize Classic-808_Snare_lo3.wav snare-lo3;
#X obj 512 598 table snare-lo3;
#X obj 879 242 tabplay~ snare-lo3;
#X obj 52 696 soundfiler;
#X obj 50 638 loadbang;
#X obj 434 699 soundfiler;
#X obj 432 641 loadbang;
#X obj 133 696 table cymbal-high;
#X obj 1039 244 tabplay~ cymbal-high;
#X obj 515 699 table lo-tom;
#X obj 1198 244 tabplay~ lo-tom;
#X msg 434 670 read -resize Classic-808_Lo_Tom.wav lo-tom;
#X msg 52 667 read -resize Classic-808_Cymbal-high.wav cymbal-high
;
#X obj 50 795 soundfiler;
#X obj 48 737 loadbang;
#X obj 432 798 soundfiler;
#X obj 430 740 loadbang;
#X msg 50 766 read -resize Classic-808_Md_Tom.wav md-tom;
#X msg 432 770 read -resize Classic-808_Hi_Tom.wav hi-tom;
#X obj 513 798 table hi-tom;
#X obj 131 794 table md-tom;
#X obj 1371 244 tabplay~ md-tom;
#X obj 1545 246 tabplay~ hi-tom;
#X obj 1720 244 tabplay~ maracas;
#X obj 47 893 soundfiler;
#X obj 45 835 loadbang;
#X obj 429 896 soundfiler;
#X obj 427 838 loadbang;
#X msg 47 864 read -resize Classic-808_Maracas.wav maracas;
#X obj 128 892 table maracas;
#X obj 44 990 soundfiler;
#X obj 42 932 loadbang;
#X obj 426 993 soundfiler;
#X obj 424 935 loadbang;
#X obj 859 354 select 1;
#X obj 861 436 dac~;
#X obj 893 334 bng 15 250 50 0 empty empty empty 17 7 0 10 -262144
-1 -1;
#X msg 860 379 bang;
#X obj 1033 355 select 1;
#X obj 1035 437 dac~;
#X obj 1039 326 bng 15 250 50 0 empty empty empty 17 7 0 10 -262144
-1 -1;
#X msg 1034 380 bang;
#X obj 1208 354 select 1;
#X obj 1210 436 dac~;
#X obj 1232 333 bng 15 250 50 0 empty empty empty 17 7 0 10 -262144
-1 -1;
#X msg 1209 379 bang;
#X msg 44 961 read -resize Classic-808_Md_Conga.wav md-conga;
#X msg 428 965 read -resize Classic-808_Hi_Conga.wav hi-conga;
#X obj 507 994 table hi-conga;
#X msg 430 868 read -resize Classic-808_Lo_Conga.wav lo-conga;
#X obj 1036 406 tabplay~ md-conga;
#X obj 1211 404 tabplay~ hi-conga;
#X obj 862 404 tabplay~ lo-conga;
#X obj 125 989 table md-conga;
#X obj 510 896 table lo-conga;
#X obj 51 1083 soundfiler;
#X obj 49 1025 loadbang;
#X obj 439 1206 soundfiler;
#X obj 437 1148 loadbang;
#X obj 132 1082 table rim-shot;
#X msg 51 1055 read -resize Classic-808_Rim_Shot.wav rim-shot;
#X obj 124 1207 table cowbell;
#X msg 441 1178 read -resize Classic-808_Hat_closed.wav hat-closed
;
#X obj 520 1207 table hat-closed;
#X msg 43 1178 read -resize Classic-808_Cowbell.wav cowbell;
#X obj 47 1305 soundfiler;
#X obj 45 1247 loadbang;
#X msg 49 1277 read -resize Classic-808_Snare_lo1.wav snare-lo1;
#X obj 128 1306 table snare-lo1;
#X obj 68 95 route /classic-808-kick-long /classic-808-kick-short /classic-808-clap
/classic-808-clave /classic-808-snare-lo2 /classic-808-snare-lo3 /classic-808-cymbal-high
/classic-808-lo-tom /classic-808-md-tom /classic-808-hi-tom /classic-808-maracas
/classic-808-lo-conga /classic-808-md-conga /classic-808-hi-conga /classic-808-rim-shot
/classic-808-cowbell /classic-808-hat-closed /classic-808-snare-lo1
, f 252;
#X obj 1354 353 select 1;
#X obj 1356 435 dac~;
#X obj 1370 322 bng 15 250 50 0 empty empty empty 17 7 0 10 -262144
-1 -1;
#X msg 1355 378 bang;
#X obj 1283 510 select 1;
#X obj 1285 592 dac~;
#X obj 1289 481 bng 15 250 50 0 empty empty empty 17 7 0 10 -262144
-1 -1;
#X msg 1284 535 bang;
#X obj 1458 509 select 1;
#X obj 1460 591 dac~;
#X obj 1458 472 bng 15 250 50 0 empty empty empty 17 7 0 10 -262144
-1 -1;
#X msg 1459 534 bang;
#X obj 1357 403 tabplay~ rim-shot;
#X obj 1285 560 tabplay~ cowbell;
#X obj 1461 559 tabplay~ hat-closed;
#X obj 1623 513 select 1;
#X obj 1625 595 dac~;
#X obj 1623 476 bng 15 250 50 0 empty empty empty 17 7 0 10 -262144
-1 -1;
#X msg 1624 538 bang;
#X obj 1626 563 tabplay~ snare-lo1;
#X connect 0 0 1 0;
#X connect 1 0 144 0;
#X connect 3 0 10 0;
#X connect 5 0 11 0;
#X connect 9 0 18 0;
#X connect 10 0 14 0;
#X connect 11 0 17 0;
#X connect 13 0 19 0;
#X connect 14 0 4 0;
#X connect 14 0 4 1;
#X connect 17 0 6 0;
#X connect 17 0 6 1;
#X connect 18 0 2 0;
#X connect 19 0 12 0;
#X connect 21 0 139 0;
#X connect 23 0 66 0;
#X connect 24 0 27 0;
#X connect 27 0 64 0;
#X connect 28 0 31 0;
#X connect 31 0 67 0;
#X connect 32 0 35 0;
#X connect 35 0 72 0;
#X connect 36 0 39 0;
#X connect 39 0 77 0;
#X connect 40 0 43 0;
#X connect 43 0 83 0;
#X connect 44 0 47 0;
#X connect 47 0 85 0;
#X connect 48 0 51 0;
#X connect 51 0 96 0;
#X connect 52 0 55 0;
#X connect 55 0 97 0;
#X connect 56 0 59 0;
#X connect 59 0 98 0;
#X connect 61 0 63 0;
#X connect 63 0 60 0;
#X connect 64 0 25 0;
#X connect 64 0 25 1;
#X connect 66 0 22 0;
#X connect 67 0 29 0;
#X connect 67 0 29 1;
#X connect 69 0 71 0;
#X connect 71 0 68 0;
#X connect 72 0 33 0;
#X connect 72 0 33 1;
#X connect 74 0 75 0;
#X connect 75 0 73 0;
#X connect 77 0 37 0;
#X connect 77 0 37 1;
#X connect 79 0 87 0;
#X connect 81 0 86 0;
#X connect 83 0 41 0;
#X connect 83 0 41 1;
#X connect 85 0 45 0;
#X connect 85 0 45 1;
#X connect 86 0 80 0;
#X connect 87 0 78 0;
#X connect 89 0 92 0;
#X connect 91 0 93 0;
#X connect 92 0 88 0;
#X connect 93 0 90 0;
#X connect 96 0 49 0;
#X connect 96 0 49 1;
#X connect 97 0 53 0;
#X connect 97 0 53 1;
#X connect 98 0 57 0;
#X connect 98 0 57 1;
#X connect 100 0 103 0;
#X connect 102 0 124 0;
#X connect 103 0 99 0;
#X connect 106 0 121 0;
#X connect 108 0 122 0;
#X connect 109 0 112 0;
#X connect 112 0 127 0;
#X connect 113 0 116 0;
#X connect 116 0 125 0;
#X connect 117 0 120 0;
#X connect 120 0 126 0;
#X connect 121 0 105 0;
#X connect 122 0 107 0;
#X connect 124 0 101 0;
#X connect 125 0 114 0;
#X connect 125 0 114 1;
#X connect 126 0 118 0;
#X connect 126 0 118 1;
#X connect 127 0 110 0;
#X connect 127 0 110 1;
#X connect 131 0 135 0;
#X connect 133 0 137 0;
#X connect 135 0 130 0;
#X connect 137 0 132 0;
#X connect 139 0 20 0;
#X connect 141 0 142 0;
#X connect 142 0 140 0;
#X connect 144 0 7 0;
#X connect 144 0 3 0;
#X connect 144 1 8 0;
#X connect 144 1 5 0;
#X connect 144 2 26 0;
#X connect 144 2 24 0;
#X connect 144 3 30 0;
#X connect 144 3 28 0;
#X connect 144 4 34 0;
#X connect 144 4 32 0;
#X connect 144 5 38 0;
#X connect 144 5 36 0;
#X connect 144 6 42 0;
#X connect 144 6 40 0;
#X connect 144 7 46 0;
#X connect 144 7 44 0;
#X connect 144 8 48 0;
#X connect 144 8 50 0;
#X connect 144 9 54 0;
#X connect 144 9 52 0;
#X connect 144 10 58 0;
#X connect 144 10 56 0;
#X connect 144 11 111 0;
#X connect 144 11 109 0;
#X connect 144 12 115 0;
#X connect 144 12 113 0;
#X connect 144 13 119 0;
#X connect 144 13 117 0;
#X connect 144 14 147 0;
#X connect 144 14 145 0;
#X connect 144 15 151 0;
#X connect 144 15 149 0;
#X connect 144 16 155 0;
#X connect 144 16 153 0;
#X connect 144 17 162 0;
#X connect 144 17 160 0;
#X connect 145 0 148 0;
#X connect 148 0 157 0;
#X connect 149 0 152 0;
#X connect 152 0 158 0;
#X connect 153 0 156 0;
#X connect 156 0 159 0;
#X connect 157 0 146 0;
#X connect 157 0 146 1;
#X connect 158 0 150 0;
#X connect 158 0 150 1;
#X connect 159 0 154 0;
#X connect 159 0 154 1;
#X connect 160 0 163 0;
#X connect 163 0 164 0;
#X connect 164 0 161 0;
#X connect 164 0 161 1;
