#N canvas 1 23 1439 793 10;
#X obj 6 18 cnv 15 70 20 empty empty empty 20 12 0 14 -257985 -66577
0;
#X obj 916 23 cnv 15 70 20 empty empty empty 20 12 0 14 -257985 -66577
0;
#X text 10 19 Example 1:;
#X obj 449 21 cnv 15 70 20 empty empty empty 20 12 0 14 -257985 -66577
0;
#X text 452 22 Example 2:;
#X text 921 25 Example 3:;
#X obj 82 68 cnv 15 250 120 empty empty empty 20 12 0 14 -4034 -66577
0;
#X obj 259 155 cnv 15 50 25 empty empty empty 20 12 0 14 -252032 -66577
0;
#X obj 107 154 cnv 15 50 25 empty empty empty 20 12 0 14 -252032 -66577
0;
#X obj 165 85 cnv 15 50 25 empty empty empty 20 12 0 14 -252032 -66577
0;
#X obj 108 76 cnv 15 50 25 empty empty empty 20 12 0 14 -252032 -66577
0;
#X obj 220 86 cnv 15 50 25 empty empty empty 20 12 0 14 -252032 -66577
0;
#X floatatom 117 79 5 0 0 0 - - -, f 5;
#X floatatom 117 156 5 0 0 0 - - -, f 5;
#X floatatom 270 158 5 0 0 0 - - -, f 5;
#X obj 117 118 expr $f1 \; if ($f1 > 2 \, $f1 * 2 \, $f1);
#X msg 172 87 1;
#X msg 226 89 3;
#X obj 524 69 cnv 15 250 120 empty empty empty 20 12 0 14 -4034 -66577
0;
#X obj 555 155 cnv 15 50 25 empty empty empty 20 12 0 14 -252032 -66577
0;
#X obj 553 76 cnv 15 50 25 empty empty empty 20 12 0 14 -252032 -66577
0;
#X obj 606 89 cnv 15 50 25 empty empty empty 20 12 0 14 -252032 -66577
0;
#X obj 700 156 cnv 15 50 25 empty empty empty 20 12 0 14 -252032 -66577
0;
#X obj 660 89 cnv 15 50 25 empty empty empty 20 12 0 14 -252032 -66577
0;
#X floatatom 564 81 5 0 0 0 - - -, f 5;
#X floatatom 564 157 5 0 0 0 - - -, f 5;
#X floatatom 706 159 5 0 0 0 - - -, f 5;
#X obj 564 119 expr $f1 \; if ($f1 > 5 \, $f1 * 2 \, 1);
#X msg 668 92 6;
#X msg 613 92 4;
#X obj 1004 70 cnv 15 250 120 empty empty empty 20 12 0 14 -4034 -66577
0;
#X obj 1119 165 cnv 15 50 25 empty empty empty 20 12 0 14 -252032 -66577
0;
#X obj 1076 83 cnv 15 50 25 empty empty empty 20 12 0 14 -252032 -66577
0;
#X obj 1021 73 cnv 15 50 25 empty empty empty 20 12 0 14 -252032 -66577
0;
#X obj 1130 83 cnv 15 50 25 empty empty empty 20 12 0 14 -252032 -66577
0;
#X obj 1018 149 cnv 15 50 25 empty empty empty 20 12 0 14 -252032 -66577
0;
#X obj 1200 148 cnv 15 50 25 empty empty empty 20 12 0 14 -252032 -66577
0;
#X floatatom 1028 77 5 0 0 0 - - -, f 5;
#X floatatom 1028 154 5 0 0 0 - - -, f 5;
#X floatatom 1209 152 5 0 0 0 - - -, f 5;
#X msg 1087 85 4;
#X obj 1132 170 bng 15 250 50 0 empty empty empty 17 7 0 10 -260097
-257985 -1;
#X msg 1134 86 16;
#X obj 1028 112 expr $f1 \; if ($f1 <= 15 \, $f1 \, 1);
#X obj 941 190 spigot;
#X obj 967 170 tgl 15 0 empty empty empty 17 7 0 10 -262144 -1 -1 0
1;
#X floatatom 930 169 5 0 0 0 - - -, f 5;
#X obj 955 148 != 1;
#X obj 1132 149 select 1;
#X obj 915 125 trigger f f;
#X text 862 78 this code stops an input of '1' from triggering the
bang, f 17;
#X obj 82 635 cnv 15 275 140 empty empty empty 20 12 0 14 -4034 -66577
0;
#X obj 89 643 cnv 15 50 25 empty empty empty 20 12 0 14 -252032 -66577
0;
#X obj 271 647 cnv 15 50 25 empty empty empty 20 12 0 14 -252032 -66577
0;
#X obj 142 656 cnv 15 50 25 empty empty empty 20 12 0 14 -252032 -66577
0;
#X obj 288 647 cnv 15 50 25 empty empty empty 20 12 0 14 -252032 -66577
0;
#X obj 193 656 cnv 15 50 25 empty empty empty 20 12 0 14 -252032 -66577
0;
#X obj 286 736 cnv 15 50 25 empty empty empty 20 12 0 14 -252032 -66577
0;
#X obj 101 739 cnv 15 50 25 empty empty empty 20 12 0 14 -252032 -66577
0;
#X obj 12 279 cnv 15 70 20 empty empty empty 20 12 0 14 -257985 -66577
0;
#X text 14 281 Example 4:;
#X obj 86 327 cnv 15 275 140 empty empty empty 20 12 0 14 -4034 -66577
0;
#X obj 8 589 cnv 15 70 20 empty empty empty 20 12 0 14 -257985 -66577
0;
#X text 10 589 Example 5:;
#X obj 163 343 cnv 15 50 25 empty empty empty 20 12 0 14 -252032 -66577
0;
#X obj 98 343 cnv 15 50 25 empty empty empty 20 12 0 14 -252032 -66577
0;
#X obj 282 344 cnv 15 50 25 empty empty empty 20 12 0 14 -252032 -66577
0;
#X obj 225 343 cnv 15 50 25 empty empty empty 20 12 0 14 -252032 -66577
0;
#X obj 217 433 cnv 15 50 25 empty empty empty 20 12 0 14 -252032 -66577
0;
#X obj 109 412 cnv 15 50 25 empty empty empty 20 12 0 14 -252032 -66577
0;
#X obj 294 417 cnv 15 50 25 empty empty empty 20 12 0 14 -252032 -66577
0;
#X floatatom 96 648 5 0 0 0 - - -, f 5;
#X floatatom 108 743 5 0 0 0 - - -, f 5;
#X floatatom 293 740 5 0 0 0 - - -, f 5;
#X msg 143 659 1;
#X msg 171 659 3;
#X msg 201 660 -5;
#X floatatom 119 416 5 0 0 0 - - -, f 5;
#X floatatom 304 423 5 0 0 0 - - -, f 5;
#X msg 169 347 4;
#X obj 232 435 bng 15 250 50 0 empty empty empty 17 7 0 10 -260097
-257985 -1;
#X obj 232 413 select 1;
#X msg 229 347 16;
#X obj 118 375 expr $f1 \; if ($f1 >= 0 && $f1 <= 15 \, $f1 \, 1);
#X msg 285 347 -1;
#X obj 108 696 expr $f1 \; if ($f1 > 2 || $f1 == -5 \, 10 \, $f2);
#X floatatom 282 675 5 0 0 0 - - -, f 5;
#X msg 308 652 255;
#X msg 282 651 18, f 2;
#X obj 38 486 spigot;
#X obj 64 466 tgl 15 0 empty empty empty 17 7 0 10 -262144 -1 -1 0
1;
#X floatatom 27 465 5 0 0 0 - - -, f 5;
#X obj 52 444 != 1;
#X obj 12 421 trigger f f;
#X floatatom 107 346 5 0 0 0 - - -, f 5;
#X text 91 589 If input 1 > 2 OR = -5 \, then output input 10 thru
second ouput \, ELSE output input 2, f 42;
#X text 525 20 IF input > 5 \, then output input * 2 thru second ouput
\, ELSE output a '1', f 41;
#X text 82 18 IF input > 2 \, then output input * 2 thru second ouput
\, ELSE output input as is., f 45;
#X obj 526 334 cnv 15 350 190 empty empty empty 20 12 0 14 -4034 -66577
0;
#X obj 743 445 cnv 15 50 25 empty empty empty 20 12 0 14 -252032 -66577
0;
#X obj 677 446 cnv 15 50 25 empty empty empty 20 12 0 14 -252032 -66577
0;
#X obj 804 445 cnv 15 50 25 empty empty empty 20 12 0 14 -252032 -66577
0;
#X obj 545 344 cnv 15 65 50 empty empty empty 20 12 0 14 -252032 -66577
0;
#X obj 653 656 spigot;
#X floatatom 586 411 5 0 0 0 - - -, f 5;
#X floatatom 687 449 5 0 0 0 - - -, f 5;
#X floatatom 1219 599 5 0 0 0 - - -, f 5;
#X obj 1219 555 metro 125;
#X obj 1219 577 f;
#X obj 1246 577 + 1;
#X msg 813 580 1 0 2 0 3 0 4 0;
#X msg 653 679 set \$1 \$2 \$3 \$4 \$5 \$6 \$7 \$8;
#X msg 750 538 6 4 3 7 4 6;
#X floatatom 749 449 5 0 0 0 - - -, f 5;
#X floatatom 812 449 5 0 0 0 - - -, f 5;
#X obj 623 385 expr $f1 \; if ($f1 == 1 || $f1 == 2 \, 1 \, 0) \; if
($f1 == 1 && $f1 < 2 \, 1 \, 0) \; if ($f1 > 1 && $f1 == 2 \, 1 \,
0);
#X obj 749 474 select 1;
#X msg 551 372 1;
#X msg 584 359 3;
#X msg 555 347 2;
#X obj 645 704 cnv 15 120 30 empty empty empty 20 12 0 14 -232576 -66577
0;
#X msg 653 708 0 0 0 0 0 0 0 0;
#X obj 1177 670 cnv 15 50 30 empty empty empty 20 12 0 14 -232576 -66577
0;
#X obj 1212 528 cnv 15 25 25 empty empty empty 20 12 0 14 -232576 -66577
0;
#X obj 1217 535 tgl 15 0 empty empty empty 17 7 0 10 -262144 -1 -1
0 1;
#X floatatom 1183 677 5 0 0 0 - - -, f 5;
#X obj 534 561 cnv 15 150 30 empty empty empty 20 12 0 14 -258113 -66577
0;
#X msg 547 566 0 0 0 0 0 0 0 0;
#X text 646 565 reset;
#X obj 812 476 select 1;
#X obj 1275 580 cnv 15 60 30 empty empty empty 20 12 0 14 -258113 -66577
0;
#X msg 1278 589 0;
#X text 1301 588 reset;
#X obj 1178 646 spigot;
#X text 771 708 number MESSAGE;
#X obj 454 282 cnv 15 70 20 empty empty empty 20 12 0 14 -257985 -66577
0;
#X text 455 281 Example 6:;
#X text 911 579 triggered if input = '2';
#X obj 750 500 bng 15 250 50 0 empty empty empty 17 7 0 10 -260097
-257985 -1;
#X obj 813 503 bng 15 250 50 0 empty empty empty 17 7 0 10 -260097
-257985 -1;
#X obj 587 468 bng 15 250 50 0 empty empty empty 17 7 0 10 -260097
-257985 -1;
#X obj 587 447 select 0;
#X text 829 537 triggered if input = '1';
#X text 701 645 An input of '1' will OPEN the spigot ('0' closes the
spigot). Numbers (or lists of numbers) can then pass thru., f 69;
#X text 1277 613 triggered if input NOT '1'AND/OR '2', f 20;
#X text 493 541 triggered if input NOT '1'AND/OR '2';
#X text 1231 676 number FLOW;
#X text 1243 535 Start COUNTER;
#X obj 1138 322 cnv 15 160 50 empty empty empty 20 12 0 14 -4096 -66577
0;
#X text 249 503 N.B. Things get interesting when you cascade the output
of one conditional to an input of another, f 27;
#X text 95 279 If input >= 0 AND <= 15 \, then output input thru second
ouput \, ELSE output a '1' (bang), f 44;
#X text 1001 22 IF input <= 15 \, then output input thru second ouput
\, ELSE output a '1' (bang), f 43;
#X text 537 280 If input = 1 OR 2 \, then output 2 = '1' (open spigots)
\, ELSE output a '0'. If input = 1 ONLY \, then output 3 = '1' (output
4=0) \, ELSE output a '0'. If input = 2 ONLY \, then output 4 = '1'
(output 3=0) \, ELSE output a '0'., f 73;
#X obj 546 598 t b l;
#X text 1140 349 (cc) 2019 Marshall Heiser;
#X text 1144 326 CONDITIONALS: USING EXPR;
#X connect 12 0 15 0;
#X connect 15 0 13 0;
#X connect 15 1 14 0;
#X connect 16 0 15 0;
#X connect 17 0 15 0;
#X connect 24 0 27 0;
#X connect 27 0 25 0;
#X connect 27 1 26 0;
#X connect 28 0 27 0;
#X connect 29 0 27 0;
#X connect 37 0 49 0;
#X connect 40 0 43 0;
#X connect 42 0 43 0;
#X connect 43 0 38 0;
#X connect 43 1 39 0;
#X connect 43 1 44 0;
#X connect 44 0 48 0;
#X connect 45 0 44 1;
#X connect 47 0 45 0;
#X connect 47 0 46 0;
#X connect 48 0 41 0;
#X connect 49 0 43 0;
#X connect 49 1 47 0;
#X connect 71 0 85 0;
#X connect 74 0 85 0;
#X connect 75 0 85 0;
#X connect 76 0 85 0;
#X connect 79 0 83 0;
#X connect 80 0 88 0;
#X connect 81 0 80 0;
#X connect 82 0 83 0;
#X connect 83 0 77 0;
#X connect 83 1 78 0;
#X connect 83 1 89 0;
#X connect 84 0 83 0;
#X connect 85 0 72 0;
#X connect 85 1 73 0;
#X connect 86 0 85 1;
#X connect 87 0 86 0;
#X connect 88 0 86 0;
#X connect 89 0 81 0;
#X connect 90 0 89 1;
#X connect 92 0 90 0;
#X connect 92 0 91 0;
#X connect 93 0 83 0;
#X connect 93 1 92 0;
#X connect 94 0 93 0;
#X connect 103 0 111 0;
#X connect 105 0 103 1;
#X connect 105 0 133 1;
#X connect 105 0 124 0;
#X connect 105 0 141 0;
#X connect 106 0 133 0;
#X connect 107 0 108 0;
#X connect 108 0 109 0;
#X connect 108 0 106 0;
#X connect 109 0 108 1;
#X connect 110 0 111 0;
#X connect 111 0 121 0;
#X connect 112 0 111 0;
#X connect 113 0 116 0;
#X connect 114 0 129 0;
#X connect 115 0 104 0;
#X connect 115 1 105 0;
#X connect 115 2 113 0;
#X connect 115 3 114 0;
#X connect 116 0 138 0;
#X connect 117 0 115 0;
#X connect 118 0 115 0;
#X connect 119 0 115 0;
#X connect 124 0 107 0;
#X connect 127 0 153 0;
#X connect 129 0 139 0;
#X connect 131 0 108 1;
#X connect 131 0 124 0;
#X connect 131 0 125 0;
#X connect 133 0 125 0;
#X connect 138 0 112 0;
#X connect 139 0 110 0;
#X connect 140 0 127 0;
#X connect 140 0 131 0;
#X connect 141 0 140 0;
#X connect 153 0 111 0;
#X connect 153 1 103 0;
