#N canvas 233 74 1326 1062 12;
#X obj 175 288 noteout;
#X obj 181 46 notein;
#X obj 55 166 + 7, f 7;
#X obj 117 165 + 16, f 7;
#X floatatom 399 94 5 0 0 0 - - -;
#X obj 401 274 noteout;
#X obj 399 127 sel 32;
#X obj 634 61 notein;
#X obj 555 203 bng 15 250 50 0 empty empty empty 17 7 0 10 -262144
-1 -1;
#X obj 84 440 vsl 15 128 0 127 0 0 empty empty empty 0 -9 0 10 -262144
-1 -1 0 1;
#X obj 94 614 s note1;
#X obj 84 332 ctlin 1;
#X obj 400 60 key;
#X obj 85 661 r note1;
#X obj 94 704 sel 0 12 24 36 48 60 72 84 96 100 120;
#X floatatom 89 379 5 0 0 0 - - -;
#X obj 89 770 bng 15 250 50 0 empty empty empty 17 7 0 10 -262144 -1
-1;
#X msg 129 809 48;
#X msg 165 812 55;
#X msg 213 811 60;
#X obj 119 768 bng 15 250 50 0 empty empty empty 17 7 0 10 -262144
-1 -1;
#X obj 149 770 bng 15 250 50 0 empty empty empty 17 7 0 10 -262144
-1 -1;
#X obj 176 772 bng 15 250 50 0 empty empty empty 17 7 0 10 -262144
-1 -1;
#X text 399 682 select multiples of 12;
#X msg 252 811 64;
#X msg 290 811 67;
#X msg 373 810 72;
#X msg 408 810 76;
#X msg 450 811 79;
#X msg 486 811 83;
#X obj 201 772 bng 15 250 50 0 empty empty empty 17 7 0 10 -262144
-1 -1;
#X obj 226 771 bng 15 250 50 0 empty empty empty 17 7 0 10 -262144
-1 -1;
#X obj 252 770 bng 15 250 50 0 empty empty empty 17 7 0 10 -262144
-1 -1;
#X obj 285 769 bng 15 250 50 0 empty empty empty 17 7 0 10 -262144
-1 -1;
#X obj 312 769 bng 15 250 50 0 empty empty empty 17 7 0 10 -262144
-1 -1;
#X obj 345 766 bng 15 250 50 0 empty empty empty 17 7 0 10 -262144
-1 -1;
#X obj 380 764 bng 15 250 50 0 empty empty empty 17 7 0 10 -262144
-1 -1;
#X obj 188 434 vsl 15 128 0 127 0 0 empty empty empty 0 -9 0 10 -262144
-1 -1 11400 1;
#X floatatom 182 384 5 0 0 0 - - -;
#X obj 186 622 s vel1;
#X obj 176 332 ctlin 2;
#X obj 374 879 r vel1, f 7;
#X obj 114 938 makenote 0 200;
#X msg 330 809 69;
#X msg 86 809 36;
#X obj 313 447 vsl 15 128 0 127 0 0 empty empty empty 0 -9 0 10 -262144
-1 -1 0 1;
#X floatatom 314 384 5 0 0 0 - - -;
#X obj 410 447 vsl 15 128 0 127 0 0 empty empty empty 0 -9 0 10 -262144
-1 -1 11700 1;
#X floatatom 405 384 5 0 0 0 - - -;
#X obj 308 332 ctlin 3;
#X obj 401 332 ctlin 4;
#X obj 318 622 s note2;
#X obj 410 622 s vel2;
#X obj 561 700 sel 0 12 24 36 48 60 72 84 96 100 120;
#X obj 556 766 bng 15 250 50 0 empty empty empty 17 7 0 10 -262144
-1 -1;
#X obj 586 765 bng 15 250 50 0 empty empty empty 17 7 0 10 -262144
-1 -1;
#X obj 616 766 bng 15 250 50 0 empty empty empty 17 7 0 10 -262144
-1 -1;
#X obj 643 768 bng 15 250 50 0 empty empty empty 17 7 0 10 -262144
-1 -1;
#X text 866 678 select multiples of 12;
#X obj 668 768 bng 15 250 50 0 empty empty empty 17 7 0 10 -262144
-1 -1;
#X obj 693 767 bng 15 250 50 0 empty empty empty 17 7 0 10 -262144
-1 -1;
#X obj 720 766 bng 15 250 50 0 empty empty empty 17 7 0 10 -262144
-1 -1;
#X obj 752 765 bng 15 250 50 0 empty empty empty 17 7 0 10 -262144
-1 -1;
#X obj 779 765 bng 15 250 50 0 empty empty empty 17 7 0 10 -262144
-1 -1;
#X obj 812 762 bng 15 250 50 0 empty empty empty 17 7 0 10 -262144
-1 -1;
#X obj 847 760 bng 15 250 50 0 empty empty empty 17 7 0 10 -262144
-1 -1;
#X obj 581 934 makenote 0 200;
#X msg 553 805 41;
#X msg 596 805 53;
#X msg 632 808 60;
#X msg 680 807 65;
#X msg 719 807 69;
#X msg 758 807 72;
#X msg 797 805 76;
#X msg 840 806 77;
#X msg 874 806 81;
#X msg 917 807 84;
#X msg 953 807 88;
#X obj 841 875 r vel2, f 7;
#X obj 552 657 r note2;
#X obj 702 340 netreceive -u -b 57120;
#X obj 705 369 oscparse;
#X obj 727 401 list trim;
#X obj 805 468 bng 15 250 50 0 empty empty empty 17 7 0 10 -262144
-1 -1;
#X obj 809 511 36, f 5;
#X obj 398 170 36, f 5;
#X obj 399 221 makenote 100 3000;
#X obj 789 605 stripnote;
#X obj 790 552 makenote 127 200;
#X obj 945 463 bng 15 250 50 0 empty empty empty 17 7 0 10 -262144
-1 -1;
#X obj 929 600 stripnote;
#X obj 930 547 makenote 127 200;
#X obj 949 506 37, f 5;
#X obj 833 183 midiout 2;
#X obj 852 419 route button_1 button_2;
#X obj 794 661 noteout 1;
#X obj 934 656 noteout 1;
#X obj 139 984 noteout 1;
#X obj 606 980 noteout 2;
#X obj 950 39 oscparse;
#X obj 940 71 list trim;
#X obj 919 222 hsl 60 15 0 127 0 0 empty empty empty -2 -8 0 10 -262144
-1 -1 0 1;
#X floatatom 924 163 5 0 0 0 - - -;
#X obj 937 106 route fader_1;
#X obj 914 260 s note2;
#X obj 944 13 netreceive -u -b 57121;
#X obj 632 137 sel 69;
#X obj 640 197 oscformat;
#X floatatom 534 486 5 0 0 0 - - -;
#X obj 690 432 print;
#X floatatom 564 340 5 0 0 0 - - -;
#X msg 572 380 send /button_2 \$1;
#X obj 540 419 oscformat;
#X obj 525 456 udpsend;
#X msg 487 538 send 0 1 2 3;
#X text 590 537 send raw data;
#X obj 519 605 udpsend;
#X msg 493 309 connect 127.0.0.1 9997;
#X msg 570 571 disconnect;
#X connect 1 0 0 0;
#X connect 1 0 2 0;
#X connect 1 0 3 0;
#X connect 1 1 0 1;
#X connect 2 0 0 0;
#X connect 3 0 0 0;
#X connect 4 0 6 0;
#X connect 6 0 85 0;
#X connect 7 0 106 0;
#X connect 9 0 10 0;
#X connect 11 0 15 0;
#X connect 12 0 4 0;
#X connect 13 0 14 0;
#X connect 14 0 16 0;
#X connect 14 1 20 0;
#X connect 14 2 21 0;
#X connect 14 3 22 0;
#X connect 14 4 30 0;
#X connect 14 5 31 0;
#X connect 14 6 32 0;
#X connect 14 7 33 0;
#X connect 14 8 34 0;
#X connect 14 9 35 0;
#X connect 14 10 36 0;
#X connect 15 0 9 0;
#X connect 16 0 44 0;
#X connect 17 0 42 0;
#X connect 18 0 42 0;
#X connect 19 0 42 0;
#X connect 20 0 17 0;
#X connect 21 0 18 0;
#X connect 22 0 19 0;
#X connect 24 0 42 0;
#X connect 25 0 42 0;
#X connect 26 0 42 0;
#X connect 27 0 42 0;
#X connect 28 0 42 0;
#X connect 29 0 42 0;
#X connect 30 0 24 0;
#X connect 31 0 25 0;
#X connect 32 0 43 0;
#X connect 33 0 26 0;
#X connect 34 0 27 0;
#X connect 35 0 28 0;
#X connect 36 0 29 0;
#X connect 37 0 39 0;
#X connect 38 0 37 0;
#X connect 40 0 38 0;
#X connect 41 0 42 1;
#X connect 42 0 97 0;
#X connect 42 1 97 1;
#X connect 43 0 42 0;
#X connect 44 0 42 0;
#X connect 45 0 51 0;
#X connect 46 0 45 0;
#X connect 47 0 52 0;
#X connect 48 0 47 0;
#X connect 49 0 46 0;
#X connect 50 0 48 0;
#X connect 53 0 54 0;
#X connect 53 1 55 0;
#X connect 53 2 56 0;
#X connect 53 3 57 0;
#X connect 53 4 59 0;
#X connect 53 5 60 0;
#X connect 53 6 61 0;
#X connect 53 7 62 0;
#X connect 53 8 63 0;
#X connect 53 9 64 0;
#X connect 53 10 65 0;
#X connect 54 0 67 0;
#X connect 55 0 68 0;
#X connect 56 0 69 0;
#X connect 57 0 70 0;
#X connect 59 0 71 0;
#X connect 60 0 72 0;
#X connect 61 0 73 0;
#X connect 62 0 74 0;
#X connect 63 0 75 0;
#X connect 64 0 76 0;
#X connect 65 0 77 0;
#X connect 66 0 98 0;
#X connect 66 1 98 1;
#X connect 67 0 66 0;
#X connect 68 0 66 0;
#X connect 69 0 66 0;
#X connect 70 0 66 0;
#X connect 71 0 66 0;
#X connect 72 0 66 0;
#X connect 73 0 66 0;
#X connect 74 0 66 0;
#X connect 75 0 66 0;
#X connect 76 0 66 0;
#X connect 77 0 66 0;
#X connect 78 0 66 1;
#X connect 79 0 53 0;
#X connect 80 0 81 0;
#X connect 81 0 82 0;
#X connect 82 0 94 0;
#X connect 83 0 84 0;
#X connect 84 0 88 0;
#X connect 85 0 86 0;
#X connect 86 0 5 0;
#X connect 86 1 5 1;
#X connect 87 0 95 0;
#X connect 87 1 95 1;
#X connect 88 0 87 0;
#X connect 88 1 87 1;
#X connect 89 0 92 0;
#X connect 90 0 96 0;
#X connect 90 1 96 1;
#X connect 91 0 90 0;
#X connect 91 1 90 1;
#X connect 92 0 91 0;
#X connect 94 0 83 0;
#X connect 94 1 89 0;
#X connect 99 0 100 0;
#X connect 100 0 103 0;
#X connect 101 0 104 0;
#X connect 102 0 101 0;
#X connect 103 0 102 0;
#X connect 105 0 99 0;
#X connect 106 0 8 0;
#X connect 106 0 107 0;
#X connect 110 0 111 0;
#X connect 111 0 109 0;
#X connect 111 0 112 0;
#X connect 112 0 113 0;
#X connect 113 0 108 0;
#X connect 114 0 116 0;
#X connect 117 0 114 0;
#X connect 118 0 116 0;
