#N canvas 0 63 1920 1101 12;
#X obj 47 413 bng 30 250 50 0 empty empty empty 17 7 0 10 -262144 -1
-1;
#X msg 7 471 0;
#X floatatom 1650 2842 5 0 0 0 - - -;
#X obj 1686 2703 vsl 15 128 0 127 0 0 empty empty empty 0 -9 0 10 -262144
-1 -1 0 1;
#X msg 50 471 1;
#X msg 86 474 2;
#X msg 134 473 3;
#X msg 173 473 4;
#X msg 211 473 5;
#X msg 251 471 6;
#X msg 293 471 7;
#X obj 115 1839 midiin;
#X floatatom 112 1896 5 0 0 0 - - -;
#X floatatom 174 1898 5 0 0 0 - - -;
#X obj 136 1933 ctlin;
#X floatatom 110 1974 5 0 0 0 - - -;
#X floatatom 172 1970 5 0 0 0 - - -;
#X floatatom 226 1970 5 0 0 0 - - -;
#X obj 61 32 notein;
#X floatatom 16 86 5 0 0 0 - - -;
#X floatatom 65 84 5 0 0 0 - - -;
#X floatatom 111 81 5 0 0 0 - - -;
#X msg 1648 2509 1;
#X msg 1693 2507 -1;
#X obj 1645 2555 +;
#X obj 1700 2553 f;
#X floatatom 1652 2603 5 0 0 0 - - -;
#X floatatom 166 370 5 0 0 0 - - -;
#X msg 170 333 48, f 4;
#X msg 302 2298 66, f 4;
#X obj 243 2478 noteout 5, f 14;
#X obj 407 2197 bng 30 250 50 0 empty empty empty 17 7 0 10 -262144
-1 -1;
#X obj 361 2479 noteout 5, f 14;
#X msg 365 2298 67, f 4;
#X obj 339 1991 bng 30 250 50 0 empty empty empty 17 7 0 10 -262144
-1 -1;
#X floatatom 318 2122 5 0 0 0 - - -;
#X msg 324 2077 48, f 4;
#X obj 332 2036 delay 100;
#X floatatom 384 2125 5 0 0 0 - - -;
#X obj 385 411 bng 30 250 50 0 empty empty empty 17 7 0 10 -262144
-1 -1;
#X floatatom 517 353 5 0 0 0 - - -;
#X obj 503 281 delay 500;
#X msg 345 469 16;
#X msg 388 469 17;
#X msg 425 472 18;
#X msg 472 471 19;
#X msg 511 471 20;
#X msg 549 471 21;
#X msg 589 469 22;
#X msg 631 469 23;
#X msg 521 314 67, f 4;
#X obj 679 411 bng 30 250 50 0 empty empty empty 17 7 0 10 -262144
-1 -1;
#X floatatom 812 362 5 0 0 0 - - -;
#X obj 815 285 delay 500;
#X msg 682 469 32;
#X msg 719 472 33;
#X msg 766 471 34;
#X msg 805 471 35;
#X msg 843 471 36;
#X msg 883 469 37;
#X msg 925 469 38;
#X msg 963 469 39;
#X floatatom 450 2123 5 0 0 0 - - -;
#X obj 483 2476 noteout 5, f 14;
#X msg 444 2299 68, f 4;
#X obj 334 2199 bng 30 250 50 0 empty empty empty 17 7 0 10 -262144
-1 -1;
#X obj 491 2193 bng 30 250 50 0 empty empty empty 17 7 0 10 -262144
-1 -1;
#X msg 816 323 83, f 4;
#X msg 456 2078 83, f 4;
#X obj 980 397 bng 30 250 50 0 empty empty empty 17 7 0 10 -262144
-1 -1;
#X obj 967 545 noteout 13;
#X obj 1129 272 delay 500;
#X msg 1007 468 48;
#X msg 1046 471 49;
#X msg 1101 470 50;
#X msg 1140 470 51;
#X msg 1252 465 52;
#X msg 1292 463 53;
#X msg 1327 460 54;
#X msg 1372 463 55;
#X floatatom 542 2124 5 0 0 0 - - -;
#X obj 597 2474 noteout 5, f 14;
#X obj 579 2192 bng 30 250 50 0 empty empty empty 17 7 0 10 -262144
-1 -1;
#X msg 561 2298 69, f 4;
#X msg 530 2077 28, f 4;
#X obj 1596 407 bng 30 250 50 0 empty empty empty 17 7 0 10 -262144
-1 -1;
#X floatatom 1734 375 5 0 0 0 - - -;
#X obj 1714 290 delay 500;
#X msg 1738 336 13, f 4;
#X msg 1546 464 64;
#X msg 1582 464 65;
#X msg 1621 464 66;
#X msg 1658 461 67;
#X msg 1695 461 68;
#X msg 1738 460 69;
#X msg 1778 461 70;
#X msg 1811 459 71;
#X floatatom 653 2124 5 0 0 0 - - -;
#X obj 708 2474 noteout 5, f 14;
#X obj 690 2192 bng 30 250 50 0 empty empty empty 17 7 0 10 -262144
-1 -1;
#X msg 616 2076 13, f 4;
#X msg 672 2298 70, f 4;
#X obj 249 2524 noteout 6, f 14;
#X obj 367 2525 noteout 6, f 14;
#X obj 489 2522 noteout 6, f 14;
#X obj 603 2520 noteout 6, f 14;
#X obj 714 2520 noteout 6, f 14;
#X floatatom 1813 774 5 0 0 0 - - -;
#X floatatom 1812 752 5 0 0 0 - - -;
#X obj 1763 711 t f;
#X obj 1830 728 t f;
#X obj 1825 676 delay 150;
#X obj 1760 581 bng 30 250 50 0 empty empty empty 17 7 0 10 -262144
-1 -1;
#X obj 1761 680 f 127;
#X obj 1841 703 f 1;
#X floatatom 1150 2533 5 0 0 0 - - -;
#X floatatom 1215 2530 5 0 0 0 - - -;
#X floatatom 1279 2530 5 0 0 0 - - -;
#X msg 1498 2549 1 2 3 abc def;
#X obj 1409 2603 t b l;
#X obj 1414 2639 until;
#X obj 1409 2679 list;
#X obj 1411 2715 list split 1;
#X obj 1447 2751 route bang;
#X obj 1450 2791 t b b;
#X obj 1456 2829 print done;
#X obj 1417 2862 print do-stuff-here;
#X obj 1405 2511 notein;
#X obj 1167 2606 pack f f f;
#X obj 1176 2655 t l;
#X obj 1122 2717 print l;
#X obj 1201 2766 bng 30 250 50 0 empty empty empty 17 7 0 10 -262144
-1 -1;
#X obj 1206 2716 == 64 0 14;
#X obj 1431 4135 notein;
#X floatatom 1413 4187 5 0 0 0 - - -;
#X floatatom 1478 4184 5 0 0 0 - - -;
#X floatatom 1542 4184 5 0 0 0 - - -;
#X obj 1254 3170 t l;
#X obj 1189 3200 print l;
#X obj 1268 3249 bng 30 250 50 0 empty empty empty 17 7 0 10 -262144
-1 -1;
#X obj 1273 3199 == 64 0 14;
#X obj 1446 4300 &&;
#X obj 666 4415 bng 30 250 50 0 empty empty empty 17 7 0 10 -262144
-1 -1;
#X floatatom 1449 4334 5 0 0 0 - - -;
#X obj 1473 4227 >= 1;
#X obj 1445 4368 sel 1;
#X obj 225 139 &&;
#X obj 189 246 bng 30 250 50 0 empty empty empty 17 7 0 10 -262144
-1 -1;
#X floatatom 198 165 5 0 0 0 - - -;
#X obj 252 66 >= 1;
#X obj 186 206 sel 1;
#X obj 74 113 s vel;
#X obj 12 115 s note;
#X obj 126 112 s chan;
#X obj 187 28 r note;
#X obj 246 28 r vel;
#X obj 305 29 r chan;
#X obj 195 64 == 66;
#X obj 298 64 == 5;
#X msg 363 1915 Top Buttons;
#X msg 698 2 Buttons / Pads;
#X obj 465 126 &&;
#X obj 429 233 bng 30 250 50 0 empty empty empty 17 7 0 10 -262144
-1 -1;
#X floatatom 468 160 5 0 0 0 - - -;
#X obj 492 53 >= 1;
#X obj 464 194 sel 1;
#X obj 427 15 r note;
#X obj 486 15 r vel;
#X obj 545 16 r chan;
#X obj 538 51 == 5;
#X obj 435 51 == 67;
#X obj 842 133 &&;
#X obj 803 246 bng 30 250 50 0 empty empty empty 17 7 0 10 -262144
-1 -1;
#X floatatom 845 167 5 0 0 0 - - -;
#X obj 869 60 >= 1;
#X obj 841 201 sel 1;
#X obj 804 22 r note;
#X obj 863 22 r vel;
#X obj 922 23 r chan;
#X obj 915 58 == 5;
#X obj 812 58 == 68;
#X obj 1173 121 &&;
#X obj 1134 234 bng 30 250 50 0 empty empty empty 17 7 0 10 -262144
-1 -1;
#X floatatom 1176 155 5 0 0 0 - - -;
#X obj 1200 48 >= 1;
#X obj 1172 189 sel 1;
#X obj 1135 10 r note;
#X obj 1194 10 r vel;
#X obj 1253 11 r chan;
#X obj 1246 46 == 5;
#X obj 1143 46 == 69;
#X obj 1704 113 &&;
#X obj 1665 226 bng 30 250 50 0 empty empty empty 17 7 0 10 -262144
-1 -1;
#X floatatom 1707 147 5 0 0 0 - - -;
#X obj 1731 40 >= 1;
#X obj 1703 181 sel 1;
#X obj 1666 2 r note;
#X obj 1725 2 r vel;
#X obj 1784 3 r chan;
#X obj 1777 38 == 5;
#X obj 1674 38 == 70;
#X obj 478 233 s top_buttons;
#X obj 240 237 s top_buttons;
#X obj 855 240 s top_buttons;
#X obj 1186 228 s top_buttons;
#X obj 1717 220 s top_buttons;
#X obj 332 1955 r top_buttons;
#X msg 294 2558 Parameter Buttons;
#X obj 56 1175 bng 30 250 50 0 empty empty empty 17 7 0 10 -262144
-1 -1;
#X msg 59 1233 1;
#X msg 95 1236 2;
#X msg 143 1235 3;
#X msg 182 1235 4;
#X msg 220 1235 5;
#X msg 260 1233 6;
#X msg 302 1233 7;
#X floatatom 175 1132 5 0 0 0 - - -;
#X msg 179 1093 48, f 4;
#X obj 178 1055 delay 500;
#X obj 394 1173 bng 30 250 50 0 empty empty empty 17 7 0 10 -262144
-1 -1;
#X floatatom 526 1115 5 0 0 0 - - -;
#X obj 512 1043 delay 500;
#X msg 354 1231 16;
#X msg 397 1231 17;
#X msg 434 1234 18;
#X msg 481 1233 19;
#X msg 520 1233 20;
#X msg 558 1233 21;
#X msg 598 1231 22;
#X msg 640 1231 23;
#X msg 530 1076 67, f 4;
#X obj 688 1173 bng 30 250 50 0 empty empty empty 17 7 0 10 -262144
-1 -1;
#X floatatom 821 1124 5 0 0 0 - - -;
#X obj 824 1047 delay 500;
#X msg 691 1231 32;
#X msg 728 1234 33;
#X msg 775 1233 34;
#X msg 814 1233 35;
#X msg 852 1233 36;
#X msg 892 1231 37;
#X msg 934 1231 38;
#X msg 972 1231 39;
#X msg 825 1085 83, f 4;
#X obj 1620 1208 bng 30 250 50 0 empty empty empty 17 7 0 10 -262144
-1 -1;
#X floatatom 1758 1176 5 0 0 0 - - -;
#X obj 1738 1091 delay 500;
#X msg 1762 1137 13, f 4;
#X msg 1623 1266 64;
#X msg 1660 1269 65;
#X msg 1707 1268 66;
#X msg 1746 1268 67;
#X msg 1784 1268 68;
#X msg 1824 1266 69;
#X msg 1867 1266 70;
#X msg 1577 1266 71;
#X obj 234 901 &&;
#X obj 198 1008 bng 30 250 50 0 empty empty empty 17 7 0 10 -262144
-1 -1;
#X floatatom 239 935 5 0 0 0 - - -;
#X obj 261 828 >= 1;
#X obj 233 969 sel 1;
#X obj 196 790 r note;
#X obj 255 790 r vel;
#X obj 314 791 r chan;
#X obj 204 826 == 66;
#X msg 707 764 Buttons / Pads;
#X obj 474 888 &&;
#X obj 438 995 bng 30 250 50 0 empty empty empty 17 7 0 10 -262144
-1 -1;
#X floatatom 477 922 5 0 0 0 - - -;
#X obj 501 815 >= 1;
#X obj 473 956 sel 1;
#X obj 436 777 r note;
#X obj 495 777 r vel;
#X obj 554 778 r chan;
#X obj 444 813 == 67;
#X obj 851 895 &&;
#X obj 812 1008 bng 30 250 50 0 empty empty empty 17 7 0 10 -262144
-1 -1;
#X floatatom 854 929 5 0 0 0 - - -;
#X obj 878 822 >= 1;
#X obj 850 963 sel 1;
#X obj 813 784 r note;
#X obj 872 784 r vel;
#X obj 931 785 r chan;
#X obj 821 820 == 68;
#X obj 1728 914 &&;
#X obj 1689 1027 bng 30 250 50 0 empty empty empty 17 7 0 10 -262144
-1 -1;
#X floatatom 1731 948 5 0 0 0 - - -;
#X obj 1755 841 >= 1;
#X obj 1727 982 sel 1;
#X obj 1690 803 r note;
#X obj 1749 803 r vel;
#X obj 1808 804 r chan;
#X obj 1698 839 == 70;
#X obj 487 995 s top_buttons;
#X obj 247 1008 s top_buttons;
#X obj 864 1002 s top_buttons;
#X obj 1741 1021 s top_buttons;
#X obj 281 859 t b f;
#X obj 307 826 == 6;
#X obj 547 813 == 6;
#X obj 924 820 == 6;
#X obj 1801 839 == 6;
#X obj 245 96 t b f;
#X obj 512 84 t b f;
#X obj 889 91 t b f;
#X obj 1220 79 t b f;
#X obj 1751 71 t b f;
#X obj 898 853 t b f;
#X obj 521 846 t b f;
#X obj 1775 872 t b f;
#X msg 17 1233 0;
#X obj 250 2588 r note;
#X obj 318 2590 r vel;
#X obj 268 2673 stripnote;
#X floatatom 277 2733 5 0 0 0 - - -;
#X floatatom 343 2732 5 0 0 0 - - -;
#X obj 268 2884 &&;
#X floatatom 271 2918 5 0 0 0 - - -;
#X obj 267 2952 sel 1;
#X obj 384 2782 == 5;
#X obj 251 2785 == 40;
#X obj 315 2842 t b f;
#X obj 377 2589 r chan;
#X obj 260 2999 bng 30 250 50 0 empty empty empty 17 7 0 10 -262144
-1 -1;
#X obj 306 2784 == 127;
#X obj 257 3117 bng 30 250 50 0 empty empty empty 17 7 0 10 -262144
-1 -1;
#X msg 274 3155 40, f 4;
#X obj 262 3077 t f;
#X obj 260 3046 f 127;
#X obj 281 3247 noteout 5, f 14;
#X floatatom 315 3122 5 0 0 0 - - -;
#X obj 357 3078 t f;
#X obj 352 3026 delay 50;
#X obj 369 3053 f 1;
#X obj 472 2588 r note;
#X obj 540 2590 r vel;
#X obj 490 2673 stripnote;
#X floatatom 499 2733 5 0 0 0 - - -;
#X floatatom 565 2732 5 0 0 0 - - -;
#X obj 490 2884 &&;
#X floatatom 493 2918 5 0 0 0 - - -;
#X obj 489 2952 sel 1;
#X obj 606 2782 == 5;
#X obj 537 2842 t b f;
#X obj 599 2589 r chan;
#X obj 482 2999 bng 30 250 50 0 empty empty empty 17 7 0 10 -262144
-1 -1;
#X obj 528 2784 == 127;
#X obj 479 3117 bng 30 250 50 0 empty empty empty 17 7 0 10 -262144
-1 -1;
#X obj 484 3077 t f;
#X obj 482 3046 f 127;
#X obj 503 3247 noteout 5, f 14;
#X floatatom 537 3122 5 0 0 0 - - -;
#X obj 579 3078 t f;
#X obj 574 3026 delay 50;
#X obj 591 3053 f 1;
#X obj 473 2785 == 41;
#X msg 496 3155 41, f 4;
#X obj 670 2585 r note;
#X obj 738 2587 r vel;
#X obj 688 2670 stripnote;
#X floatatom 697 2730 5 0 0 0 - - -;
#X floatatom 763 2729 5 0 0 0 - - -;
#X obj 688 2881 &&;
#X floatatom 691 2915 5 0 0 0 - - -;
#X obj 687 2949 sel 1;
#X obj 735 2839 t b f;
#X obj 797 2586 r chan;
#X obj 680 2996 bng 30 250 50 0 empty empty empty 17 7 0 10 -262144
-1 -1;
#X obj 726 2781 == 127;
#X obj 677 3114 bng 30 250 50 0 empty empty empty 17 7 0 10 -262144
-1 -1;
#X obj 682 3074 t f;
#X obj 680 3043 f 127;
#X floatatom 735 3119 5 0 0 0 - - -;
#X obj 777 3075 t f;
#X obj 772 3023 delay 50;
#X obj 789 3050 f 1;
#X obj 804 2779 == 6;
#X obj 671 2782 == 40;
#X msg 694 3152 40, f 4;
#X obj 701 3244 noteout 6, f 14;
#X obj 868 2586 r note;
#X obj 936 2588 r vel;
#X obj 886 2671 stripnote;
#X floatatom 895 2731 5 0 0 0 - - -;
#X floatatom 961 2730 5 0 0 0 - - -;
#X obj 886 2882 &&;
#X floatatom 889 2916 5 0 0 0 - - -;
#X obj 885 2950 sel 1;
#X obj 933 2840 t b f;
#X obj 995 2587 r chan;
#X obj 878 2997 bng 30 250 50 0 empty empty empty 17 7 0 10 -262144
-1 -1;
#X obj 924 2782 == 127;
#X obj 875 3115 bng 30 250 50 0 empty empty empty 17 7 0 10 -262144
-1 -1;
#X obj 880 3075 t f;
#X obj 878 3044 f 127;
#X floatatom 933 3120 5 0 0 0 - - -;
#X obj 975 3076 t f;
#X obj 970 3024 delay 50;
#X obj 987 3051 f 1;
#X obj 1002 2780 == 6;
#X obj 899 3245 noteout 6, f 14;
#X obj 869 2783 == 41;
#X msg 892 3153 41, f 4;
#X obj 221 3310 r note;
#X obj 289 3312 r vel;
#X obj 239 3395 stripnote;
#X floatatom 248 3455 5 0 0 0 - - -;
#X floatatom 314 3454 5 0 0 0 - - -;
#X obj 239 3606 &&;
#X floatatom 242 3640 5 0 0 0 - - -;
#X obj 238 3674 sel 1;
#X obj 355 3504 == 5;
#X obj 286 3564 t b f;
#X obj 348 3311 r chan;
#X obj 231 3721 bng 30 250 50 0 empty empty empty 17 7 0 10 -262144
-1 -1;
#X obj 277 3506 == 127;
#X obj 228 3839 bng 30 250 50 0 empty empty empty 17 7 0 10 -262144
-1 -1;
#X obj 233 3799 t f;
#X obj 231 3768 f 127;
#X obj 252 3969 noteout 5, f 14;
#X floatatom 286 3844 5 0 0 0 - - -;
#X obj 328 3800 t f;
#X obj 323 3748 delay 50;
#X obj 340 3775 f 1;
#X obj 443 3310 r note;
#X obj 511 3312 r vel;
#X obj 461 3395 stripnote;
#X floatatom 470 3455 5 0 0 0 - - -;
#X floatatom 536 3454 5 0 0 0 - - -;
#X obj 461 3606 &&;
#X floatatom 464 3640 5 0 0 0 - - -;
#X obj 460 3674 sel 1;
#X obj 577 3504 == 5;
#X obj 508 3564 t b f;
#X obj 570 3311 r chan;
#X obj 453 3721 bng 30 250 50 0 empty empty empty 17 7 0 10 -262144
-1 -1;
#X obj 499 3506 == 127;
#X obj 450 3839 bng 30 250 50 0 empty empty empty 17 7 0 10 -262144
-1 -1;
#X obj 455 3799 t f;
#X obj 453 3768 f 127;
#X obj 474 3969 noteout 5, f 14;
#X floatatom 508 3844 5 0 0 0 - - -;
#X obj 550 3800 t f;
#X obj 545 3748 delay 50;
#X obj 562 3775 f 1;
#X obj 641 3307 r note;
#X obj 709 3309 r vel;
#X obj 659 3392 stripnote;
#X floatatom 668 3452 5 0 0 0 - - -;
#X floatatom 734 3451 5 0 0 0 - - -;
#X obj 659 3603 &&;
#X floatatom 662 3637 5 0 0 0 - - -;
#X obj 658 3671 sel 1;
#X obj 706 3561 t b f;
#X obj 768 3308 r chan;
#X obj 651 3718 bng 30 250 50 0 empty empty empty 17 7 0 10 -262144
-1 -1;
#X obj 697 3503 == 127;
#X obj 648 3836 bng 30 250 50 0 empty empty empty 17 7 0 10 -262144
-1 -1;
#X obj 653 3796 t f;
#X obj 651 3765 f 127;
#X floatatom 706 3841 5 0 0 0 - - -;
#X obj 748 3797 t f;
#X obj 743 3745 delay 50;
#X obj 760 3772 f 1;
#X obj 775 3501 == 6;
#X obj 672 3966 noteout 6, f 14;
#X obj 839 3308 r note;
#X obj 907 3310 r vel;
#X obj 857 3393 stripnote;
#X floatatom 866 3453 5 0 0 0 - - -;
#X floatatom 932 3452 5 0 0 0 - - -;
#X obj 857 3604 &&;
#X floatatom 860 3638 5 0 0 0 - - -;
#X obj 856 3672 sel 1;
#X obj 904 3562 t b f;
#X obj 966 3309 r chan;
#X obj 849 3719 bng 30 250 50 0 empty empty empty 17 7 0 10 -262144
-1 -1;
#X obj 895 3504 == 127;
#X obj 846 3837 bng 30 250 50 0 empty empty empty 17 7 0 10 -262144
-1 -1;
#X obj 851 3797 t f;
#X obj 849 3766 f 127;
#X floatatom 904 3842 5 0 0 0 - - -;
#X obj 946 3798 t f;
#X obj 941 3746 delay 50;
#X obj 958 3773 f 1;
#X obj 973 3502 == 6;
#X obj 870 3967 noteout 6, f 14;
#X msg 181 3279 Parameter Buttons Shift Function;
#X obj 222 3507 == 42;
#X msg 245 3877 42, f 4;
#X obj 444 3507 == 43;
#X msg 467 3878 43, f 4;
#X obj 642 3504 == 42;
#X msg 665 3874 42, f 4;
#X msg 863 3875 43, f 4;
#X obj 840 3505 == 43;
#X obj 189 4484 bng 30 250 50 0 empty empty empty 17 7 0 10 -262144
-1 -1;
#X obj 186 4602 bng 30 250 50 0 empty empty empty 17 7 0 10 -262144
-1 -1;
#X obj 191 4562 t f;
#X obj 189 4531 f 127;
#X floatatom 244 4607 5 0 0 0 - - -;
#X obj 286 4563 t f;
#X obj 298 4538 f 1;
#X msg 203 4640 80, f 4;
#X obj 210 4732 noteout 15, f 14;
#X obj 281 4511 delay 100;
#X obj 378 4480 bng 30 250 50 0 empty empty empty 17 7 0 10 -262144
-1 -1;
#X obj 375 4598 bng 30 250 50 0 empty empty empty 17 7 0 10 -262144
-1 -1;
#X obj 380 4558 t f;
#X obj 378 4527 f 127;
#X floatatom 440 4604 5 0 0 0 - - -;
#X obj 475 4559 t f;
#X obj 487 4534 f 1;
#X obj 399 4728 noteout 15, f 14;
#X obj 470 4507 delay 100;
#X msg 392 4636 81, f 4;
#X obj 570 4479 bng 30 250 50 0 empty empty empty 17 7 0 10 -262144
-1 -1;
#X obj 567 4597 bng 30 250 50 0 empty empty empty 17 7 0 10 -262144
-1 -1;
#X obj 572 4557 t f;
#X obj 570 4526 f 127;
#X floatatom 625 4602 5 0 0 0 - - -;
#X obj 667 4558 t f;
#X obj 679 4533 f 1;
#X obj 591 4727 noteout 15, f 14;
#X obj 662 4506 delay 100;
#X msg 584 4635 82, f 4;
#X obj 755 4478 bng 30 250 50 0 empty empty empty 17 7 0 10 -262144
-1 -1;
#X obj 752 4596 bng 30 250 50 0 empty empty empty 17 7 0 10 -262144
-1 -1;
#X obj 757 4556 t f;
#X obj 755 4525 f 127;
#X floatatom 810 4601 5 0 0 0 - - -;
#X obj 852 4557 t f;
#X obj 864 4532 f 1;
#X obj 776 4726 noteout 15, f 14;
#X obj 847 4505 delay 100;
#X obj 930 4477 bng 30 250 50 0 empty empty empty 17 7 0 10 -262144
-1 -1;
#X obj 927 4595 bng 30 250 50 0 empty empty empty 17 7 0 10 -262144
-1 -1;
#X obj 932 4555 t f;
#X obj 930 4524 f 127;
#X floatatom 985 4600 5 0 0 0 - - -;
#X obj 1027 4556 t f;
#X obj 1039 4531 f 1;
#X obj 951 4725 noteout 15, f 14;
#X obj 1022 4504 delay 100;
#X obj 1108 4474 bng 30 250 50 0 empty empty empty 17 7 0 10 -262144
-1 -1;
#X obj 1105 4592 bng 30 250 50 0 empty empty empty 17 7 0 10 -262144
-1 -1;
#X obj 1110 4552 t f;
#X obj 1108 4521 f 127;
#X floatatom 1163 4597 5 0 0 0 - - -;
#X obj 1205 4553 t f;
#X obj 1217 4528 f 1;
#X obj 1129 4722 noteout 15, f 14;
#X obj 1200 4501 delay 100;
#X msg 769 4634 83, f 4;
#X msg 944 4633 84, f 4;
#X msg 1122 4630 85, f 4;
#X obj 186 4090 lop~;
#X obj 175 4224 dac~;
#X obj 253 4046 mtof;
#X obj 284 4021 hsl 128 15 0 127 0 0 empty empty lowpass -2 -8 0 10
-262144 -1 -1 0 1;
#X obj 273 4095 tgl 15 0 empty empty empty 17 7 0 10 -262144 -1 -1
0 1;
#X obj 184 4027 adc~;
#X floatatom 235 4078 5 0 0 0 - - -;
#N canvas 0 63 450 250 (subpatch) 0;
#X array lowpass 100 float 3;
#A 0 0.0134052 0.0135422 0.0136606 0.0137731 0.0138797 0.013984 0.014099
0.0142287 0.0143576 0.014472 0.0145767 0.0146787 0.0147622 0.0148028
0.0147843 0.0147036 0.0145683 0.0143972 0.0142159 0.0140484 0.0139057
0.0137823 0.0136676 0.013557 0.0134444 0.0133138 0.0131494 0.0129504
0.012723 0.0124656 0.0121658 0.0118149 0.0114239 0.0110256 0.0106576
0.0103376 0.0100703 0.00986635 0.00973958 0.00968694 0.0096833 0.00969853
0.00971371 0.00972543 0.00974011 0.00976235 0.00977553 0.00974884 0.00966652
0.00954976 0.00943871 0.00935603 0.00929253 0.00923007 0.00916892 0.00913599
0.0091678 0.00928249 0.0094619 0.0096666 0.00985727 0.010012 0.0101304
0.0102247 0.0103085 0.0103934 0.0104875 0.0105924 0.0107036 0.0108154
0.0109224 0.0110205 0.0111099 0.0111976 0.0112938 0.0114049 0.0115309
0.0116719 0.0118336 0.0120253 0.0122429 0.0124634 0.0126588 0.0128126
0.012914 0.0129552 0.0129468 0.0129185 0.0128864 0.0128325 0.012725
0.01255 0.0123216 0.0120718 0.0118281 0.0115896 0.0113221 0.0109758
0.0105072 0.00989546;
#X coords 0 1 100 -1 200 140 1 0 0;
#X restore 487 4074 graph;
#X obj 262 4137 metro 50;
#X obj 252 4224 env~;
#X floatatom 252 4254 5 0 0 0 - - -;
#X obj 232 4321 bng 15 250 50 0 empty empty empty 17 7 0 10 -262144
-1 -1;
#X obj 237 4283 moses 80;
#X obj 257 4181 tabwrite~ lowpass;
#X obj 288 4308 bng 60 250 50 0 empty empty empty 17 7 0 10 -262144
-258113 -1;
#X floatatom 232 4440 5 0 0 0 - - -;
#X obj 402 4080 loadbang;
#X msg 402 4122 \; pd dsp 1;
#X obj 243 4378 f 1;
#X obj 323 4401 f 0;
#X obj 245 4409 t f;
#X obj 312 4426 t f;
#X obj 814 4252 dac~;
#X obj 871 4065 mtof;
#X obj 895 4026 hsl 128 15 0 127 0 0 empty empty hipass -2 -8 0 10
-262144 -1 -1 0 1;
#X obj 892 4124 tgl 15 0 empty empty empty 17 7 0 10 -262144 -1 -1
0 1;
#X obj 804 4054 adc~;
#X floatatom 853 4097 5 0 0 0 - - -;
#N canvas 0 63 450 250 (subpatch) 0;
#X array hipass 100 float 3;
#A 0 0.0109537 0.0150583 0.0148244 0.00864192 -0.0012687 -0.0101724
-0.0154623 -0.018244 -0.0198034 -0.0185899 -0.0136097 -0.00630017 0.0013065
0.00851997 0.0139817 0.0157288 0.0133637 0.00953348 0.00764884 0.00994446
0.0153186 0.0209251 0.0242161 0.0250111 0.0233454 0.0188978 0.0120755
0.00595652 0.00289503 0.00121819 -0.00369375 -0.0119907 -0.019847 -0.0230821
-0.0204722 -0.0127878 -0.0020719 0.00898414 -0.342851 0.0221481 0.0204177
0.011485 0.00027031 -0.00661757 -0.00713798 -0.00420658 -0.000732236
0.00277637 0.00530792 0.00492287 0.000931625 -0.00545707 -0.0136373
-0.0215264 -0.0242606 -0.018941 -0.00941532 -0.00258018 -0.00188965
-0.00507741 -0.00797976 -0.00761634 -0.00339511 0.00354777 0.01091
0.0173717 0.0222855 0.0234224 0.0183292 0.0078302 -0.00476703 -0.0168272
-0.0266827 -0.0318732 -0.0315041 -0.0277179 -0.0231903 -0.0175249 -0.0116654
-0.00932667 -0.0133149 -0.0218609 -0.0298224 -0.0323571 -0.0294546
-0.0256441 -0.0240116 -0.0214334 -0.0136829 0.000243865 0.0176631 0.0325534
0.0387658 0.0371457 0.0354819 0.0392266 0.0451833 0.0476844 0.0446818
0.0365141;
#X coords 0 1 100 -1 200 140 1 0 0;
#X restore 1006 4068 graph;
#X obj 883 4150 metro 50;
#X obj 871 4253 env~;
#X floatatom 871 4283 5 0 0 0 - - -;
#X obj 867 4353 bng 15 250 50 0 empty empty empty 17 7 0 10 -262144
-1 -1;
#X obj 938 4215 bng 60 250 50 0 empty empty empty 17 7 0 10 -262144
-4034 -1;
#X obj 939 4074 nbx 5 14 -1e+37 1e+37 0 0 empty empty empty 0 -8 0
10 -262144 -1 -1 0 256;
#X obj 804 4132 hip~;
#X obj 871 4308 moses 80;
#X obj 880 4184 tabwrite~ hipass;
#X floatatom 1007 4389 5 0 0 0 - - -;
#X obj 956 4317 f 1;
#X obj 1036 4340 f 0;
#X obj 958 4348 t f;
#X obj 1025 4365 t f;
#X obj 1020 4313 delay 150;
#X obj 441 4254 sel 1;
#X obj 398 4433 hradio 15 1 0 3 empty empty empty 0 -8 0 10 -262144
-1 -1 2;
#X floatatom 444 4448 5 0 0 0 - - -;
#X obj 248 4476 sel 0 1 2;
#X obj 495 4292 f;
#X msg 543 4281 -1;
#X obj 495 4340 + 1;
#X floatatom 498 4380 5 0 256 0 - - -;
#X obj 502 4422 % 3;
#X obj 439 4281 bng 15 250 50 0 empty empty empty 17 7 0 10 -262144
-1 -1;
#X obj 324 4373 delay 100;
#X obj 445 4224 change;
#X obj 1162 4251 sel 1;
#X obj 1119 4430 hradio 15 1 0 3 empty empty empty 0 -8 0 10 -262144
-1 -1 1;
#X floatatom 1182 4452 5 0 0 0 - - -;
#X obj 1216 4289 f;
#X msg 1264 4278 -1;
#X obj 1216 4337 + 1;
#X floatatom 1219 4377 5 0 256 0 - - -;
#X obj 1223 4419 % 3;
#X obj 1160 4278 bng 15 250 50 0 empty empty empty 17 7 0 10 -262144
-1 -1;
#X obj 1166 4221 change;
#X obj 901 4441 sel 0 1 2;
#X obj 73 1939 bng 15 250 50 0 empty empty empty 17 7 0 10 -262144
-1 -1;
#X obj 274 3181 makenote;
#X obj 496 3181 makenote;
#X obj 694 3178 makenote;
#X obj 892 3179 makenote;
#X obj 246 3903 makenote;
#X obj 467 3903 makenote;
#X obj 665 3900 makenote;
#X obj 863 3901 makenote;
#X obj 203 4666 makenote;
#X obj 392 4661 makenote;
#X obj 584 4661 makenote;
#X obj 769 4659 makenote;
#X obj 944 4659 makenote;
#X obj 1122 4656 makenote;
#X obj 876 1579 r note;
#X obj 951 1583 r vel;
#X obj 1008 1578 r chan;
#X floatatom 970 1871 5 0 0 0 - - -;
#X msg 1010 1856 127, f 4;
#X floatatom 877 1736 5 0 0 0 - - -;
#X obj 1047 1821 loadbang;
#X obj 934 1866 bng 30 250 50 0 empty empty empty 17 7 0 10 -262144
-1 -1;
#X msg 836 1547 Sampler;
#X floatatom 1394 1735 5 0 0 0 - - -;
#X obj 895 1761 spigot;
#X floatatom 899 1792 5 0 0 0 - - -;
#X obj 1108 1885 r note;
#X obj 1183 1889 r vel;
#X obj 1240 1884 r chan;
#X floatatom 1245 2206 5 0 0 0 - - -;
#X msg 1242 2162 127, f 4;
#X floatatom 1107 2022 5 0 0 0 - - -;
#X obj 1279 2127 loadbang;
#X obj 1184 2180 bng 30 250 50 0 empty empty empty 17 7 0 10 -262144
-1 -1;
#X floatatom 1624 2025 5 0 0 0 - - -;
#X obj 1127 2067 spigot;
#X floatatom 1130 2107 5 0 0 0 - - -;
#X obj 1107 1967 expr if ($f1 == 48 || $f1 == 49 || $f1 == 50 || $f1
== 51 || $f1 == 52 || $f1 == 53 || $f1 == 54 || $f1 == 55 \, $f1 \,
0) \; ($f2 == 14), f 81;
#X obj 875 1662 expr if ($f1 == 48 || $f1 == 49 || $f1 == 50 || $f1
== 51 || $f1 == 52 || $f1 == 53 || $f1 == 54 || $f1 == 55 || $f1 ==
56 || $f1 == 57 || $f1 == 58 || $f1 == 59 || $f1 == 60 || $f1 == 61
|| $f1 == 62 || $f1 == 63 \, $f1 \, 0) \; ($f2 == 13), f 81;
#X obj 886 1622 stripnote;
#X obj 1109 1927 stripnote;
#X floatatom 1019 362 5 0 0 0 - - -;
#X floatatom 1062 365 5 0 0 0 - - -;
#X floatatom 1105 366 5 0 0 0 - - -;
#X floatatom 1237 366 5 0 0 0 - - -;
#X floatatom 1277 367 5 0 0 0 - - -;
#X floatatom 1322 367 5 0 0 0 - - -;
#X floatatom 1363 367 5 0 0 0 - - -;
#X floatatom 977 365 5 0 0 0 - - -;
#X obj 1020 396 bng 30 250 50 0 empty empty empty 17 7 0 10 -262144
-1 -1;
#X obj 1044 543 noteout 13;
#X obj 1061 395 bng 30 250 50 0 empty empty empty 17 7 0 10 -262144
-1 -1;
#X obj 1125 544 noteout 13;
#X obj 1208 541 noteout 13;
#X obj 1101 397 bng 30 250 50 0 empty empty empty 17 7 0 10 -262144
-1 -1;
#X obj 1233 398 bng 30 250 50 0 empty empty empty 17 7 0 10 -262144
-1 -1;
#X obj 1277 398 bng 30 250 50 0 empty empty empty 17 7 0 10 -262144
-1 -1;
#X obj 1325 399 bng 30 250 50 0 empty empty empty 17 7 0 10 -262144
-1 -1;
#X obj 1368 400 bng 30 250 50 0 empty empty empty 17 7 0 10 -262144
-1 -1;
#X obj 1005 609 noteout 13;
#X obj 1093 611 noteout 13;
#X obj 1185 612 noteout 13;
#X obj 1275 614 noteout 13;
#X msg 984 313 48, f 4;
#X msg 1030 314 116, f 4;
#X msg 1077 312 67;
#X msg 1207 314 72, f 4;
#X msg 1300 314 77, f 4;
#X msg 1342 313 83, f 4;
#X msg 1119 311 104, f 4;
#X msg 1253 316 51, f 4;
#X obj 1051 1139 bng 30 250 50 0 empty empty empty 17 7 0 10 -262144
-1 -1;
#X obj 1200 1014 delay 500;
#X msg 1088 1210 48;
#X msg 1125 1213 49;
#X msg 1172 1212 50;
#X msg 1211 1212 51;
#X msg 1323 1207 52;
#X msg 1363 1205 53;
#X msg 1406 1205 54;
#X msg 1443 1205 55;
#X obj 1244 863 &&;
#X obj 1205 976 bng 30 250 50 0 empty empty empty 17 7 0 10 -262144
-1 -1;
#X floatatom 1247 897 5 0 0 0 - - -;
#X obj 1271 790 >= 1;
#X obj 1243 931 sel 1;
#X obj 1206 752 r note;
#X obj 1265 752 r vel;
#X obj 1324 753 r chan;
#X obj 1214 788 == 69;
#X obj 1257 970 s top_buttons;
#X obj 1291 821 t b f;
#X floatatom 1090 1104 5 0 0 0 - - -;
#X floatatom 1133 1107 5 0 0 0 - - -;
#X floatatom 1176 1108 5 0 0 0 - - -;
#X floatatom 1308 1108 5 0 0 0 - - -;
#X floatatom 1348 1109 5 0 0 0 - - -;
#X floatatom 1393 1109 5 0 0 0 - - -;
#X floatatom 1434 1109 5 0 0 0 - - -;
#X floatatom 1048 1107 5 0 0 0 - - -;
#X obj 1091 1138 bng 30 250 50 0 empty empty empty 17 7 0 10 -262144
-1 -1;
#X obj 1132 1137 bng 30 250 50 0 empty empty empty 17 7 0 10 -262144
-1 -1;
#X obj 1172 1139 bng 30 250 50 0 empty empty empty 17 7 0 10 -262144
-1 -1;
#X obj 1304 1140 bng 30 250 50 0 empty empty empty 17 7 0 10 -262144
-1 -1;
#X obj 1348 1140 bng 30 250 50 0 empty empty empty 17 7 0 10 -262144
-1 -1;
#X obj 1389 1139 bng 30 250 50 0 empty empty empty 17 7 0 10 -262144
-1 -1;
#X obj 1439 1142 bng 30 250 50 0 empty empty empty 17 7 0 10 -262144
-1 -1;
#X msg 1055 1055 48, f 4;
#X msg 1101 1056 116, f 4;
#X msg 1148 1054 67;
#X msg 1278 1056 72, f 4;
#X msg 1371 1056 77, f 4;
#X msg 1413 1055 83, f 4;
#X msg 1190 1053 104, f 4;
#X msg 1324 1058 51, f 4;
#X obj 1317 788 == 6;
#X obj 1279 1283 noteout 14;
#X obj 1195 1284 noteout 14;
#X obj 1115 1285 noteout 14;
#X obj 1038 1287 noteout 14;
#X obj 1076 1351 noteout 14;
#X obj 1164 1353 noteout 14;
#X obj 1248 1353 noteout 14;
#X obj 1335 1352 noteout 14;
#X obj 106 2014 s cnote;
#X obj 168 2012 s cnum;
#X obj 220 2011 s cchan;
#X obj 1089 3814 r cnote;
#X obj 1163 3810 r cnum;
#X obj 1238 3813 r cchan;
#X floatatom 1096 3846 5 0 0 0 - - -;
#X floatatom 1166 3846 5 0 0 0 - - -;
#X floatatom 1240 3844 5 0 0 0 - - -;
#X obj 1067 3947 spigot;
#X obj 1074 3895 expr if ($f2 == 69 && $f3 == 15 \, $f1 \, 0) \; ($f2
== 69), f 42;
#X floatatom 1018 3971 5 0 0 0 - - -;
#X obj 1380 3949 spigot;
#X floatatom 1338 3978 5 0 0 0 - - -;
#X obj 1398 3893 expr if ($f2 == 70 && $f3 == 15 \, $f1 \, 0) \; ($f2
== 70), f 42;
#X msg 1506 3147 Shift Button;
#X obj 1533 3183 r note;
#X obj 1601 3185 r vel;
#X obj 1551 3268 stripnote;
#X floatatom 1560 3328 5 0 0 0 - - -;
#X floatatom 1626 3327 5 0 0 0 - - -;
#X obj 1551 3479 &&;
#X floatatom 1554 3513 5 0 0 0 - - -;
#X obj 1550 3547 sel 1;
#X obj 1598 3437 t b f;
#X obj 1660 3184 r chan;
#X obj 1543 3594 bng 30 250 50 0 empty empty empty 17 7 0 10 -262144
-1 -1;
#X obj 1589 3379 == 127;
#X obj 1540 3712 bng 30 250 50 0 empty empty empty 17 7 0 10 -262144
-1 -1;
#X obj 1545 3672 t f;
#X obj 1543 3641 f 127;
#X floatatom 1598 3717 5 0 0 0 - - -;
#X obj 1640 3673 t f;
#X obj 1652 3648 f 1;
#X obj 1558 3776 makenote;
#X obj 1534 3380 == 50;
#X obj 1667 3377 == 16;
#X obj 1564 3842 noteout 16, f 14;
#X msg 1557 3750 50, f 4;
#X msg 533 1556 Shift Button;
#X obj 561 1627 r note;
#X obj 630 1632 r vel;
#X obj 578 1677 stripnote;
#X floatatom 587 1737 5 0 0 0 - - -;
#X floatatom 653 1736 5 0 0 0 - - -;
#X obj 574 1845 &&;
#X floatatom 576 1881 5 0 0 0 - - -;
#X obj 579 1908 sel 1;
#X obj 654 1820 t b f;
#X obj 685 1633 r chan;
#X obj 616 1788 == 127;
#X obj 561 1789 == 50;
#X obj 694 1786 == 16;
#X obj 1635 3621 delay 100;
#X obj 752 2042 bng 30 250 50 0 empty empty empty 17 7 0 10 -262144
-1 -1;
#X obj 749 2160 bng 30 250 50 0 empty empty empty 17 7 0 10 -262144
-1 -1;
#X obj 754 2120 t f;
#X floatatom 807 2165 5 0 0 0 - - -;
#X obj 849 2121 t f;
#X obj 785 2317 noteout 16, f 14;
#X msg 766 2198 50, f 4;
#X obj 636 1855 tgl 15 0 empty empty empty 17 7 0 10 -262144 -1 -1
0 1;
#X obj 450 1986 delay 500;
#X obj 786 2285 stripnote;
#X obj 861 2096 f 127;
#X obj 998 2214 bng 30 250 50 0 empty empty empty 17 7 0 10 -262144
-1 -1;
#X obj 940 2398 noteout 16, f 14;
#X msg 949 2275 50, f 4;
#X msg 991 2276 127, f 4;
#X obj 673 647 noteout 13;
#X obj 377 638 noteout 13;
#X obj 1588 634 noteout 13;
#X obj 680 1400 noteout 14;
#X obj 386 1400 noteout 14;
#X obj 48 1402 noteout 14;
#X obj 1612 1435 noteout 14;
#X obj 906 1916 noteout 10;
#X obj 1138 2246 noteout 11;
#X obj 752 2090 f 1;
#X obj 175 5198 bng 30 250 50 0 empty empty empty 17 7 0 10 -262144
-1 -1;
#X msg 161 5269 1;
#X msg 197 5272 2;
#X msg 245 5271 3;
#X msg 284 5271 4;
#X msg 322 5271 5;
#X msg 362 5269 6;
#X msg 404 5269 7;
#X obj 150 5438 noteout 13;
#X msg 156 4001 Bank Buttons BPM;
#X msg 124 4809 Rane 72 Demo;
#X msg 124 5272 0;
#X obj 252 4993 f;
#X msg 300 4982 -1;
#X obj 252 5041 + 1;
#X floatatom 255 5081 5 0 256 0 - - -;
#X obj 166 4995 bng 30 250 50 0 empty empty empty 17 7 0 10 -262144
-1 -1;
#X obj 285 5149 % 4;
#X obj 84 4838 tgl 45 0 empty empty empty 17 7 0 10 -262144 -1 -1 0
1;
#X obj 303 5107 sel 127;
#X obj 377 5131 bng 15 250 50 0 empty empty empty 17 7 0 10 -262144
-1 -1;
#X obj 532 5190 bng 30 250 50 0 empty empty empty 17 7 0 10 -262144
-1 -1;
#X msg 518 5261 1;
#X msg 554 5264 2;
#X msg 602 5263 3;
#X msg 641 5263 4;
#X msg 679 5263 5;
#X msg 719 5261 6;
#X msg 761 5261 7;
#X msg 481 5264 0;
#X obj 609 4985 f;
#X msg 657 4974 -1;
#X obj 609 5033 + 1;
#X floatatom 612 5073 5 0 256 0 - - -;
#X obj 535 4997 bng 30 250 50 0 empty empty empty 17 7 0 10 -262144
-1 -1;
#X obj 642 5141 % 4;
#X obj 660 5099 sel 127;
#X obj 734 5123 bng 15 250 50 0 empty empty empty 17 7 0 10 -262144
-1 -1;
#X obj 507 5430 noteout 14;
#X obj 171 4898 metro 500;
#X msg 198 5772 66, f 4;
#X obj 139 5952 noteout 5, f 14;
#X obj 303 5671 bng 30 250 50 0 empty empty empty 17 7 0 10 -262144
-1 -1;
#X obj 257 5953 noteout 5, f 14;
#X msg 261 5772 67, f 4;
#X floatatom 214 5596 5 0 0 0 - - -;
#X msg 220 5551 48, f 4;
#X obj 228 5510 delay 100;
#X floatatom 280 5599 5 0 0 0 - - -;
#X msg 286 5553 67, f 4;
#X floatatom 346 5597 5 0 0 0 - - -;
#X obj 379 5950 noteout 5, f 14;
#X msg 340 5773 68, f 4;
#X obj 230 5673 bng 30 250 50 0 empty empty empty 17 7 0 10 -262144
-1 -1;
#X obj 387 5667 bng 30 250 50 0 empty empty empty 17 7 0 10 -262144
-1 -1;
#X msg 352 5552 83, f 4;
#X floatatom 438 5598 5 0 0 0 - - -;
#X obj 493 5948 noteout 5, f 14;
#X obj 475 5666 bng 30 250 50 0 empty empty empty 17 7 0 10 -262144
-1 -1;
#X msg 457 5772 69, f 4;
#X msg 426 5551 28, f 4;
#X floatatom 549 5598 5 0 0 0 - - -;
#X obj 604 5948 noteout 5, f 14;
#X obj 586 5666 bng 30 250 50 0 empty empty empty 17 7 0 10 -262144
-1 -1;
#X msg 512 5550 13, f 4;
#X msg 568 5772 70, f 4;
#X obj 145 5998 noteout 6, f 14;
#X obj 263 5999 noteout 6, f 14;
#X obj 385 5996 noteout 6, f 14;
#X obj 499 5994 noteout 6, f 14;
#X obj 610 5994 noteout 6, f 14;
#X obj 779 2251 makenote 50 127 5000;
#X obj 844 2069 delay 5000;
#X msg 390 2079 67, f 4;
#X obj 874 4927 bng 30 250 50 0 empty empty empty 17 7 0 10 -262144
-1 -1;
#X obj 871 5045 bng 30 250 50 0 empty empty empty 17 7 0 10 -262144
-1 -1;
#X msg 888 5083 40, f 4;
#X obj 876 5005 t f;
#X obj 874 4974 f 127;
#X obj 895 5175 noteout 5, f 14;
#X floatatom 929 5050 5 0 0 0 - - -;
#X obj 971 5006 t f;
#X obj 983 4981 f 1;
#X obj 1096 4927 bng 30 250 50 0 empty empty empty 17 7 0 10 -262144
-1 -1;
#X obj 1093 5045 bng 30 250 50 0 empty empty empty 17 7 0 10 -262144
-1 -1;
#X obj 1098 5005 t f;
#X obj 1096 4974 f 127;
#X obj 1117 5175 noteout 5, f 14;
#X floatatom 1151 5050 5 0 0 0 - - -;
#X obj 1193 5006 t f;
#X obj 1205 4981 f 1;
#X msg 1110 5083 41, f 4;
#X obj 1294 4924 bng 30 250 50 0 empty empty empty 17 7 0 10 -262144
-1 -1;
#X obj 1291 5042 bng 30 250 50 0 empty empty empty 17 7 0 10 -262144
-1 -1;
#X obj 1296 5002 t f;
#X obj 1294 4971 f 127;
#X floatatom 1349 5047 5 0 0 0 - - -;
#X obj 1391 5003 t f;
#X obj 1403 4978 f 1;
#X msg 1308 5080 40, f 4;
#X obj 1315 5172 noteout 6, f 14;
#X obj 1492 4925 bng 30 250 50 0 empty empty empty 17 7 0 10 -262144
-1 -1;
#X obj 1489 5043 bng 30 250 50 0 empty empty empty 17 7 0 10 -262144
-1 -1;
#X obj 1494 5003 t f;
#X obj 1492 4972 f 127;
#X floatatom 1547 5048 5 0 0 0 - - -;
#X obj 1589 5004 t f;
#X obj 1601 4979 f 1;
#X obj 1513 5173 noteout 6, f 14;
#X msg 1506 5081 41, f 4;
#X obj 888 5109 makenote;
#X obj 1110 5109 makenote;
#X obj 1308 5106 makenote;
#X obj 1506 5107 makenote;
#X obj 702 4820 hradio 15 1 0 4 empty empty empty 0 -8 0 10 -262144
-1 -1 0;
#X obj 768 4857 sel 0 1 2 3;
#X obj 966 4954 delay 200;
#X obj 1188 4954 delay 200;
#X obj 1386 4951 delay 200;
#X obj 1584 4952 delay 200;
#X obj 1086 5891 bng 30 250 50 0 empty empty empty 17 7 0 10 -262144
-1 -1;
#X msg 1072 5962 1;
#X msg 1108 5965 2;
#X msg 1156 5964 3;
#X msg 1195 5964 4;
#X msg 1233 5964 5;
#X msg 1271 5964 6;
#X msg 1313 5964 7;
#X msg 1035 5965 0;
#X obj 1177 5662 f;
#X msg 1225 5651 -1;
#X obj 1177 5710 + 1;
#X floatatom 1180 5750 5 0 256 0 - - -;
#X obj 1228 5776 sel 127;
#X obj 1286 5826 bng 15 250 50 0 empty empty empty 17 7 0 10 -262144
-1 -1;
#X obj 1404 5827 noteout 13;
#X floatatom 1459 5686 5 0 0 0 - - -;
#X obj 1462 5430 f;
#X msg 1510 5419 -1;
#X obj 1474 5470 + 1;
#X floatatom 1480 5506 5 0 256 0 - - -;
#X obj 1564 5552 bng 15 250 50 0 empty empty empty 17 7 0 10 -262144
-1 -1;
#X obj 1461 5387 bng 30 250 50 0 empty empty empty 17 7 0 10 -262144
-1 -1;
#X obj 1507 5551 sel 7;
#X obj 1722 5407 f;
#X msg 1770 5396 -1;
#X obj 1735 5444 + 1;
#X floatatom 1748 5497 5 0 256 0 - - -;
#X obj 1755 5642 bng 15 250 50 0 empty empty empty 17 7 0 10 -262144
-1 -1;
#X obj 1537 5672 random 127;
#X obj 1427 5273 tgl 45 0 empty empty empty 17 7 0 10 -262144 -1 -1
0 1;
#X obj 1573 5833 noteout 14;
#X floatatom 1584 5729 5 0 0 0 - - -;
#X obj 1670 5662 random 127;
#X obj 1483 5586 % 6;
#X obj 1700 5612 sel 7;
#X obj 1557 5350 loadbang;
#X msg 1522 5383 0;
#X obj 1782 5336 loadbang;
#X msg 1747 5369 3;
#X obj 1438 5344 metro 400;
#X obj 887 5825 noteout 13;
#X floatatom 932 5709 5 0 0 0 - - -;
#X obj 980 5452 f;
#X msg 1028 5441 -1;
#X obj 992 5492 + 1;
#X floatatom 998 5528 5 0 256 0 - - -;
#X obj 1082 5574 bng 15 250 50 0 empty empty empty 17 7 0 10 -262144
-1 -1;
#X obj 977 5374 bng 30 250 50 0 empty empty empty 17 7 0 10 -262144
-1 -1;
#X obj 1025 5573 sel 7;
#X obj 925 5674 random 127;
#X obj 1001 5608 % 6;
#X obj 1075 5372 loadbang;
#X msg 1040 5405 0;
#X obj 877 5787 stripnote;
#X obj 1093 5632 delay 150;
#X obj 839 5275 tgl 45 0 empty empty empty 17 7 0 10 -262144 -1 -1
0 1;
#X obj 850 5346 metro 400;
#X obj 849 5749 makenote 0 150;
#X floatatom 1212 5827 5 0 256 0 - - -;
#X obj 1197 5797 % 32;
#X obj 1207 5855 sel 31;
#X obj 1210 5883 random 127;
#X floatatom 1222 5912 5 0 256 0 - - -;
#X obj 1009 5672 random 127;
#X floatatom 1007 5707 5 0 0 0 - - -;
#X obj 1000 5790 stripnote;
#X obj 972 5752 makenote 0 150;
#X obj 1010 5828 noteout 14;
#X obj 1298 5882 random 127;
#X floatatom 1310 5911 5 0 256 0 - - -;
#X obj 1059 6133 noteout 13;
#X obj 1181 6130 noteout 14;
#X obj 419 4801 f;
#X msg 467 4790 -1;
#X obj 419 4849 + 1;
#X floatatom 422 4889 5 0 256 0 - - -;
#X obj 452 4957 % 4;
#X obj 470 4915 sel 127;
#X obj 544 4939 bng 15 250 50 0 empty empty empty 17 7 0 10 -262144
-1 -1;
#X obj 372 4810 bng 30 250 50 0 empty empty empty 17 7 0 10 -262144
-1 -1;
#X obj 1381 5731 makenote 0 1000;
#X obj 1487 5758 makenote 0 1000;
#X obj 367 2954 loadbang;
#X obj 39 640 noteout 13;
#X obj 266 295 loadbang;
#X obj 169 293 delay 500;
#X obj 585 292 loadbang;
#X obj 893 303 loadbang;
#X obj 1030 249 loadbang;
#X obj 1291 265 loadbang;
#X obj 1774 308 loadbang;
#X obj 251 1069 loadbang;
#X obj 590 1056 loadbang;
#X obj 881 1064 loadbang;
#X obj 1084 1008 loadbang;
#X obj 1327 1012 loadbang;
#X obj 1798 1112 loadbang;
#X obj 488 2027 loadbang;
#X obj 1519 4225 == 16;
#X obj 1416 4225 == 7;
#X obj 1493 4258 t b f;
#X obj 900 1830 sel 0;
#X obj 1131 2139 sel 0;
#X connect 0 0 1 0;
#X connect 0 0 4 0;
#X connect 0 0 5 0;
#X connect 0 0 6 0;
#X connect 0 0 7 0;
#X connect 0 0 8 0;
#X connect 0 0 9 0;
#X connect 0 0 10 0;
#X connect 1 0 1030 0;
#X connect 3 0 2 0;
#X connect 4 0 1030 0;
#X connect 5 0 1030 0;
#X connect 6 0 1030 0;
#X connect 7 0 1030 0;
#X connect 8 0 1030 0;
#X connect 9 0 1030 0;
#X connect 10 0 1030 0;
#X connect 11 0 12 0;
#X connect 11 1 13 0;
#X connect 12 0 622 0;
#X connect 14 0 15 0;
#X connect 14 1 16 0;
#X connect 14 2 17 0;
#X connect 15 0 747 0;
#X connect 16 0 748 0;
#X connect 17 0 749 0;
#X connect 18 0 19 0;
#X connect 18 1 20 0;
#X connect 18 2 21 0;
#X connect 19 0 152 0;
#X connect 20 0 151 0;
#X connect 21 0 153 0;
#X connect 22 0 24 0;
#X connect 23 0 24 0;
#X connect 24 0 25 0;
#X connect 24 0 26 0;
#X connect 25 0 24 1;
#X connect 26 0 2 0;
#X connect 27 0 0 0;
#X connect 27 0 1030 1;
#X connect 28 0 27 0;
#X connect 29 0 30 0;
#X connect 29 0 102 0;
#X connect 31 0 33 0;
#X connect 33 0 32 0;
#X connect 33 0 103 0;
#X connect 34 0 37 0;
#X connect 35 0 65 0;
#X connect 35 0 102 1;
#X connect 35 0 30 1;
#X connect 36 0 35 0;
#X connect 37 0 36 0;
#X connect 37 0 68 0;
#X connect 37 0 84 0;
#X connect 37 0 100 0;
#X connect 37 0 899 0;
#X connect 38 0 31 0;
#X connect 38 0 103 1;
#X connect 38 0 32 1;
#X connect 39 0 42 0;
#X connect 39 0 43 0;
#X connect 39 0 44 0;
#X connect 39 0 45 0;
#X connect 39 0 46 0;
#X connect 39 0 47 0;
#X connect 39 0 48 0;
#X connect 39 0 49 0;
#X connect 40 0 39 0;
#X connect 40 0 817 1;
#X connect 41 0 50 0;
#X connect 42 0 817 0;
#X connect 43 0 817 0;
#X connect 44 0 817 0;
#X connect 45 0 817 0;
#X connect 46 0 817 0;
#X connect 47 0 817 0;
#X connect 48 0 817 0;
#X connect 49 0 817 0;
#X connect 50 0 40 0;
#X connect 51 0 54 0;
#X connect 51 0 55 0;
#X connect 51 0 56 0;
#X connect 51 0 57 0;
#X connect 51 0 58 0;
#X connect 51 0 59 0;
#X connect 51 0 60 0;
#X connect 51 0 61 0;
#X connect 52 0 51 0;
#X connect 52 0 816 1;
#X connect 53 0 67 0;
#X connect 54 0 816 0;
#X connect 55 0 816 0;
#X connect 56 0 816 0;
#X connect 57 0 816 0;
#X connect 58 0 816 0;
#X connect 59 0 816 0;
#X connect 60 0 816 0;
#X connect 61 0 816 0;
#X connect 62 0 66 0;
#X connect 62 0 104 1;
#X connect 62 0 63 1;
#X connect 64 0 63 0;
#X connect 64 0 104 0;
#X connect 65 0 29 0;
#X connect 66 0 64 0;
#X connect 67 0 52 0;
#X connect 68 0 62 0;
#X connect 69 0 72 0;
#X connect 71 0 686 0;
#X connect 71 0 687 0;
#X connect 71 0 688 0;
#X connect 71 0 692 0;
#X connect 71 0 689 0;
#X connect 71 0 693 0;
#X connect 71 0 690 0;
#X connect 71 0 691 0;
#X connect 72 0 70 0;
#X connect 73 0 673 0;
#X connect 74 0 675 0;
#X connect 75 0 676 0;
#X connect 76 0 682 0;
#X connect 77 0 683 0;
#X connect 78 0 684 0;
#X connect 79 0 685 0;
#X connect 80 0 82 0;
#X connect 80 0 105 1;
#X connect 80 0 81 1;
#X connect 82 0 83 0;
#X connect 83 0 81 0;
#X connect 83 0 105 0;
#X connect 84 0 80 0;
#X connect 85 0 89 0;
#X connect 85 0 90 0;
#X connect 85 0 91 0;
#X connect 85 0 92 0;
#X connect 85 0 93 0;
#X connect 85 0 94 0;
#X connect 85 0 95 0;
#X connect 85 0 96 0;
#X connect 86 0 85 0;
#X connect 86 0 818 1;
#X connect 87 0 88 0;
#X connect 88 0 86 0;
#X connect 89 0 818 0;
#X connect 90 0 818 0;
#X connect 91 0 818 0;
#X connect 92 0 818 0;
#X connect 93 0 818 0;
#X connect 94 0 818 0;
#X connect 95 0 818 0;
#X connect 96 0 818 0;
#X connect 97 0 99 0;
#X connect 97 0 106 1;
#X connect 97 0 98 1;
#X connect 99 0 101 0;
#X connect 100 0 97 0;
#X connect 101 0 98 0;
#X connect 101 0 106 0;
#X connect 108 0 107 0;
#X connect 109 0 108 0;
#X connect 110 0 108 0;
#X connect 111 0 114 0;
#X connect 112 0 111 0;
#X connect 112 0 113 0;
#X connect 113 0 109 0;
#X connect 114 0 110 0;
#X connect 115 0 128 0;
#X connect 116 0 128 1;
#X connect 117 0 128 2;
#X connect 118 0 119 0;
#X connect 119 0 120 0;
#X connect 119 1 121 1;
#X connect 120 0 121 0;
#X connect 121 0 122 0;
#X connect 122 0 126 0;
#X connect 122 1 123 0;
#X connect 123 0 124 0;
#X connect 123 1 121 1;
#X connect 124 0 125 0;
#X connect 124 1 120 1;
#X connect 128 0 129 0;
#X connect 129 0 132 0;
#X connect 132 0 131 0;
#X connect 133 0 134 0;
#X connect 133 1 135 0;
#X connect 133 2 136 0;
#X connect 134 0 1046 0;
#X connect 135 0 144 0;
#X connect 136 0 1045 0;
#X connect 137 0 138 0;
#X connect 137 0 140 0;
#X connect 140 0 139 0;
#X connect 141 0 143 0;
#X connect 142 0 495 0;
#X connect 142 0 505 0;
#X connect 142 0 515 0;
#X connect 142 0 525 0;
#X connect 142 0 534 0;
#X connect 142 0 543 0;
#X connect 143 0 145 0;
#X connect 145 0 142 0;
#X connect 146 0 148 0;
#X connect 147 0 1032 0;
#X connect 148 0 150 0;
#X connect 150 0 147 0;
#X connect 150 0 202 0;
#X connect 154 0 157 0;
#X connect 155 0 149 0;
#X connect 156 0 158 0;
#X connect 157 0 146 0;
#X connect 158 0 301 0;
#X connect 161 0 163 0;
#X connect 162 0 41 0;
#X connect 163 0 165 0;
#X connect 165 0 162 0;
#X connect 165 0 201 0;
#X connect 166 0 170 0;
#X connect 167 0 164 0;
#X connect 168 0 169 0;
#X connect 169 0 302 0;
#X connect 170 0 161 0;
#X connect 171 0 173 0;
#X connect 172 0 53 0;
#X connect 173 0 175 0;
#X connect 175 0 172 0;
#X connect 175 0 203 0;
#X connect 176 0 180 0;
#X connect 177 0 174 0;
#X connect 178 0 179 0;
#X connect 179 0 303 0;
#X connect 180 0 171 0;
#X connect 181 0 183 0;
#X connect 182 0 71 0;
#X connect 183 0 185 0;
#X connect 185 0 182 0;
#X connect 185 0 204 0;
#X connect 186 0 190 0;
#X connect 187 0 184 0;
#X connect 188 0 189 0;
#X connect 189 0 304 0;
#X connect 190 0 181 0;
#X connect 191 0 193 0;
#X connect 192 0 87 0;
#X connect 193 0 195 0;
#X connect 195 0 192 0;
#X connect 195 0 205 0;
#X connect 196 0 200 0;
#X connect 197 0 194 0;
#X connect 198 0 199 0;
#X connect 199 0 305 0;
#X connect 200 0 191 0;
#X connect 206 0 34 0;
#X connect 208 0 209 0;
#X connect 208 0 210 0;
#X connect 208 0 211 0;
#X connect 208 0 212 0;
#X connect 208 0 213 0;
#X connect 208 0 214 0;
#X connect 208 0 215 0;
#X connect 208 0 309 0;
#X connect 209 0 821 0;
#X connect 210 0 821 0;
#X connect 211 0 821 0;
#X connect 212 0 821 0;
#X connect 213 0 821 0;
#X connect 214 0 821 0;
#X connect 215 0 821 0;
#X connect 216 0 208 0;
#X connect 216 0 821 1;
#X connect 217 0 216 0;
#X connect 218 0 217 0;
#X connect 219 0 222 0;
#X connect 219 0 223 0;
#X connect 219 0 224 0;
#X connect 219 0 225 0;
#X connect 219 0 226 0;
#X connect 219 0 227 0;
#X connect 219 0 228 0;
#X connect 219 0 229 0;
#X connect 220 0 219 0;
#X connect 220 0 820 1;
#X connect 221 0 230 0;
#X connect 222 0 820 0;
#X connect 223 0 820 0;
#X connect 224 0 820 0;
#X connect 225 0 820 0;
#X connect 226 0 820 0;
#X connect 227 0 820 0;
#X connect 228 0 820 0;
#X connect 229 0 820 0;
#X connect 230 0 220 0;
#X connect 231 0 234 0;
#X connect 231 0 235 0;
#X connect 231 0 236 0;
#X connect 231 0 237 0;
#X connect 231 0 238 0;
#X connect 231 0 239 0;
#X connect 231 0 240 0;
#X connect 231 0 241 0;
#X connect 232 0 231 0;
#X connect 232 0 819 1;
#X connect 233 0 242 0;
#X connect 234 0 819 0;
#X connect 235 0 819 0;
#X connect 236 0 819 0;
#X connect 237 0 819 0;
#X connect 238 0 819 0;
#X connect 239 0 819 0;
#X connect 240 0 819 0;
#X connect 241 0 819 0;
#X connect 242 0 232 0;
#X connect 243 0 247 0;
#X connect 243 0 248 0;
#X connect 243 0 249 0;
#X connect 243 0 250 0;
#X connect 243 0 251 0;
#X connect 243 0 252 0;
#X connect 243 0 253 0;
#X connect 243 0 254 0;
#X connect 244 0 243 0;
#X connect 244 0 822 1;
#X connect 245 0 246 0;
#X connect 246 0 244 0;
#X connect 247 0 822 0;
#X connect 248 0 822 0;
#X connect 249 0 822 0;
#X connect 250 0 822 0;
#X connect 251 0 822 0;
#X connect 252 0 822 0;
#X connect 253 0 822 0;
#X connect 254 0 822 0;
#X connect 255 0 257 0;
#X connect 256 0 218 0;
#X connect 257 0 259 0;
#X connect 259 0 256 0;
#X connect 259 0 293 0;
#X connect 260 0 263 0;
#X connect 261 0 258 0;
#X connect 262 0 297 0;
#X connect 263 0 255 0;
#X connect 265 0 267 0;
#X connect 266 0 221 0;
#X connect 267 0 269 0;
#X connect 269 0 266 0;
#X connect 269 0 292 0;
#X connect 270 0 273 0;
#X connect 271 0 268 0;
#X connect 272 0 298 0;
#X connect 273 0 265 0;
#X connect 274 0 276 0;
#X connect 275 0 233 0;
#X connect 276 0 278 0;
#X connect 278 0 275 0;
#X connect 278 0 294 0;
#X connect 279 0 282 0;
#X connect 280 0 277 0;
#X connect 281 0 299 0;
#X connect 282 0 274 0;
#X connect 283 0 285 0;
#X connect 284 0 245 0;
#X connect 285 0 287 0;
#X connect 287 0 284 0;
#X connect 287 0 295 0;
#X connect 288 0 291 0;
#X connect 289 0 286 0;
#X connect 290 0 300 0;
#X connect 291 0 283 0;
#X connect 296 0 255 0;
#X connect 296 1 255 1;
#X connect 297 0 296 0;
#X connect 298 0 307 0;
#X connect 299 0 306 0;
#X connect 300 0 308 0;
#X connect 301 0 146 0;
#X connect 301 1 146 1;
#X connect 302 0 161 0;
#X connect 302 1 161 1;
#X connect 303 0 171 0;
#X connect 303 1 171 1;
#X connect 304 0 181 0;
#X connect 304 1 181 1;
#X connect 305 0 191 0;
#X connect 305 1 191 1;
#X connect 306 0 274 0;
#X connect 306 1 274 1;
#X connect 307 0 265 0;
#X connect 307 1 265 1;
#X connect 308 0 283 0;
#X connect 308 1 283 1;
#X connect 309 0 821 0;
#X connect 310 0 312 0;
#X connect 311 0 312 1;
#X connect 312 0 313 0;
#X connect 312 1 314 0;
#X connect 313 0 319 0;
#X connect 314 0 323 0;
#X connect 315 0 316 0;
#X connect 316 0 317 0;
#X connect 317 0 322 0;
#X connect 318 0 320 0;
#X connect 319 0 315 0;
#X connect 320 1 315 1;
#X connect 321 0 318 0;
#X connect 322 0 331 0;
#X connect 322 0 327 0;
#X connect 324 0 325 0;
#X connect 325 0 623 0;
#X connect 326 0 324 0;
#X connect 326 0 329 0;
#X connect 327 0 326 0;
#X connect 329 0 328 1;
#X connect 329 0 623 1;
#X connect 330 0 329 0;
#X connect 331 0 324 0;
#X connect 331 0 332 0;
#X connect 332 0 330 0;
#X connect 333 0 335 0;
#X connect 334 0 335 1;
#X connect 335 0 336 0;
#X connect 335 1 337 0;
#X connect 336 0 354 0;
#X connect 337 0 345 0;
#X connect 338 0 339 0;
#X connect 339 0 340 0;
#X connect 340 0 344 0;
#X connect 341 0 342 0;
#X connect 342 1 338 1;
#X connect 343 0 341 0;
#X connect 344 0 352 0;
#X connect 344 0 348 0;
#X connect 346 0 355 0;
#X connect 347 0 346 0;
#X connect 347 0 350 0;
#X connect 348 0 347 0;
#X connect 350 0 349 1;
#X connect 350 0 624 1;
#X connect 351 0 350 0;
#X connect 352 0 346 0;
#X connect 352 0 353 0;
#X connect 353 0 351 0;
#X connect 354 0 338 0;
#X connect 355 0 624 0;
#X connect 356 0 358 0;
#X connect 357 0 358 1;
#X connect 358 0 359 0;
#X connect 358 1 360 0;
#X connect 359 0 376 0;
#X connect 360 0 367 0;
#X connect 361 0 362 0;
#X connect 362 0 363 0;
#X connect 363 0 366 0;
#X connect 364 1 361 1;
#X connect 365 0 375 0;
#X connect 366 0 373 0;
#X connect 366 0 370 0;
#X connect 368 0 377 0;
#X connect 369 0 368 0;
#X connect 369 0 371 0;
#X connect 370 0 369 0;
#X connect 371 0 378 1;
#X connect 371 0 625 1;
#X connect 372 0 371 0;
#X connect 373 0 368 0;
#X connect 373 0 374 0;
#X connect 374 0 372 0;
#X connect 375 0 364 0;
#X connect 376 0 361 0;
#X connect 377 0 625 0;
#X connect 379 0 381 0;
#X connect 380 0 381 1;
#X connect 381 0 382 0;
#X connect 381 1 383 0;
#X connect 382 0 400 0;
#X connect 383 0 390 0;
#X connect 384 0 385 0;
#X connect 385 0 386 0;
#X connect 386 0 389 0;
#X connect 387 1 384 1;
#X connect 388 0 398 0;
#X connect 389 0 396 0;
#X connect 389 0 393 0;
#X connect 391 0 401 0;
#X connect 392 0 391 0;
#X connect 392 0 394 0;
#X connect 393 0 392 0;
#X connect 394 0 399 1;
#X connect 394 0 626 1;
#X connect 395 0 394 0;
#X connect 396 0 391 0;
#X connect 396 0 397 0;
#X connect 397 0 395 0;
#X connect 398 0 387 0;
#X connect 400 0 384 0;
#X connect 401 0 626 0;
#X connect 402 0 404 0;
#X connect 403 0 404 1;
#X connect 404 0 405 0;
#X connect 404 1 406 0;
#X connect 405 0 487 0;
#X connect 406 0 414 0;
#X connect 407 0 408 0;
#X connect 408 0 409 0;
#X connect 409 0 413 0;
#X connect 410 0 411 0;
#X connect 411 1 407 1;
#X connect 412 0 410 0;
#X connect 413 0 421 0;
#X connect 413 0 417 0;
#X connect 415 0 488 0;
#X connect 416 0 415 0;
#X connect 416 0 419 0;
#X connect 417 0 416 0;
#X connect 419 0 418 1;
#X connect 419 0 627 1;
#X connect 420 0 419 0;
#X connect 421 0 415 0;
#X connect 421 0 422 0;
#X connect 422 0 420 0;
#X connect 423 0 425 0;
#X connect 424 0 425 1;
#X connect 425 0 426 0;
#X connect 425 1 427 0;
#X connect 426 0 489 0;
#X connect 427 0 435 0;
#X connect 428 0 429 0;
#X connect 429 0 430 0;
#X connect 430 0 434 0;
#X connect 431 0 432 0;
#X connect 432 1 428 1;
#X connect 433 0 431 0;
#X connect 434 0 442 0;
#X connect 434 0 438 0;
#X connect 436 0 490 0;
#X connect 437 0 436 0;
#X connect 437 0 440 0;
#X connect 438 0 437 0;
#X connect 440 0 439 1;
#X connect 440 0 628 1;
#X connect 441 0 440 0;
#X connect 442 0 436 0;
#X connect 442 0 443 0;
#X connect 443 0 441 0;
#X connect 444 0 446 0;
#X connect 445 0 446 1;
#X connect 446 0 447 0;
#X connect 446 1 448 0;
#X connect 447 0 491 0;
#X connect 448 0 455 0;
#X connect 449 0 450 0;
#X connect 450 0 451 0;
#X connect 451 0 454 0;
#X connect 452 1 449 1;
#X connect 453 0 463 0;
#X connect 454 0 461 0;
#X connect 454 0 458 0;
#X connect 456 0 492 0;
#X connect 457 0 456 0;
#X connect 457 0 459 0;
#X connect 458 0 457 0;
#X connect 459 0 464 1;
#X connect 459 0 629 1;
#X connect 460 0 459 0;
#X connect 461 0 456 0;
#X connect 461 0 462 0;
#X connect 462 0 460 0;
#X connect 463 0 452 0;
#X connect 465 0 467 0;
#X connect 466 0 467 1;
#X connect 467 0 468 0;
#X connect 467 1 469 0;
#X connect 468 0 494 0;
#X connect 469 0 476 0;
#X connect 470 0 471 0;
#X connect 471 0 472 0;
#X connect 472 0 475 0;
#X connect 473 1 470 1;
#X connect 474 0 484 0;
#X connect 475 0 482 0;
#X connect 475 0 479 0;
#X connect 477 0 493 0;
#X connect 478 0 477 0;
#X connect 478 0 480 0;
#X connect 479 0 478 0;
#X connect 480 0 485 1;
#X connect 480 0 630 1;
#X connect 481 0 480 0;
#X connect 482 0 477 0;
#X connect 482 0 483 0;
#X connect 483 0 481 0;
#X connect 484 0 473 0;
#X connect 487 0 407 0;
#X connect 488 0 627 0;
#X connect 489 0 428 0;
#X connect 490 0 628 0;
#X connect 491 0 449 0;
#X connect 492 0 629 0;
#X connect 493 0 630 0;
#X connect 494 0 470 0;
#X connect 495 0 498 0;
#X connect 495 0 504 0;
#X connect 496 0 502 0;
#X connect 497 0 496 0;
#X connect 497 0 499 0;
#X connect 498 0 497 0;
#X connect 499 0 503 1;
#X connect 499 0 631 1;
#X connect 500 0 499 0;
#X connect 501 0 500 0;
#X connect 502 0 631 0;
#X connect 504 0 496 0;
#X connect 504 0 501 0;
#X connect 505 0 513 0;
#X connect 505 0 508 0;
#X connect 506 0 514 0;
#X connect 507 0 506 0;
#X connect 507 0 509 0;
#X connect 508 0 507 0;
#X connect 509 0 512 1;
#X connect 509 0 632 1;
#X connect 510 0 509 0;
#X connect 511 0 510 0;
#X connect 513 0 511 0;
#X connect 513 0 506 0;
#X connect 514 0 632 0;
#X connect 515 0 518 0;
#X connect 515 0 523 0;
#X connect 516 0 524 0;
#X connect 517 0 516 0;
#X connect 517 0 519 0;
#X connect 518 0 517 0;
#X connect 519 0 522 1;
#X connect 519 0 633 1;
#X connect 520 0 519 0;
#X connect 521 0 520 0;
#X connect 523 0 516 0;
#X connect 523 0 521 0;
#X connect 524 0 633 0;
#X connect 525 0 528 0;
#X connect 525 0 533 0;
#X connect 526 0 552 0;
#X connect 527 0 526 0;
#X connect 527 0 529 0;
#X connect 528 0 527 0;
#X connect 529 0 532 1;
#X connect 529 0 634 1;
#X connect 530 0 529 0;
#X connect 531 0 530 0;
#X connect 533 0 526 0;
#X connect 533 0 531 0;
#X connect 534 0 537 0;
#X connect 534 0 542 0;
#X connect 535 0 553 0;
#X connect 536 0 535 0;
#X connect 536 0 538 0;
#X connect 537 0 536 0;
#X connect 538 0 541 1;
#X connect 538 0 635 1;
#X connect 539 0 538 0;
#X connect 540 0 539 0;
#X connect 542 0 535 0;
#X connect 542 0 540 0;
#X connect 543 0 546 0;
#X connect 543 0 551 0;
#X connect 544 0 554 0;
#X connect 545 0 544 0;
#X connect 545 0 547 0;
#X connect 546 0 545 0;
#X connect 547 0 550 1;
#X connect 547 0 636 1;
#X connect 548 0 547 0;
#X connect 549 0 548 0;
#X connect 551 0 544 0;
#X connect 551 0 549 0;
#X connect 552 0 634 0;
#X connect 553 0 635 0;
#X connect 554 0 636 0;
#X connect 555 0 564 0;
#X connect 555 0 568 0;
#X connect 557 0 561 0;
#X connect 558 0 557 0;
#X connect 559 0 563 0;
#X connect 560 0 555 0;
#X connect 561 0 555 1;
#X connect 563 0 568 0;
#X connect 564 0 565 0;
#X connect 565 0 567 0;
#X connect 567 0 566 0;
#X connect 567 1 569 0;
#X connect 569 0 573 0;
#X connect 569 0 609 0;
#X connect 570 0 610 0;
#X connect 571 0 572 0;
#X connect 573 0 575 0;
#X connect 574 0 576 0;
#X connect 575 0 570 0;
#X connect 576 0 570 0;
#X connect 578 0 582 0;
#X connect 579 0 578 0;
#X connect 580 0 584 0;
#X connect 581 0 590 0;
#X connect 582 0 590 1;
#X connect 584 0 592 0;
#X connect 585 0 586 0;
#X connect 586 0 591 0;
#X connect 588 0 594 0;
#X connect 588 0 598 0;
#X connect 590 0 585 0;
#X connect 590 0 592 0;
#X connect 591 0 587 0;
#X connect 591 1 588 0;
#X connect 593 0 620 0;
#X connect 594 0 596 0;
#X connect 595 0 597 0;
#X connect 596 0 593 0;
#X connect 597 0 593 0;
#X connect 598 0 595 0;
#X connect 599 0 608 0;
#X connect 600 0 601 0;
#X connect 600 0 602 0;
#X connect 601 0 1026 0;
#X connect 601 0 968 0;
#X connect 602 0 495 0;
#X connect 602 1 505 0;
#X connect 602 2 515 0;
#X connect 603 0 605 0;
#X connect 604 0 603 1;
#X connect 605 0 603 1;
#X connect 605 0 606 0;
#X connect 606 0 607 0;
#X connect 607 0 600 0;
#X connect 608 0 603 0;
#X connect 609 0 574 0;
#X connect 610 0 599 0;
#X connect 611 0 619 0;
#X connect 612 0 613 0;
#X connect 612 0 621 0;
#X connect 614 0 616 0;
#X connect 615 0 614 1;
#X connect 616 0 614 1;
#X connect 616 0 617 0;
#X connect 617 0 618 0;
#X connect 618 0 612 0;
#X connect 619 0 614 0;
#X connect 620 0 611 0;
#X connect 621 0 525 0;
#X connect 621 1 534 0;
#X connect 621 2 543 0;
#X connect 623 0 328 0;
#X connect 624 0 349 0;
#X connect 625 0 378 0;
#X connect 626 0 399 0;
#X connect 627 0 418 0;
#X connect 628 0 439 0;
#X connect 629 0 464 0;
#X connect 630 0 485 0;
#X connect 631 0 503 0;
#X connect 632 0 512 0;
#X connect 633 0 522 0;
#X connect 634 0 532 0;
#X connect 635 0 541 0;
#X connect 636 0 550 0;
#X connect 637 0 662 0;
#X connect 638 0 662 1;
#X connect 639 0 661 1;
#X connect 640 0 823 1;
#X connect 641 0 640 0;
#X connect 642 0 647 0;
#X connect 643 0 641 0;
#X connect 646 0 647 1;
#X connect 647 0 648 0;
#X connect 648 0 1048 0;
#X connect 649 0 663 0;
#X connect 650 0 663 1;
#X connect 651 0 660 1;
#X connect 652 0 824 1;
#X connect 653 0 652 0;
#X connect 654 0 658 0;
#X connect 655 0 653 0;
#X connect 657 0 658 1;
#X connect 658 0 659 0;
#X connect 659 0 1049 0;
#X connect 660 0 654 0;
#X connect 660 1 657 0;
#X connect 661 0 642 0;
#X connect 661 1 646 0;
#X connect 662 0 661 0;
#X connect 663 0 660 0;
#X connect 664 0 672 0;
#X connect 664 0 673 1;
#X connect 665 0 674 0;
#X connect 665 0 675 1;
#X connect 666 0 677 0;
#X connect 666 0 676 1;
#X connect 667 0 678 0;
#X connect 667 0 682 1;
#X connect 668 0 679 0;
#X connect 668 0 683 1;
#X connect 669 0 680 0;
#X connect 669 0 684 1;
#X connect 670 0 685 1;
#X connect 670 0 681 0;
#X connect 671 0 69 0;
#X connect 671 0 70 1;
#X connect 672 0 73 0;
#X connect 674 0 74 0;
#X connect 677 0 75 0;
#X connect 678 0 76 0;
#X connect 679 0 77 0;
#X connect 680 0 78 0;
#X connect 681 0 79 0;
#X connect 686 0 671 0;
#X connect 687 0 664 0;
#X connect 688 0 665 0;
#X connect 689 0 667 0;
#X connect 690 0 669 0;
#X connect 691 0 670 0;
#X connect 692 0 666 0;
#X connect 693 0 668 0;
#X connect 694 0 696 0;
#X connect 695 0 730 0;
#X connect 695 0 731 0;
#X connect 695 0 732 0;
#X connect 695 0 736 0;
#X connect 695 0 733 0;
#X connect 695 0 737 0;
#X connect 695 0 734 0;
#X connect 695 0 735 0;
#X connect 696 0 742 0;
#X connect 697 0 741 0;
#X connect 698 0 740 0;
#X connect 699 0 739 0;
#X connect 700 0 743 0;
#X connect 701 0 744 0;
#X connect 702 0 745 0;
#X connect 703 0 746 0;
#X connect 704 0 706 0;
#X connect 705 0 695 0;
#X connect 706 0 708 0;
#X connect 708 0 705 0;
#X connect 708 0 713 0;
#X connect 709 0 712 0;
#X connect 710 0 707 0;
#X connect 711 0 738 0;
#X connect 712 0 704 0;
#X connect 714 0 704 0;
#X connect 714 1 704 1;
#X connect 715 0 723 0;
#X connect 715 0 741 1;
#X connect 716 0 724 0;
#X connect 716 0 740 1;
#X connect 717 0 725 0;
#X connect 717 0 739 1;
#X connect 718 0 726 0;
#X connect 718 0 743 1;
#X connect 719 0 727 0;
#X connect 719 0 744 1;
#X connect 720 0 728 0;
#X connect 720 0 745 1;
#X connect 721 0 729 0;
#X connect 721 0 746 1;
#X connect 722 0 694 0;
#X connect 722 0 742 1;
#X connect 723 0 697 0;
#X connect 724 0 698 0;
#X connect 725 0 699 0;
#X connect 726 0 700 0;
#X connect 727 0 701 0;
#X connect 728 0 702 0;
#X connect 729 0 703 0;
#X connect 730 0 722 0;
#X connect 731 0 715 0;
#X connect 732 0 716 0;
#X connect 733 0 718 0;
#X connect 734 0 720 0;
#X connect 735 0 721 0;
#X connect 736 0 717 0;
#X connect 737 0 719 0;
#X connect 738 0 714 0;
#X connect 750 0 753 0;
#X connect 751 0 754 0;
#X connect 752 0 755 0;
#X connect 753 0 757 0;
#X connect 753 0 761 0;
#X connect 754 0 757 1;
#X connect 754 0 761 1;
#X connect 755 0 757 2;
#X connect 755 0 761 2;
#X connect 756 0 758 0;
#X connect 757 0 756 0;
#X connect 757 1 756 1;
#X connect 758 0 558 0;
#X connect 759 0 760 0;
#X connect 760 0 579 0;
#X connect 761 0 759 0;
#X connect 761 1 759 1;
#X connect 763 0 765 0;
#X connect 764 0 765 1;
#X connect 765 0 766 0;
#X connect 765 1 767 0;
#X connect 766 0 782 0;
#X connect 767 0 774 0;
#X connect 768 0 769 0;
#X connect 770 0 773 0;
#X connect 771 1 768 1;
#X connect 772 0 783 0;
#X connect 773 0 777 0;
#X connect 773 0 800 0;
#X connect 775 0 785 0;
#X connect 776 0 775 0;
#X connect 776 0 778 0;
#X connect 777 0 776 0;
#X connect 778 0 781 1;
#X connect 778 0 784 1;
#X connect 779 0 778 0;
#X connect 780 0 779 0;
#X connect 781 0 784 0;
#X connect 782 0 768 0;
#X connect 783 0 771 0;
#X connect 785 0 781 0;
#X connect 787 0 789 0;
#X connect 788 0 789 1;
#X connect 789 0 790 0;
#X connect 789 1 791 0;
#X connect 790 0 798 0;
#X connect 791 0 797 0;
#X connect 792 0 793 0;
#X connect 793 0 794 0;
#X connect 795 1 792 1;
#X connect 796 0 799 0;
#X connect 798 0 792 0;
#X connect 799 0 795 0;
#X connect 800 0 775 0;
#X connect 800 0 780 0;
#X connect 801 0 825 0;
#X connect 801 0 898 0;
#X connect 802 0 807 0;
#X connect 803 0 802 0;
#X connect 803 0 804 0;
#X connect 804 0 897 1;
#X connect 805 0 804 0;
#X connect 807 0 897 0;
#X connect 808 0 793 0;
#X connect 809 0 801 0;
#X connect 810 0 806 0;
#X connect 810 1 806 1;
#X connect 811 0 805 0;
#X connect 812 0 814 0;
#X connect 814 0 813 0;
#X connect 815 0 813 1;
#X connect 825 0 803 0;
#X connect 826 0 827 0;
#X connect 826 0 828 0;
#X connect 826 0 829 0;
#X connect 826 0 830 0;
#X connect 826 0 831 0;
#X connect 826 0 832 0;
#X connect 826 0 833 0;
#X connect 826 0 837 0;
#X connect 827 0 834 0;
#X connect 828 0 834 0;
#X connect 829 0 834 0;
#X connect 830 0 834 0;
#X connect 831 0 834 0;
#X connect 832 0 834 0;
#X connect 833 0 834 0;
#X connect 837 0 834 0;
#X connect 838 0 840 0;
#X connect 839 0 838 1;
#X connect 840 0 838 1;
#X connect 840 0 841 0;
#X connect 841 0 843 0;
#X connect 841 0 826 0;
#X connect 841 0 834 1;
#X connect 841 0 845 0;
#X connect 842 0 838 0;
#X connect 844 0 865 0;
#X connect 845 0 846 0;
#X connect 846 0 839 0;
#X connect 847 0 848 0;
#X connect 847 0 849 0;
#X connect 847 0 850 0;
#X connect 847 0 851 0;
#X connect 847 0 852 0;
#X connect 847 0 853 0;
#X connect 847 0 854 0;
#X connect 847 0 855 0;
#X connect 848 0 864 0;
#X connect 849 0 864 0;
#X connect 850 0 864 0;
#X connect 851 0 864 0;
#X connect 852 0 864 0;
#X connect 853 0 864 0;
#X connect 854 0 864 0;
#X connect 855 0 864 0;
#X connect 856 0 858 0;
#X connect 857 0 856 1;
#X connect 858 0 856 1;
#X connect 858 0 859 0;
#X connect 859 0 861 0;
#X connect 859 0 847 0;
#X connect 859 0 862 0;
#X connect 859 0 864 1;
#X connect 860 0 856 0;
#X connect 862 0 863 0;
#X connect 863 0 857 0;
#X connect 865 0 569 0;
#X connect 865 0 588 0;
#X connect 866 0 867 0;
#X connect 866 0 892 0;
#X connect 868 0 870 0;
#X connect 870 0 869 0;
#X connect 870 0 893 0;
#X connect 871 0 879 0;
#X connect 871 0 892 1;
#X connect 871 0 867 1;
#X connect 872 0 871 0;
#X connect 873 0 872 0;
#X connect 873 0 875 0;
#X connect 873 0 881 0;
#X connect 873 0 886 0;
#X connect 873 0 890 0;
#X connect 874 0 868 0;
#X connect 874 0 893 1;
#X connect 874 0 869 1;
#X connect 875 0 874 0;
#X connect 876 0 880 0;
#X connect 876 0 894 1;
#X connect 876 0 877 1;
#X connect 878 0 877 0;
#X connect 878 0 894 0;
#X connect 879 0 866 0;
#X connect 880 0 878 0;
#X connect 881 0 876 0;
#X connect 882 0 884 0;
#X connect 882 0 895 1;
#X connect 882 0 883 1;
#X connect 884 0 885 0;
#X connect 885 0 883 0;
#X connect 885 0 895 0;
#X connect 886 0 882 0;
#X connect 887 0 889 0;
#X connect 887 0 896 1;
#X connect 887 0 888 1;
#X connect 889 0 891 0;
#X connect 890 0 887 0;
#X connect 891 0 888 0;
#X connect 891 0 896 0;
#X connect 897 0 810 0;
#X connect 897 1 810 1;
#X connect 898 0 802 0;
#X connect 898 0 811 0;
#X connect 899 0 38 0;
#X connect 900 0 904 0;
#X connect 900 0 942 0;
#X connect 901 0 902 0;
#X connect 902 0 936 0;
#X connect 903 0 901 0;
#X connect 903 0 906 0;
#X connect 904 0 903 0;
#X connect 906 0 905 1;
#X connect 906 0 936 1;
#X connect 907 0 906 0;
#X connect 908 0 907 0;
#X connect 909 0 912 0;
#X connect 909 0 943 0;
#X connect 910 0 917 0;
#X connect 911 0 910 0;
#X connect 911 0 914 0;
#X connect 912 0 911 0;
#X connect 914 0 913 1;
#X connect 914 0 937 1;
#X connect 915 0 914 0;
#X connect 916 0 915 0;
#X connect 917 0 937 0;
#X connect 918 0 921 0;
#X connect 918 0 944 0;
#X connect 919 0 925 0;
#X connect 920 0 919 0;
#X connect 920 0 922 0;
#X connect 921 0 920 0;
#X connect 922 0 926 1;
#X connect 922 0 938 1;
#X connect 923 0 922 0;
#X connect 924 0 923 0;
#X connect 925 0 938 0;
#X connect 927 0 930 0;
#X connect 927 0 945 0;
#X connect 928 0 935 0;
#X connect 929 0 928 0;
#X connect 929 0 931 0;
#X connect 930 0 929 0;
#X connect 931 0 934 1;
#X connect 931 0 939 1;
#X connect 932 0 931 0;
#X connect 933 0 932 0;
#X connect 935 0 939 0;
#X connect 936 0 905 0;
#X connect 937 0 913 0;
#X connect 938 0 926 0;
#X connect 939 0 934 0;
#X connect 940 0 941 0;
#X connect 941 0 900 0;
#X connect 941 1 909 0;
#X connect 941 2 918 0;
#X connect 941 3 927 0;
#X connect 942 0 901 0;
#X connect 942 0 908 0;
#X connect 943 0 910 0;
#X connect 943 0 916 0;
#X connect 944 0 919 0;
#X connect 944 0 924 0;
#X connect 945 0 928 0;
#X connect 945 0 933 0;
#X connect 946 0 947 0;
#X connect 946 0 948 0;
#X connect 946 0 949 0;
#X connect 946 0 950 0;
#X connect 946 0 951 0;
#X connect 946 0 952 0;
#X connect 946 0 953 0;
#X connect 946 0 954 0;
#X connect 947 0 1017 0;
#X connect 947 0 1018 0;
#X connect 948 0 1017 0;
#X connect 948 0 1018 0;
#X connect 949 0 1017 0;
#X connect 949 0 1018 0;
#X connect 950 0 1017 0;
#X connect 950 0 1018 0;
#X connect 951 0 1017 0;
#X connect 951 0 1018 0;
#X connect 952 0 1017 0;
#X connect 952 0 1018 0;
#X connect 953 0 1017 0;
#X connect 953 0 1018 0;
#X connect 954 0 1017 0;
#X connect 954 0 1018 0;
#X connect 955 0 957 0;
#X connect 956 0 955 1;
#X connect 957 0 955 1;
#X connect 957 0 958 0;
#X connect 958 0 959 0;
#X connect 958 0 1006 0;
#X connect 959 0 960 0;
#X connect 960 0 956 0;
#X connect 962 0 1027 1;
#X connect 963 0 965 0;
#X connect 964 0 963 1;
#X connect 965 0 963 1;
#X connect 965 0 966 0;
#X connect 966 0 969 0;
#X connect 966 0 980 0;
#X connect 966 0 1027 0;
#X connect 967 0 964 0;
#X connect 968 0 963 0;
#X connect 968 0 970 0;
#X connect 969 0 967 0;
#X connect 969 0 975 0;
#X connect 970 0 972 0;
#X connect 971 0 970 1;
#X connect 972 0 970 1;
#X connect 972 0 973 0;
#X connect 973 0 981 0;
#X connect 973 0 1028 0;
#X connect 974 0 971 0;
#X connect 975 0 962 0;
#X connect 976 0 986 0;
#X connect 978 0 1028 1;
#X connect 979 0 978 0;
#X connect 981 0 974 0;
#X connect 981 0 979 0;
#X connect 982 0 983 0;
#X connect 983 0 963 0;
#X connect 984 0 985 0;
#X connect 985 0 970 0;
#X connect 986 0 968 0;
#X connect 988 0 1004 1;
#X connect 989 0 991 0;
#X connect 990 0 989 1;
#X connect 991 0 989 1;
#X connect 991 0 992 0;
#X connect 992 0 995 0;
#X connect 992 0 997 0;
#X connect 992 0 1004 0;
#X connect 992 0 1013 0;
#X connect 993 0 990 0;
#X connect 994 0 989 0;
#X connect 994 0 1001 0;
#X connect 995 0 993 0;
#X connect 995 0 996 0;
#X connect 995 0 1010 0;
#X connect 996 0 988 0;
#X connect 998 0 999 0;
#X connect 999 0 989 0;
#X connect 1000 0 987 0;
#X connect 1000 1 987 1;
#X connect 1001 0 946 0;
#X connect 1001 0 955 0;
#X connect 1002 0 1003 0;
#X connect 1003 0 994 0;
#X connect 1004 0 1000 0;
#X connect 1004 1 1000 1;
#X connect 1005 0 1007 0;
#X connect 1006 0 1005 0;
#X connect 1007 0 1008 0;
#X connect 1007 0 1015 0;
#X connect 1008 0 1009 0;
#X connect 1009 0 1017 1;
#X connect 1010 0 1011 0;
#X connect 1011 0 1013 1;
#X connect 1012 0 1014 0;
#X connect 1012 1 1014 1;
#X connect 1013 0 1012 0;
#X connect 1013 1 1012 1;
#X connect 1015 0 1016 0;
#X connect 1016 0 1018 1;
#X connect 1019 0 1021 0;
#X connect 1020 0 1019 1;
#X connect 1021 0 1019 1;
#X connect 1021 0 1022 0;
#X connect 1022 0 1023 0;
#X connect 1022 0 1024 0;
#X connect 1023 0 940 0;
#X connect 1024 0 1025 0;
#X connect 1025 0 1020 0;
#X connect 1026 0 1019 0;
#X connect 1027 0 961 0;
#X connect 1027 1 961 1;
#X connect 1028 0 977 0;
#X connect 1028 1 977 1;
#X connect 1029 0 322 0;
#X connect 1029 0 344 0;
#X connect 1029 0 366 0;
#X connect 1029 0 389 0;
#X connect 1031 0 28 0;
#X connect 1032 0 28 0;
#X connect 1033 0 50 0;
#X connect 1034 0 67 0;
#X connect 1035 0 686 0;
#X connect 1035 0 687 0;
#X connect 1035 0 688 0;
#X connect 1035 0 692 0;
#X connect 1036 0 689 0;
#X connect 1036 0 693 0;
#X connect 1036 0 690 0;
#X connect 1036 0 691 0;
#X connect 1037 0 88 0;
#X connect 1038 0 217 0;
#X connect 1039 0 230 0;
#X connect 1040 0 242 0;
#X connect 1041 0 730 0;
#X connect 1041 0 731 0;
#X connect 1041 0 732 0;
#X connect 1041 0 736 0;
#X connect 1042 0 733 0;
#X connect 1042 0 737 0;
#X connect 1042 0 734 0;
#X connect 1042 0 735 0;
#X connect 1043 0 246 0;
#X connect 1044 0 36 0;
#X connect 1044 0 899 0;
#X connect 1044 0 68 0;
#X connect 1044 0 84 0;
#X connect 1044 0 100 0;
#X connect 1045 0 1047 0;
#X connect 1046 0 141 0;
#X connect 1047 1 141 1;
#X connect 1048 1 823 0;
#X connect 1048 1 644 0;
#X connect 1049 1 656 0;
#X connect 1049 1 824 0;
