#N canvas 29 87 897 692 10;
#X obj 46 33 receive fromGUI;
#X msg 48 183 list /valueToNetwork \$1;
#X obj 47 238 send toNetwork;
#X obj 444 144 route list;
#X obj 443 113 receive fromNetwork;
#X floatatom 443 198 5 0 0 0 - - -;
#X obj 544 546 send toGUI;
#X floatatom 47 161 5 0 0 0 - - -;
#X obj 46 92 route /touchSlider /touchSlider2;
#X text 56 206 send message straight to multicast on user-specified
port;
#X text 145 310 OR! use LANdini for far more robust messaging;
#X obj 142 406 send toNetwork;
#X text 151 365 first two arguements are used by local LANdini process
to send to other LANdini processes on the network;
#X msg 142 340 list /send/GD all /valueToNetwork \$1;
#X obj 47 64 list trim;
#X msg 400 240 list /receiveSlider \$1;
#X msg 761 267 list /bpmValue \$1;
#X obj 443 172 route /valueToNetwork /bpmTick /bpmValue;
#X floatatom 750 210 5 0 0 0 - - -;
#X obj 586 219 bng 40 250 50 0 empty empty empty 17 7 0 10 -262144
-1 -1;
#X obj 601 309 tgl 40 0 empty empty empty 17 7 0 10 -262144 -1 -1 0
1;
#X floatatom 538 444 3 0 127 0 - - -;
#X obj 538 386 + 1;
#X obj 587 405 bng 15 250 50 0 empty empty empty 17 7 0 10 -262144
-1 -1;
#X obj 629 406 bng 15 250 50 0 empty empty empty 17 7 0 10 -262144
-1 -1;
#X obj 587 424 0;
#X obj 581 358 sel 1 0;
#X msg 652 600 list /bpmValue \$1;
#X floatatom 692 574 5 0 0 0 - - -;
#X msg 532 472 list /bpmTick \$1;
#X obj 652 520 bng 15 250 50 0 empty empty empty 17 7 0 10 -262144
-1 -1;
#X obj 755 408 f;
#X floatatom 794 391 3 0 127 0 - - -;
#X obj 770 445 print delay;
#X obj 643 272 delay 5;
#X connect 0 0 14 0;
#X connect 1 0 2 0;
#X connect 3 0 17 0;
#X connect 4 0 3 0;
#X connect 5 0 15 0;
#X connect 7 0 1 0;
#X connect 8 0 7 0;
#X connect 8 1 13 0;
#X connect 13 0 11 0;
#X connect 14 0 8 0;
#X connect 15 0 6 0;
#X connect 16 0 6 0;
#X connect 17 0 5 0;
#X connect 17 1 19 0;
#X connect 17 2 18 0;
#X connect 18 0 16 0;
#X connect 19 0 20 0;
#X connect 19 0 34 0;
#X connect 20 0 26 0;
#X connect 21 0 29 0;
#X connect 22 0 21 0;
#X connect 24 0 25 0;
#X connect 25 0 21 0;
#X connect 26 0 22 0;
#X connect 26 0 23 0;
#X connect 26 1 24 0;
#X connect 28 0 27 0;
#X connect 29 0 6 0;
#X connect 31 0 33 0;
#X connect 32 0 31 1;
#X connect 34 0 20 0;
