#N canvas 420 331 458 308 10;
#X obj 89 112 print hello;
#X obj 55 78 tgl 15 0 empty empty empty 0 -6 0 10 -262144 -1 -1 1 1
;
#X msg 56 2 1;
#X obj 54 24 - 1;
#X floatatom 54 45 5 0 0 0 - - -;
#X obj 107 23 - 1;
#X floatatom 107 44 5 0 0 0 - - -;
#X msg 109 1 2;
#X connect 1 0 0 0;
#X connect 2 0 3 0;
#X connect 3 0 4 0;
#X connect 4 0 1 0;
#X connect 5 0 6 0;
#X connect 6 0 1 0;
#X connect 7 0 5 0;
