#N canvas 39 173 1286 667 12;
#N canvas 0 23 450 278 (subpatch) 0;
#X array c-1 8 float 3;
#A 0 73.1864 75.339 64.5763 -0.371423 0 77.4915 -0.371423 53.8136;
#X coords 0 0 8 127 32 64 1 0 0;
#X restore 834 70 graph;
#X obj 449 76 hradio 30 1 0 8 track_select_send track_select_rec track_selector
0 -8 0 10 -262144 -1 -1 2;
#X obj 40 245 vsl 20 60 0 127 0 0 test empty 5 0 -9 0 10 -262144 -1
-1 3400 1;
#X obj 70 245 vsl 20 60 0 127 0 0 empty empty 6 0 -9 0 10 -262144 -1
-1 3000 1;
#X obj 100 245 vsl 20 60 0 127 0 0 empty empty 71 0 -9 0 10 -262144
-1 -1 3600 1;
#X obj 129 245 vsl 20 60 0 127 0 0 empty empty 76 0 -9 0 10 -262144
-1 -1 3100 1;
#X obj 40 32 ctlin 5;
#X obj 129 104 ctlin 76;
#X obj 100 80 ctlin 71;
#X obj 70 56 ctlin 6;
#X obj 159 245 vsl 20 60 0 127 0 0 test empty 77 0 -9 0 10 -262144
-1 -1 3700 1;
#X obj 189 245 vsl 20 60 0 127 0 0 empty empty 93 0 -9 0 10 -262144
-1 -1 4100 1;
#X obj 219 245 vsl 20 60 0 127 0 0 empty empty 73 0 -9 0 10 -262144
-1 -1 4400 1;
#X obj 248 245 vsl 20 60 0 127 0 0 empty empty 75 0 -9 0 10 -262144
-1 -1 2300 1;
#X obj 159 128 ctlin 77;
#X obj 248 200 ctlin 75;
#X obj 219 176 ctlin 73;
#X obj 189 152 ctlin 93;
#X obj 42 387 s \$0-input;
#N canvas 0 23 450 278 (subpatch) 0;
#X array c-2 8 float 3;
#A 0 63.5 75.339 58.1186 -0.371423 0 77.4915 -0.371423 66;
#X coords 0 0 8 127 32 64 1 0 0;
#X restore 870 70 graph;
#N canvas 0 23 450 278 (subpatch) 0;
#X array c-3 8 float 3;
#A 0 63.5 75.339 58.1186 -0.371423 0 88.2542 -0.371423 66;
#X coords 0 0 8 127 32 64 1 0 0;
#X restore 907 70 graph;
#N canvas 0 23 450 278 (subpatch) 0;
#X array c-4 8 float 3;
#A 0 63.5 75.339 58.1186 -0.371423 0 77.4915 19.3729 66;
#X coords 0 0 8 127 32 64 1 0 0;
#X restore 944 70 graph;
#N canvas 0 23 450 278 (subpatch) 0;
#X array c-5 8 float 3;
#A 0 51 21.5254 58.1186 -0.371423 41 79.6441 86.1017 51.661;
#X coords 0 0 8 127 32 64 1 0 0;
#X restore 983 70 graph;
#N canvas 0 23 450 278 (subpatch) 0;
#X array c-6 8 float 3;
#A 0 63.5 75.339 58.1186 -0.371423 0 77.4915 94.7119 66;
#X coords 0 0 8 127 32 64 1 0 0;
#X restore 1019 70 graph;
#N canvas 0 23 450 278 (subpatch) 0;
#X array c-7 8 float 3;
#A 0 63.5 75.339 58.1186 -0.371423 0 77.4915 -0.371423 66;
#X coords 0 0 8 127 32 64 1 0 0;
#X restore 1056 70 graph;
#N canvas 0 23 450 278 (subpatch) 0;
#X array c-8 8 float 3;
#A 0 127 75.339 58.1186 -0.371423 0 77.4915 17.2203 66;
#X coords 0 0 8 127 32 64 1 0 0;
#X restore 1093 70 graph;
#X text 593 161 Active track;
#X obj 449 133 r \$0-input;
#X obj 449 158 unpack;
#X obj 449 233 s;
#X obj 488 183 pack;
#X msg 488 208 symbol t\$2-\$1r;
#X floatatom 652 494 0 0 0 0 - - -;
#X obj 589 529 tabwrite;
#X obj 647 304 r track_select_send;
#X obj 647 335 + 1;
#X msg 647 366 set c-\$1;
#X obj 562 306 r \$0-input;
#X floatatom 506 481 0 0 127 0 - - -;
#X text 487 480 y;
#X obj 506 338 vsl 30 128 0 127 0 0 empty empty empty 0 -9 0 10 -262144
-1 -1 9471 1;
#X msg 40 313 \$1 0;
#X msg 70 339 \$1 1;
#X msg 100 313 \$1 2;
#X msg 130 339 \$1 3;
#X msg 159 313 \$1 4;
#X msg 189 339 \$1 5;
#X msg 219 313 \$1 6;
#X msg 249 339 \$1 7;
#X text 446 303 Select array;
#X text 454 575 Next need to get fader positions when track is selected
;
#X connect 2 0 41 0;
#X connect 3 0 42 0;
#X connect 4 0 43 0;
#X connect 5 0 44 0;
#X connect 6 0 2 0;
#X connect 7 0 5 0;
#X connect 8 0 4 0;
#X connect 9 0 3 0;
#X connect 10 0 45 0;
#X connect 11 0 46 0;
#X connect 12 0 47 0;
#X connect 13 0 48 0;
#X connect 14 0 10 0;
#X connect 15 0 13 0;
#X connect 16 0 12 0;
#X connect 17 0 11 0;
#X connect 27 0 28 0;
#X connect 28 0 29 0;
#X connect 28 1 30 0;
#X connect 30 0 31 0;
#X connect 31 0 29 1;
#X connect 32 0 33 1;
#X connect 34 0 35 0;
#X connect 35 0 36 0;
#X connect 36 0 33 0;
#X connect 37 0 40 0;
#X connect 37 0 33 0;
#X connect 40 0 38 0;
#X connect 41 0 18 0;
#X connect 42 0 18 0;
#X connect 43 0 18 0;
#X connect 44 0 18 0;
#X connect 45 0 18 0;
#X connect 46 0 18 0;
#X connect 47 0 18 0;
#X connect 48 0 18 0;
