#N canvas 637 41 728 712 12;
#X obj 85 129 + \$1;
#X obj 85 219 moses;
#X obj 85 184 t f f f;
#X msg 65 75 -1;
#X msg 105 75 1;
#X obj 151 274 sel 0;
#X obj 151 169 0;
#X obj 85 156 change;
#X obj 141 249 mod 24;
#X obj 45 274 sel 0;
#X obj 45 169 0;
#X obj 65 249 mod 24;
#X floatatom 65 307 5 0 0 0 - - -;
#X floatatom 141 307 5 0 0 0 - - -;
#X connect 0 0 7 0;
#X connect 1 0 11 0;
#X connect 1 1 8 0;
#X connect 2 0 1 1;
#X connect 2 1 1 0;
#X connect 2 2 0 1;
#X connect 3 0 0 0;
#X connect 4 0 0 0;
#X connect 5 0 6 0;
#X connect 6 0 0 0;
#X connect 7 0 2 0;
#X connect 8 0 5 0;
#X connect 8 0 13 0;
#X connect 9 0 10 0;
#X connect 10 0 0 0;
#X connect 11 0 9 0;
#X connect 11 0 12 0;
