#N canvas 279 223 735 414 10;
#X msg 35 35 -1;
#X msg 65 35 1;
#X obj 35 58 t f f;
#X obj 35 81 >=;
#X obj 35 127 pack;
#X obj 35 150 route 0 1;
#X obj 65 104 t f;
#X floatatom 35 242 5 0 0 0 - - -;
#X floatatom 75 242 5 0 0 0 - - -;
#X floatatom 229 36 5 0 0 0 - - -;
#X obj 35 173 moses;
#X msg 35 196 5;
#X msg 229 81 set \$1;
#X obj 201 223 t f;
#X obj 229 58 - 1;
#X obj 75 173 moses;
#X msg 102 196 0;
#X obj 65 81 + \$1;
#X connect 0 0 2 0;
#X connect 1 0 2 0;
#X connect 2 0 3 0;
#X connect 2 1 17 0;
#X connect 3 0 4 0;
#X connect 4 0 5 0;
#X connect 5 0 10 0;
#X connect 5 1 15 0;
#X connect 6 0 4 1;
#X connect 9 0 14 0;
#X connect 9 0 15 1;
#X connect 10 0 11 0;
#X connect 10 1 13 0;
#X connect 10 1 7 0;
#X connect 11 0 13 0;
#X connect 11 0 7 0;
#X connect 12 0 11 0;
#X connect 13 0 17 1;
#X connect 14 0 12 0;
#X connect 15 0 8 0;
#X connect 15 0 13 0;
#X connect 15 1 16 0;
#X connect 16 0 13 0;
#X connect 16 0 8 0;
#X connect 17 0 6 0;
