#N canvas 0 0 450 580 10;
#X msg 128 19 1;
#X msg 90 19 -1;
#X obj 109 104 \$1;
#X floatatom 175 88 5 0 0 0 - - -;
#X obj 90 144 *;
#X obj 90 180 +;
#X obj 136 181 f;
#X floatatom 90 285 5 0 0 0 - - -;
#X obj 175 388 >=;
#X obj 190 337 f;
#X obj 90 50 t f b b;
#X obj 90 320 t f f f;
#X obj 90 420 spigot 0;
#X obj 130 450 spigot 0;
#X obj 135 388 <=;
#X floatatom 90 487 5 0 0 0 - - -;
#X obj 90 517 bng 15 250 50 0 empty empty empty 17 7 0 10 -262144 -1
-1;
#X floatatom 130 487 5 0 0 0 - - -;
#X obj 130 517 bng 15 250 50 0 empty empty empty 17 7 0 10 -262144
-1 -1;
#X text 218 339 hold last value;
#X text 176 182 count;
#X text 169 21 up / down;
#X text 218 89 by;
#X text 128 533 up;
#X text 86 534 down;
#X msg 276 17 reset;
#X obj 198 470 r \$0-reset;
#X obj 174 132 r \$0-reset;
#X msg 276 53 0;
#X obj 276 80 s \$0-reset;
#X obj 90 253 mod 24;
#X floatatom 194 237 5 0 0 0 - - -;
#X text 239 237 change mod;
#X floatatom 90 214 5 0 0 0 - - -;
#X connect 0 0 10 0;
#X connect 1 0 10 0;
#X connect 2 0 4 1;
#X connect 3 0 2 1;
#X connect 4 0 5 0;
#X connect 5 0 6 0;
#X connect 5 0 33 0;
#X connect 6 0 5 1;
#X connect 7 0 11 0;
#X connect 8 0 13 1;
#X connect 9 0 8 1;
#X connect 9 0 14 1;
#X connect 10 0 4 0;
#X connect 10 1 2 0;
#X connect 10 2 9 0;
#X connect 11 0 12 0;
#X connect 11 0 13 0;
#X connect 11 1 8 0;
#X connect 11 1 14 0;
#X connect 11 2 9 1;
#X connect 12 0 15 0;
#X connect 13 0 17 0;
#X connect 14 0 12 1;
#X connect 15 0 16 0;
#X connect 17 0 18 0;
#X connect 25 0 28 0;
#X connect 26 0 17 0;
#X connect 26 0 15 0;
#X connect 27 0 6 0;
#X connect 27 0 5 0;
#X connect 28 0 29 0;
#X connect 30 0 7 0;
#X connect 31 0 30 1;
#X connect 33 0 30 0;
