#N canvas 489 365 786 373 12;
#X obj 66 233 readsf~;
#X floatatom 267 87 5 0 0 0 - - -;
#N canvas 58 23 644 514 gateOneToFive 0;
#X obj 141 88 moses 62;
#X obj 88 67 moses 36;
#X obj 194 110 moses 88;
#X obj 247 131 moses 114;
#X text 6 167 vel upto 35;
#X text 108 164 vel upto 61;
#X text 167 187 vel upto 87;
#X text 217 215 vel upto 113;
#X text 317 220 vel upto 127;
#X msg 72 233 1;
#X msg 136 233 2;
#X msg 190 236 3;
#X msg 249 259 4;
#X msg 313 259 5;
#X obj 97 23 inlet;
#X obj 74 268 outlet;
#X obj 127 268 outlet;
#X obj 185 273 outlet;
#X obj 251 292 outlet;
#X obj 310 293 outlet;
#X connect 0 0 10 0;
#X connect 0 1 2 0;
#X connect 1 0 9 0;
#X connect 1 1 0 0;
#X connect 2 0 11 0;
#X connect 2 1 3 0;
#X connect 3 0 12 0;
#X connect 3 1 13 0;
#X connect 9 0 15 0;
#X connect 10 0 16 0;
#X connect 11 0 17 0;
#X connect 12 0 18 0;
#X connect 13 0 19 0;
#X connect 14 0 1 0;
#X restore 126 68 pd gateOneToFive;
#X obj 73 78 f, f 5;
#X obj 73 137 pack f f f s;
#X obj 182 108 r bank_selector;
#X obj 303 109 r definition_text;
#X obj 73 8 inlet;
#X obj 74 273 outlet~;
#X obj 105 42 r floatNotein;
#X obj 151 12 r floatVel;
#X obj 170 286 dac~;
#X obj 532 2 receive fromGUI;
#X obj 529 27 route list;
#X obj 526 59 route /classic-808-kick-long /classic-808-kick-short
;
#X obj 543 101 bng 15 250 50 0 empty empty empty 17 7 0 10 -262144
-1 -1;
#X obj 712 102 bng 15 250 50 0 empty empty empty 17 7 0 10 -262144
-1 -1;
#X msg 68 175 open /home/ktini/Downloads/MobMuPlatDistribution/MobMuPlatDistribution_1.82iOS_0.34Android/Patches/clap.wav
1;
#X obj 156 242 *~;
#X connect 0 0 8 0;
#X connect 0 0 18 0;
#X connect 2 0 1 0;
#X connect 2 0 4 1;
#X connect 2 1 1 0;
#X connect 2 1 4 1;
#X connect 2 2 1 0;
#X connect 2 2 4 1;
#X connect 2 3 1 0;
#X connect 2 3 4 1;
#X connect 2 4 1 0;
#X connect 2 4 4 1;
#X connect 3 0 4 0;
#X connect 4 0 17 0;
#X connect 5 0 4 2;
#X connect 6 0 4 3;
#X connect 7 0 3 0;
#X connect 9 0 3 1;
#X connect 10 0 2 0;
#X connect 12 0 13 0;
#X connect 13 0 14 0;
#X connect 14 0 15 0;
#X connect 14 0 4 1;
#X connect 14 0 17 0;
#X connect 14 1 16 0;
#X connect 17 0 0 0;
#X connect 18 0 11 0;
