#N canvas 465 109 758 574 12;
#X obj 220 376 readsf~;
#X obj 287 174 sel 0;
#X floatatom 460 230 5 0 0 0 - - -;
#N canvas 58 23 644 514 gateOneToFive 0;
#X obj 141 88 moses 62;
#X obj 88 67 moses 36;
#X obj 194 110 moses 88;
#X obj 247 131 moses 114;
#X text 6 167 vel upto 35;
#X text 108 164 vel upto 61;
#X text 167 187 vel upto 87;
#X text 217 215 vel upto 113;
#X text 317 220 vel upto 127;
#X msg 72 233 1;
#X msg 136 233 2;
#X msg 190 236 3;
#X msg 249 259 4;
#X msg 313 259 5;
#X obj 97 23 inlet;
#X obj 74 268 outlet;
#X obj 127 268 outlet;
#X obj 185 273 outlet;
#X obj 251 292 outlet;
#X obj 310 293 outlet;
#X connect 0 0 10 0;
#X connect 0 1 2 0;
#X connect 1 0 9 0;
#X connect 1 1 0 0;
#X connect 2 0 11 0;
#X connect 2 1 3 0;
#X connect 3 0 12 0;
#X connect 3 1 13 0;
#X connect 9 0 15 0;
#X connect 10 0 16 0;
#X connect 11 0 17 0;
#X connect 12 0 18 0;
#X connect 13 0 19 0;
#X connect 14 0 1 0;
#X restore 319 210 pd gateOneToFive;
#X obj 220 309 pack f f f s;
#X text 200 22 MIDI keyboard;
#X msg 220 347 open ../../samples/\$3/\$4\$1_\$2.wav \, 1;
#X obj 220 411 outlet~;
#X obj 374 263 r bank_selector;
#X obj 382 289 r definition_text;
#X obj 220 87 inlet;
#X obj 220 122 unpack f f;
#X text 317 85 the index (first float from poly) \; is already stripped
when it \; arrives in clone;
#X obj 220 205 alt;
#X obj 220 241 f;
#X obj 220 150 t b f;
#X connect 0 0 7 0;
#X connect 1 1 3 0;
#X connect 3 0 2 0;
#X connect 3 0 4 1;
#X connect 3 1 2 0;
#X connect 3 1 4 1;
#X connect 3 2 2 0;
#X connect 3 2 4 1;
#X connect 3 3 2 0;
#X connect 3 3 4 1;
#X connect 3 4 2 0;
#X connect 3 4 4 1;
#X connect 4 0 6 0;
#X connect 6 0 0 0;
#X connect 8 0 4 2;
#X connect 9 0 4 3;
#X connect 10 0 11 0;
#X connect 11 0 15 0;
#X connect 11 1 1 0;
#X connect 13 0 14 0;
#X connect 14 0 4 0;
#X connect 15 0 13 0;
#X connect 15 1 14 1;
