#N canvas 239 293 398 248 10;
#X floatatom 39 146 5 0 0 0 - - -;
#X floatatom 246 144 5 0 0 0 - - -;
#X floatatom 39 67 5 0 0 0 - - -;
#X obj 273 194 bng 15 250 50 0 empty empty empty 17 7 0 10 -262144
-1 -1;
#X obj 246 169 sel 0;
#X obj 39 94 expr $f1 \; if ($f1 <=$f3 && $f1 >=$f2 \, $f1 \, 0);
#X obj 39 25 inlet;
#X obj 142 25 inlet lower bound;
#X obj 246 55 inlet upper bound;
#X obj 273 219 outlet;
#X connect 1 0 4 0;
#X connect 2 0 5 0;
#X connect 3 0 9 0;
#X connect 4 1 3 0;
#X connect 5 0 0 0;
#X connect 5 1 1 0;
#X connect 6 0 2 0;
#X connect 7 0 5 1;
#X connect 8 0 5 2;
