#N canvas 701 165 597 560 10;
#X obj 94 314 f;
#X obj 169 211 r \$0-max;
#X obj 18 206 r \$0-min;
#X obj 99 85 s \$0-min;
#X floatatom 157 62 5 1 16 0 - - -;
#X obj 157 85 s \$0-max;
#X floatatom 99 63 5 1 16 0 - - -;
#X obj 99 31 inlet;
#X obj 157 32 inlet;
#X obj 48 31 inlet;
#X obj 225 32 inlet;
#X obj 225 61 tgl 15 0 empty empty empty 17 7 0 10 -262144 -1 -1 0
1;
#X obj 94 138 tgl 15 0 empty empty empty 17 7 0 10 -262144 -1 -1 1
1;
#X floatatom 94 413 5 0 0 0 - - -;
#X obj 107 185 bng 15 250 50 0 empty empty empty 17 7 0 10 -262144
-1 -1;
#X obj 268 216 expr if ($f1 == 0 \, 1 \, -1) \;;
#X obj 43 346 f;
#X obj 271 289 + 1;
#X obj 94 164 metro 700;
#X obj 269 264 bng 15 250 50 0 empty empty empty 17 7 0 10 -262144
-1 -1;
#X obj 37 260 ==;
#X msg 111 213 0;
#X obj 24 292 moses 0.5;
#X floatatom 43 367 5 0 0 0 - - -;
#X obj 34 322 bng 15 250 50 0 empty empty empty 17 7 0 10 -262144 -1
-1;
#X floatatom 321 413 5 0 0 0 - - -;
#X msg 123 233 11;
#X obj 171 336 f;
#X obj 165 250 ==;
#X obj 155 277 moses 0.5;
#X floatatom 171 357 5 0 0 0 - - -;
#X obj 184 314 bng 15 250 50 0 empty empty empty 17 7 0 10 -262144
-1 -1;
#X obj 36 75 bng 15 250 50 0 empty empty empty 17 7 0 10 -262144 -1
-1;
#X obj 272 381 spigot 0;
#X obj 342 376 spigot 1;
#X obj 282 334 != 1;
#X text 130 413 beat;
#X connect 0 0 17 0;
#X connect 0 0 13 0;
#X connect 0 0 20 0;
#X connect 0 0 28 0;
#X connect 1 0 16 1;
#X connect 1 0 28 1;
#X connect 2 0 20 1;
#X connect 2 0 27 1;
#X connect 4 0 5 0;
#X connect 6 0 3 0;
#X connect 7 0 6 0;
#X connect 8 0 4 0;
#X connect 9 0 12 0;
#X connect 10 0 11 0;
#X connect 11 0 15 0;
#X connect 11 0 34 1;
#X connect 11 0 35 0;
#X connect 12 0 18 0;
#X connect 15 0 17 1;
#X connect 15 0 19 0;
#X connect 16 0 23 0;
#X connect 17 0 0 1;
#X connect 18 0 14 0;
#X connect 18 0 0 0;
#X connect 19 0 17 0;
#X connect 20 0 22 0;
#X connect 21 0 0 1;
#X connect 22 1 24 0;
#X connect 23 0 34 0;
#X connect 24 0 16 0;
#X connect 25 0 0 1;
#X connect 26 0 0 1;
#X connect 27 0 30 0;
#X connect 28 0 29 0;
#X connect 29 1 31 0;
#X connect 30 0 33 0;
#X connect 31 0 27 0;
#X connect 32 0 6 0;
#X connect 32 0 4 0;
#X connect 33 0 25 0;
#X connect 34 0 25 0;
#X connect 35 0 33 1;
