#N canvas 282 270 867 546 10;
#X obj 124 83 t b b b;
#X obj 290 138 random 10;
#X obj 275 311 f;
#X obj 210 138 random 10;
#X obj 195 311 f;
#N canvas 0 0 454 304 counter 1;
#X obj 69 45 inlet bang;
#X obj 69 251 outlet value;
#X obj 69 136 f 0;
#X obj 69 193 mod 5;
#X obj 108 135 + 1;
#X connect 0 0 2 0;
#X connect 2 0 3 0;
#X connect 2 0 4 0;
#X connect 3 0 1 0;
#X connect 4 0 2 1;
#X restore 124 179 pd counter;
#X obj 124 18 tgl 15 0 empty empty empty 0 -6 0 10 -262144 -1 -1 1
1;
#X obj 124 50 metro 500;
#X obj 124 216 sel 0;
#X obj 275 273 t b;
#X floatatom 195 393 5 0 0 1 output - -;
#X floatatom 225 173 5 0 0 1 debug - -;
#X floatatom 304 174 5 0 0 1 debug - -;
#X connect 0 0 5 0;
#X connect 0 1 3 0;
#X connect 0 2 1 0;
#X connect 1 0 2 1;
#X connect 1 0 12 0;
#X connect 2 0 10 0;
#X connect 3 0 4 1;
#X connect 3 0 11 0;
#X connect 4 0 10 0;
#X connect 5 0 8 0;
#X connect 6 0 7 0;
#X connect 7 0 0 0;
#X connect 8 0 4 0;
#X connect 8 1 9 0;
#X connect 9 0 2 0;
