#N canvas 0 22 514 345 10;
#X obj 184 34 hsl 128 15 0 1 0 0 empty empty empty -2 -8 0 10 -262144
-1 -1 12500 1;
#X obj 181 251 tgl 15 0 empty empty empty 17 7 0 10 -262144 -1 -1 0
1;
#X floatatom 181 56 5 0 0 0 - - -;
#X obj 181 165 change;
#X obj 181 188 sel 1;
#X obj 181 89 >= 0.9;
#X connect 0 0 2 0;
#X connect 2 0 5 0;
#X connect 3 0 4 0;
#X connect 4 0 1 0;
#X connect 5 0 3 0;
