#N canvas 15 341 514 345 10;
#X obj 104 44 hsl 128 15 0 1 0 0 empty empty empty -2 -8 0 10 -262144
-1 -1 12700 1;
#X obj 101 281 tgl 15 0 empty empty empty 17 7 0 10 -262144 -1 -1 1
1;
#X floatatom 101 66 5 0 0 0 - - -;
#X obj 101 175 change;
#X obj 101 198 sel 1;
#X obj 101 89 >= 0.9;
#X obj 101 134 spigot 1;
#X obj 101 238 t b b;
#X msg 128 263 0;
#X obj 316 45 hsl 128 15 0 1 0 0 empty empty empty -2 -8 0 10 -262144
-1 -1 12700 1;
#X obj 313 282 tgl 15 0 empty empty empty 17 7 0 10 -262144 -1 -1 1
1;
#X floatatom 313 67 5 0 0 0 - - -;
#X obj 313 115 change;
#X obj 313 140 sel 1;
#X obj 313 90 >= 0.9;
#X obj 313 165 once;
#X text 327 318 pd-extended;
#X text 121 320 pd-vanilla;
#X connect 0 0 2 0;
#X connect 2 0 5 0;
#X connect 3 0 4 0;
#X connect 4 0 7 0;
#X connect 5 0 6 0;
#X connect 6 0 3 0;
#X connect 7 0 1 0;
#X connect 7 1 8 0;
#X connect 8 0 6 1;
#X connect 9 0 11 0;
#X connect 11 0 14 0;
#X connect 12 0 13 0;
#X connect 13 0 15 0;
#X connect 14 0 12 0;
#X connect 15 0 10 0;
