#N canvas 1138 167 723 825 12;
#X obj 354 134 notein;
#X floatatom 287 213 5 0 0 0 - - -;
#X msg 148 239 next \$1;
#X floatatom 51 144 5 0 0 0 - - -;
#X obj 128 67 stripnote;
#X obj 133 18 notein;
#X obj 113 150 - 1;
#X obj 131 191 pack f f f;
#X obj 44 227 print tuti;
#X obj 307 462 s start;
#X floatatom 406 219 5 0 0 0 - - -;
#X floatatom 407 289 5 0 0 0 - - -;
#X obj 407 257 expr (60/$f1)*1000;
#X text 443 220 bpm;
#X text 525 259 convert to ms;
#X text 450 290 ms;
#X obj 380 334 metro;
#X obj 380 298 tgl 15 0 empty empty empty 17 7 0 10 -262144 -1 -1 0
1;
#X text 336 297 on/off;
#X text 418 334 outputs bang every 'x' ms;
#X obj 395 447 osc~ 800;
#X obj 380 491 *~;
#X obj 380 416 vline~;
#X obj 380 530 output~;
#X text 474 364 got to 1 (full volume) in 20 \, then go to zero (no
volume) in 20 ms after waiting 20 ms;
#X text 428 415 translate to audio rate signal;
#X text 458 448 generate 800 hz sine tone;
#X text 410 490 multiply sine tone by amplitude envelope;
#X obj 394 565 dac~;
#X obj 299 403 bng 45 250 50 0 empty empty empty 17 7 0 10 -262144
-1 -1;
#X obj 136 114 poly 1 1;
#X msg 379 367 1 20 \, 0 20 20;
#X obj 44 704 phasor~;
#X obj 133 816 *~;
#X obj 44 808 *~ -1;
#X obj 44 833 +~ 1;
#X obj 209 835 *~;
#X obj 133 868 min~;
#X text 56 612 Making waveforms with corners by specifying line segment
slopes;
#X floatatom 318 676 0 0 0 0 - - -;
#X text 304 676 x;
#X obj 235 649 hsl 128 15 0 1 0 0 empty empty empty -2 -8 0 10 -262144
-1 -1 11800 1;
#X obj 189 723 expr .5/$f1;
#X obj 299 723 expr .5/(1-$f1);
#X floatatom 220 747 0 0 0 0 - - -;
#X floatatom 336 748 0 0 0 0 - - -;
#X text 206 747 s;
#X text 322 748 t;
#X obj 71 922 dac~;
#X obj 73 667 vline~;
#X msg 125 635 50 20 \, 0 30 70;
#X obj 125 284 clone game-clone 4;
#X connect 0 0 1 0;
#X connect 2 0 51 0;
#X connect 5 0 4 0;
#X connect 5 1 4 1;
#X connect 6 0 7 0;
#X connect 7 0 51 0;
#X connect 10 0 12 0;
#X connect 11 0 16 1;
#X connect 12 0 11 0;
#X connect 16 0 29 0;
#X connect 16 0 9 0;
#X connect 17 0 16 0;
#X connect 20 0 21 1;
#X connect 21 0 28 0;
#X connect 21 0 28 1;
#X connect 22 0 21 0;
#X connect 30 0 3 0;
#X connect 30 0 6 0;
#X connect 30 1 7 1;
#X connect 31 0 22 0;
#X connect 32 0 33 0;
#X connect 32 0 34 0;
#X connect 33 0 37 0;
#X connect 34 0 35 0;
#X connect 35 0 36 0;
#X connect 36 0 37 1;
#X connect 37 0 48 0;
#X connect 37 0 48 1;
#X connect 41 0 39 0;
#X connect 41 0 42 0;
#X connect 41 0 43 0;
#X connect 42 0 33 1;
#X connect 42 0 44 0;
#X connect 43 0 36 1;
#X connect 43 0 45 0;
#X connect 49 0 32 0;
#X connect 50 0 49 0;
