#N canvas 0 103 1915 1025 12;
#X text 441 968 this is a note of velocity 89;
#X obj 493 1096 nbx 5 14 -1e+37 1e+37 0 0 empty empty empty 0 -8 0
10 -262144 -1 -1 0 256;
#X text 506 1128 this output the number after this delay;
#X text 558 1155 This ad a 0 after the number;
#X obj 276 1277 print;
#X text 486 1044 this keeps only the firts number in the list;
#X msg 398 969 \$1 89;
#X obj 397 1277 noteout;
#X obj 440 1125 pipe 200;
#X msg 440 1046 \$1;
#X msg 317 964 \$1 90 \$2;
#X obj 440 1208 pack f f f;
#X msg 440 1153 \$1;
#X msg 473 1163 44;
#X msg 514 1160 \$1;
#X obj 534 1250 print;
#X obj 1059 326 expr random(0 \, 8);
#X floatatom 1009 373 0 0 0 0 - - -;
#X obj 989 232 bng 40 250 50 0 empty empty empty 17 7 0 10 -228856
-1 -1;
#X obj 1216 307 expr random(13 \, 15);
#X obj 1214 339 t f b;
#X floatatom 1424 317 0 0 0 0 - - -;
#X floatatom 1480 323 0 0 0 0 - - -;
#X floatatom 1540 325 0 0 0 0 - - -;
#X floatatom 1138 1479 0 0 0 0 - - -;
#X obj 1222 1665 print;
#X obj 1138 1666 bng 40 250 50 0 empty empty empty 17 7 0 10 -4034
-1 -1;
#X obj 1197 1581 change;
#X obj 1129 1519 f 1;
#X obj 1105 1550 t f;
#X obj 1177 1629 select 1;
#X floatatom 1292 1635 0 0 0 0 - - -;
#X obj 1295 1700 spigot;
#X msg 1064 1758 \$1;
#X floatatom 1064 1797 0 0 0 0 - - -;
#X obj 1116 1737 delay 100;
#X floatatom 1305 1755 0 0 0 0 - - -;
#X floatatom 1094 459 0 0 0 0 - - -;
#X obj 1072 399 expr $f1 \; if ($f1 >= 0 \, $f2 \, $f1) \;;
#X floatatom 1220 451 0 0 0 0 - - -;
#X msg 1075 803 \$1;
#X obj 1075 882 pipe 200;
#X obj 1128 853 nbx 5 14 -1e+37 1e+37 0 0 empty empty empty 0 -8 0
10 -262144 -1 -1 1800 256;
#X obj 1033 1079 noteout;
#X msg 1075 909 \$1 0;
#X msg 1386 222 -1;
#X obj 1776 1399 1;
#X floatatom 1332 667 0 0 0 0 - - -;
#X msg 1594 1242 \$1;
#X obj 1593 1313 pipe 200;
#X obj 1646 1284 nbx 5 14 -1e+37 1e+37 0 0 empty empty empty 0 -8 0
10 -262144 -1 -1 900 256;
#X obj 1477 1388 print;
#X obj 1546 1387 noteout;
#X msg 1593 1340 \$1 0;
#X obj 1412 721 bng 40 250 50 0 empty empty empty 17 7 0 10 -4034 -1
-1;
#X obj 1723 240 bng 30 250 50 0 empty empty empty 17 7 0 10 -262144
-1 -1;
#X obj 1720 358 bng 30 250 50 0 empty empty empty 17 7 0 10 -262144
-1 -1;
#X obj 1725 318 t f;
#X floatatom 1778 363 5 0 0 0 - - -;
#X obj 1820 319 t f;
#X msg 1715 399 0, f 4;
#X obj 1815 267 delay 500;
#X obj 1832 294 f 0;
#X obj 1723 287 f 1;
#X msg 1767 398 1, f 4;
#X obj 1467 720 bng 40 250 50 0 empty empty empty 17 7 0 10 -258113
-1 -1;
#X obj 1211 727 print tuti;
#X obj 1454 246 stripnote;
#X obj 950 977 print bud;
#X obj 1376 478 ==;
#X obj 1444 382 t b f;
#X floatatom 1375 513 0 0 0 0 - - -;
#X obj 1470 478 ==;
#X obj 1537 385 t b f;
#X floatatom 1469 513 0 0 0 0 - - -;
#X obj 1329 409 bng 40 250 50 0 empty empty empty 17 7 0 10 -228856
-1 -1;
#X obj 1009 96 tgl 44 0 empty empty empty 17 7 0 10 -262144 -1 -1 0
1;
#X floatatom 1102 129 0 0 0 0 - - -;
#X obj 1009 171 metro 500;
#X obj 1194 921 bng 40 250 50 0 empty empty empty 17 7 0 10 -228856
-1 -1;
#X msg 1256 1353 \$1;
#X obj 1259 1406 pipe 200;
#X obj 1312 1377 nbx 5 14 -1e+37 1e+37 0 0 empty empty empty 0 -8 0
10 -262144 -1 -1 0 256;
#X obj 1222 1498 noteout;
#X msg 1259 1433 \$1 0;
#X obj 1134 1501 print bud;
#X obj 1363 1441 bng 40 250 50 0 empty empty empty 17 7 0 10 -228856
-1 -1;
#X msg 1213 1308 \$1 34;
#X obj 1360 569 expr if ($f1 == 1 && $f2 == 1 \, 1 \, 0) \; ($f3) \;
($f4) \;;
#X floatatom 1558 701 0 0 0 0 - - -;
#X floatatom 1612 698 0 0 0 0 - - -;
#X floatatom 1385 1078 0 0 0 0 - - -;
#X floatatom 1645 1072 0 0 0 0 - - -;
#X obj 1297 1071 bng 40 250 50 0 empty empty empty 17 7 0 10 -228856
-1 -1;
#X obj 1725 1068 bng 40 250 50 0 empty empty empty 17 7 0 10 -228856
-1 -1;
#X obj 1368 1019 expr if ($f1 == 1 && $f2 >= 0 \, $f2 \, 127) \; if
($f1 == 1 && $f3 >= 0 \, $f3 \, 127) \;;
#X msg 1539 1202 \$1 116;
#X msg 1033 726 \$1 67;
#X obj 1453 796 tgl 15 0 empty empty empty 17 7 0 10 -262144 -1 -1
0 1;
#X obj 1453 1259 bng 40 250 50 0 empty empty empty 17 7 0 10 -4034
-1 -1;
#X floatatom 1617 1165 0 0 0 0 - - -;
#X floatatom 1433 1168 0 0 0 0 - - -;
#X obj 1662 1121 expr if ($f1 != 127 \, $f1 \, 0) \; if ($f2 != 127
\, $f2 \, 0) \;;
#X msg 1519 774 0;
#X msg 1451 769 1;
#X floatatom 1342 897 0 0 0 0 - - -;
#X obj 1341 873 expr if ($f1 == 0 \, 0 \, 1);
#X obj 1352 922 tgl 15 0 empty empty empty 17 7 0 10 -262144 -1 -1
0 1;
#X obj 1424 966 bng 40 250 50 0 empty empty empty 17 7 0 10 -228856
-1 -1;
#X obj 1368 941 select 1;
#X obj 1072 360 t f b;
#X msg 1136 84 2500;
#X msg 1162 818 1800;
#X msg 1681 1238 900;
#X msg 1333 1307 1800;
#X obj 1160 32 loadbang;
#X obj 1182 759 loadbang;
#X obj 1715 1198 loadbang;
#X floatatom 944 124 0 0 0 0 - - -;
#X floatatom 1430 170 0 0 0 0 - - -;
#X floatatom 1486 169 0 0 0 0 - - -;
#X obj 1431 47 inlet;
#X obj 1428 81 unpack f f;
#X obj 1525 196 bng 40 250 50 0 empty empty empty 17 7 0 10 -228856
-1 -1;
#X obj 979 54 r start;
#X obj 1554 141 notein;
#X obj 395 447 osc~ 800;
#X obj 380 491 *~;
#X obj 380 416 vline~;
#X text 474 364 got to 1 (full volume) in 20 \, then go to zero (no
volume) in 20 ms after waiting 20 ms;
#X text 428 415 translate to audio rate signal;
#X text 458 448 generate 800 hz sine tone;
#X text 410 490 multiply sine tone by amplitude envelope;
#X obj 394 565 dac~;
#X msg 379 367 1 20 \, 0 20 20;
#X obj 478 676 phasor~;
#X obj 567 788 *~;
#X obj 478 780 *~ -1;
#X obj 478 805 +~ 1;
#X obj 643 807 *~;
#X obj 567 840 min~;
#X text 490 584 Making waveforms with corners by specifying line segment
slopes;
#X floatatom 752 648 0 0 0 0 - - -;
#X text 738 648 x;
#X obj 669 621 hsl 128 15 0 1 0 0 empty empty empty -2 -8 0 10 -262144
-1 -1 12200 1;
#X obj 623 695 expr .5/$f1;
#X obj 733 695 expr .5/(1-$f1);
#X floatatom 654 719 0 0 0 0 - - -;
#X floatatom 770 720 0 0 0 0 - - -;
#X text 640 719 s;
#X text 756 720 t;
#X obj 505 894 dac~;
#X obj 507 639 vline~;
#X msg 559 607 50 20 \, 0 30 70;
#X obj 1407 691 route 1 0;
#X msg 1372 981 1;
#X connect 1 0 8 1;
#X connect 6 0 9 0;
#X connect 6 0 4 0;
#X connect 6 0 7 0;
#X connect 8 0 12 0;
#X connect 9 0 8 0;
#X connect 10 0 7 0;
#X connect 10 0 4 0;
#X connect 10 0 9 0;
#X connect 11 0 15 0;
#X connect 11 0 7 0;
#X connect 12 0 4 0;
#X connect 12 0 11 0;
#X connect 13 0 11 1;
#X connect 14 0 11 2;
#X connect 16 0 17 0;
#X connect 16 0 45 0;
#X connect 16 0 110 0;
#X connect 18 0 16 0;
#X connect 18 0 19 0;
#X connect 19 0 20 0;
#X connect 19 0 38 1;
#X connect 21 0 70 0;
#X connect 23 0 73 0;
#X connect 24 0 28 0;
#X connect 26 0 35 0;
#X connect 27 0 30 0;
#X connect 27 0 31 0;
#X connect 28 0 29 0;
#X connect 29 0 27 0;
#X connect 30 0 26 0;
#X connect 30 0 25 0;
#X connect 31 0 32 1;
#X connect 32 0 36 0;
#X connect 33 0 34 0;
#X connect 34 0 32 0;
#X connect 35 0 34 0;
#X connect 37 0 69 0;
#X connect 37 0 97 0;
#X connect 38 0 37 0;
#X connect 38 1 39 0;
#X connect 39 0 72 0;
#X connect 39 0 43 2;
#X connect 40 0 41 0;
#X connect 41 0 44 0;
#X connect 41 0 79 0;
#X connect 42 0 41 1;
#X connect 44 0 43 0;
#X connect 44 0 68 0;
#X connect 45 0 21 0;
#X connect 45 0 22 0;
#X connect 45 0 23 0;
#X connect 47 0 66 0;
#X connect 47 0 106 0;
#X connect 47 0 154 0;
#X connect 48 0 49 0;
#X connect 49 0 53 0;
#X connect 50 0 49 1;
#X connect 53 0 51 0;
#X connect 53 0 52 0;
#X connect 54 0 104 0;
#X connect 54 0 134 0;
#X connect 55 0 61 0;
#X connect 55 0 63 0;
#X connect 56 0 60 0;
#X connect 57 0 56 0;
#X connect 57 0 58 0;
#X connect 58 0 64 0;
#X connect 59 0 58 0;
#X connect 61 0 56 0;
#X connect 61 0 62 0;
#X connect 62 0 59 0;
#X connect 63 0 57 0;
#X connect 65 0 103 0;
#X connect 65 0 153 0;
#X connect 67 0 21 0;
#X connect 67 1 22 0;
#X connect 69 0 71 0;
#X connect 70 0 69 0;
#X connect 70 1 69 1;
#X connect 70 1 88 2;
#X connect 71 0 88 0;
#X connect 72 0 74 0;
#X connect 73 0 72 0;
#X connect 73 1 72 1;
#X connect 73 1 88 3;
#X connect 74 0 88 1;
#X connect 75 0 69 0;
#X connect 75 0 72 0;
#X connect 76 0 78 0;
#X connect 77 0 78 1;
#X connect 80 0 81 0;
#X connect 81 0 84 0;
#X connect 81 0 86 0;
#X connect 82 0 81 1;
#X connect 84 0 83 0;
#X connect 84 0 85 0;
#X connect 87 0 80 0;
#X connect 87 0 85 0;
#X connect 87 0 83 0;
#X connect 88 0 47 0;
#X connect 88 1 89 0;
#X connect 88 2 90 0;
#X connect 89 0 95 1;
#X connect 90 0 95 2;
#X connect 91 0 101 0;
#X connect 92 0 100 0;
#X connect 95 0 91 0;
#X connect 95 0 93 0;
#X connect 95 1 92 0;
#X connect 95 1 94 0;
#X connect 96 0 48 0;
#X connect 96 0 51 0;
#X connect 96 0 52 0;
#X connect 96 0 99 0;
#X connect 97 0 40 0;
#X connect 97 0 68 0;
#X connect 97 0 43 0;
#X connect 100 0 52 2;
#X connect 101 0 96 0;
#X connect 103 0 98 0;
#X connect 104 0 98 0;
#X connect 105 0 107 0;
#X connect 106 0 105 0;
#X connect 107 0 109 0;
#X connect 109 0 108 0;
#X connect 109 0 155 0;
#X connect 110 0 38 0;
#X connect 111 0 77 0;
#X connect 112 0 42 0;
#X connect 113 0 50 0;
#X connect 115 0 111 0;
#X connect 116 0 112 0;
#X connect 117 0 113 0;
#X connect 119 0 21 0;
#X connect 120 0 23 0;
#X connect 121 0 122 0;
#X connect 122 0 119 0;
#X connect 122 0 123 0;
#X connect 122 1 120 0;
#X connect 124 0 18 0;
#X connect 125 0 67 0;
#X connect 125 1 67 1;
#X connect 125 2 23 0;
#X connect 126 0 127 1;
#X connect 127 0 133 0;
#X connect 127 0 133 1;
#X connect 128 0 127 0;
#X connect 134 0 128 0;
#X connect 135 0 136 0;
#X connect 135 0 137 0;
#X connect 136 0 140 0;
#X connect 137 0 138 0;
#X connect 138 0 139 0;
#X connect 139 0 140 1;
#X connect 140 0 151 0;
#X connect 140 0 151 1;
#X connect 144 0 142 0;
#X connect 144 0 145 0;
#X connect 144 0 146 0;
#X connect 145 0 136 1;
#X connect 145 0 147 0;
#X connect 146 0 139 1;
#X connect 146 0 148 0;
#X connect 152 0 135 0;
#X connect 153 0 152 0;
#X connect 154 0 54 0;
#X connect 154 1 65 0;
#X connect 155 0 95 0;
