#N canvas 0 63 1920 1101 12;
#X obj 86 1087 tgl 15 0 empty empty empty 0 -6 0 8 -262144 -1 -1 1
1;
#X msg 106 1087 bang;
#X obj 85 1200 tgl 15 0 empty empty empty 17 7 0 10 -262144 -1 -1 1
1;
#X obj 172 1088 tgl 15 0 empty empty empty 0 -6 0 8 -262144 -1 -1 1
1;
#X msg 201 1086 bang;
#X obj 171 1201 tgl 15 0 empty empty empty 17 7 0 10 -262144 -1 -1
1 1;
#X obj 258 1087 tgl 15 0 empty empty empty 0 -6 0 8 -262144 -1 -1 0
1;
#X msg 278 1087 bang;
#X obj 257 1200 tgl 15 0 empty empty empty 17 7 0 10 -262144 -1 -1
0 1;
#X obj 517 1088 tgl 15 0 empty empty empty 0 -6 0 8 -262144 -1 -1 0
1;
#X msg 537 1088 bang;
#X obj 516 1201 tgl 15 0 empty empty empty 17 7 0 10 -262144 -1 -1
0 1;
#X obj 603 1087 tgl 15 0 empty empty empty 0 -6 0 8 -262144 -1 -1 0
1;
#X msg 623 1087 bang;
#X obj 602 1200 tgl 15 0 empty empty empty 17 7 0 10 -262144 -1 -1
0 1;
#X obj 690 1087 tgl 15 0 empty empty empty 0 -6 0 8 -262144 -1 -1 0
1;
#X msg 710 1087 bang;
#X obj 689 1200 tgl 15 0 empty empty empty 17 7 0 10 -262144 -1 -1
0 1;
#N canvas 697 265 1046 713 pad06 0;
#X obj 109 191 s pd;
#X obj 84 41 r pd;
#X obj 109 151 tgl 15 0 empty empty empty 0 -6 0 8 -262144 -1 -1 0
1;
#X obj 16 116 hradio 55 1 0 1 empty empty empty 0 -6 0 8 -262144 -1
-1 0;
#X obj 14 111 cnv 15 60 60 empty \$0-pad06-A PAD06-A 6 8 0 12 -258699
-1 0;
#X msg 84 81 set \$1;
#X obj 195 168 sel 0;
#X obj 94 110 inlet;
#X obj 16 79 bang;
#X obj 89 228 outlet;
#X text 12 10 [pad06-A] - RANE 72 Pad;
#X obj 84 61 route pad06-A;
#X msg 108 171 pad06-A \$1;
#X msg 195 188 label PAD06-A \, color 43 22;
#X msg 225 208 label PAD06-A \, color 48 12;
#X obj 195 228 s \$0-pad06-A;
#X connect 1 0 11 0;
#X connect 2 0 6 0;
#X connect 2 0 9 0;
#X connect 2 0 12 0;
#X connect 3 0 8 0;
#X connect 5 0 2 0;
#X connect 6 0 13 0;
#X connect 6 1 14 0;
#X connect 7 0 2 0;
#X connect 8 0 2 0;
#X connect 11 0 5 0;
#X connect 11 0 6 0;
#X connect 12 0 0 0;
#X connect 13 0 15 0;
#X connect 14 0 15 0;
#X coords 0 -1 1 1 60 60 1 14 111;
#X restore 520 1130 pd pad06;
#N canvas 680 117 1046 713 pad08 0;
#X obj 109 191 s pd;
#X obj 84 41 r pd;
#X obj 109 151 tgl 15 0 empty empty empty 0 -6 0 8 -262144 -1 -1 0
1;
#X obj 16 116 hradio 55 1 0 1 empty empty empty 0 -6 0 8 -262144 -1
-1 0;
#X obj 14 111 cnv 15 60 60 empty \$0-pad08-A PAD08-A 6 8 0 12 -258699
-1 0;
#X msg 84 81 set \$1;
#X obj 195 168 sel 0;
#X obj 94 110 inlet;
#X obj 16 79 bang;
#X obj 89 228 outlet;
#X text 12 10 [pad08-A] - RANE 72 Pad;
#X obj 84 61 route pad08-A;
#X msg 108 171 pad08-A \$1;
#X msg 195 188 label PAD08-A \, color 43 22;
#X msg 225 208 label PAD08-A \, color 48 12;
#X obj 195 228 s \$0-pad08-A;
#X connect 1 0 11 0;
#X connect 2 0 6 0;
#X connect 2 0 9 0;
#X connect 2 0 12 0;
#X connect 3 0 8 0;
#X connect 5 0 2 0;
#X connect 6 0 13 0;
#X connect 6 1 14 0;
#X connect 7 0 2 0;
#X connect 8 0 2 0;
#X connect 11 0 5 0;
#X connect 11 0 6 0;
#X connect 12 0 0 0;
#X connect 13 0 15 0;
#X connect 14 0 15 0;
#X coords 0 -1 1 1 60 60 1 14 111;
#X restore 693 1129 pd pad08;
#X obj 137 1236 sel 0 1;
#X obj 237 1239 sel 0 1;
#X obj 316 1239 sel 0 1;
#X obj 393 1238 sel 0 1;
#X obj 474 1238 sel 0 1;
#X obj 572 1236 sel 0 1;
#X obj 656 1236 sel 0 1;
#X obj 1778 2 notein;
#X floatatom 1733 56 5 0 0 0 - - -;
#X floatatom 1782 54 5 0 0 0 - - -;
#X floatatom 1828 51 5 0 0 0 - - -;
#X obj 1791 83 s vel;
#X obj 1729 85 s note;
#X obj 1843 82 s chan;
#X obj 399 -389 bang;
#X obj 83 -343 r note;
#X obj 142 -343 r vel;
#X obj 201 -342 r chan;
#X obj 93 -310 stripnote;
#X floatatom 74 945 5 0 0 0 - - -;
#X obj 34 -37 expr if ($f1 == 0 && $f2 == 13 \, 1 \, 0) \;;
#X floatatom 98 -282 5 0 0 0 - - -;
#X floatatom 204 -289 5 0 0 0 - - -;
#X obj 101 1037 bng 15 250 50 0 empty empty empty 17 7 0 10 -258113
-1 -1;
#X obj 104 985 sel 0 1;
#X obj 124 1036 bng 15 250 50 0 empty empty empty 17 7 0 10 -4034 -1
-1;
#N canvas 629 284 1046 713 pad1A 0;
#X obj 105 210 s pd;
#X obj 84 41 r pd;
#X obj 109 151 tgl 15 0 empty empty empty 0 -6 0 8 -262144 -1 -1 1
1;
#X obj 18 114 hradio 55 1 0 1 empty empty empty 0 -6 0 8 -262144 -1
-1 0;
#X obj 14 111 cnv 15 60 60 empty \$0-pad01-A PAD01-A 6 8 0 12 -62784
-1 0;
#X msg 84 81 set \$1;
#X obj 188 172 sel 0;
#X obj 94 110 inlet;
#X obj 16 79 bang;
#X obj 87 235 outlet;
#X obj 84 61 route pad01-A;
#X obj 188 232 s \$0-pad01-A;
#X msg 111 180 pad01-A \$1;
#X text 12 10 [pad01-A] - RANE 72 Pad;
#X msg 188 192 label PAD01-A \, color 43 22;
#X msg 218 212 label PAD01-A \, color 48 12;
#X connect 1 0 10 0;
#X connect 2 0 6 0;
#X connect 2 0 12 0;
#X connect 2 0 9 0;
#X connect 3 0 8 0;
#X connect 5 0 2 0;
#X connect 6 0 14 0;
#X connect 6 1 15 0;
#X connect 7 0 2 0;
#X connect 8 0 2 0;
#X connect 10 0 5 0;
#X connect 10 0 6 0;
#X connect 12 0 0 0;
#X connect 14 0 11 0;
#X connect 15 0 11 0;
#X coords 0 -1 1 1 60 60 1 14 111;
#X restore 89 1127 pd pad1A;
#N canvas 680 117 1046 713 pad2A 0;
#X obj 109 191 s pd;
#X obj 84 41 r pd;
#X obj 109 151 tgl 15 0 empty empty empty 0 -6 0 8 -262144 -1 -1 1
1;
#X obj 15 116 hradio 55 1 0 1 empty empty empty 0 -6 0 8 -262144 -1
-1 0;
#X obj 14 111 cnv 15 60 60 empty \$0-pad02-A PAD02-A 6 8 0 12 -62784
-1 0;
#X msg 84 81 set \$1;
#X obj 189 162 sel 0;
#X obj 94 110 inlet;
#X obj 16 79 bang;
#X obj 89 228 outlet;
#X obj 84 61 route pad02-A;
#X obj 171 228 s \$0-pad02-A;
#X msg 107 171 pad02-A \$1;
#X msg 219 202 label PAD02-A \, color 48 12;
#X msg 189 182 label PAD02-A \, color 43 22;
#X text 12 10 [pad02-A] - RANE 72 Pad;
#X connect 1 0 10 0;
#X connect 2 0 6 0;
#X connect 2 0 9 0;
#X connect 2 0 12 0;
#X connect 3 0 8 0;
#X connect 5 0 2 0;
#X connect 6 0 14 0;
#X connect 6 1 13 0;
#X connect 7 0 2 0;
#X connect 8 0 2 0;
#X connect 10 0 5 0;
#X connect 10 0 6 0;
#X connect 12 0 0 0;
#X connect 13 0 11 0;
#X connect 14 0 11 0;
#X coords 0 -1 1 1 60 60 1 14 111;
#X restore 177 1128 pd pad2A;
#N canvas 680 117 1046 713 pad3A 0;
#X obj 109 191 s pd;
#X obj 84 41 r pd;
#X obj 109 151 tgl 15 0 empty empty empty 0 -6 0 8 -262144 -1 -1 0
1;
#X obj 16 116 hradio 55 1 0 1 empty empty empty 0 -6 0 8 -262144 -1
-1 0;
#X obj 14 111 cnv 15 60 60 empty \$0-pad03-A PAD03-A 6 8 0 12 -258699
-1 0;
#X msg 84 81 set \$1;
#X obj 194 165 sel 0;
#X obj 94 110 inlet;
#X obj 16 79 bang;
#X obj 89 228 outlet;
#X text 12 10 [pad03-A] - RANE 72 Pad;
#X obj 84 61 route pad03-A;
#X msg 108 171 pad03-A \$1;
#X msg 194 185 label PAD03-A \, color 43 22;
#X msg 224 205 label PAD03-A \, color 48 12;
#X obj 194 225 s \$0-pad03-A;
#X connect 1 0 11 0;
#X connect 2 0 6 0;
#X connect 2 0 9 0;
#X connect 2 0 12 0;
#X connect 3 0 8 0;
#X connect 5 0 2 0;
#X connect 6 0 13 0;
#X connect 6 1 14 0;
#X connect 7 0 2 0;
#X connect 8 0 2 0;
#X connect 11 0 5 0;
#X connect 11 0 6 0;
#X connect 12 0 0 0;
#X connect 13 0 15 0;
#X connect 14 0 15 0;
#X coords 0 -1 1 1 60 60 1 14 111;
#X restore 260 1129 pd pad3A;
#N canvas 680 117 1046 713 pad7A 0;
#X obj 109 191 s pd;
#X obj 84 41 r pd;
#X obj 109 151 tgl 15 0 empty empty empty 0 -6 0 8 -262144 -1 -1 0
1;
#X obj 14 116 hradio 55 1 0 1 empty empty empty 0 -6 0 8 -262144 -1
-1 0;
#X obj 14 111 cnv 15 60 60 empty \$0-pad07-A PAD07-A 6 8 0 12 -258699
-1 0;
#X msg 84 81 set \$1;
#X obj 185 168 sel 0;
#X obj 94 110 inlet;
#X obj 16 79 bang;
#X obj 89 228 outlet;
#X text 12 10 [pad07-A] - RANE 72 Pad;
#X msg 185 188 label PAD07-A \, color 43 22;
#X msg 215 208 label PAD07-A \, color 48 12;
#X obj 185 228 s \$0-pad07-A;
#X msg 108 171 pad07-A \$1;
#X obj 84 61 route pad07-A;
#X connect 1 0 15 0;
#X connect 2 0 6 0;
#X connect 2 0 9 0;
#X connect 2 0 14 0;
#X connect 3 0 8 0;
#X connect 5 0 2 0;
#X connect 6 0 11 0;
#X connect 6 1 12 0;
#X connect 7 0 2 0;
#X connect 8 0 2 0;
#X connect 11 0 13 0;
#X connect 12 0 13 0;
#X connect 14 0 0 0;
#X connect 15 0 5 0;
#X connect 15 0 6 0;
#X coords 0 -1 1 1 60 60 1 14 111;
#X restore 605 1130 pd pad7A;
#X obj 433 1088 tgl 15 0 empty empty empty 0 -6 0 8 -262144 -1 -1 0
1;
#X msg 453 1088 bang;
#X obj 432 1201 tgl 15 0 empty empty empty 17 7 0 10 -262144 -1 -1
0 1;
#N canvas 697 265 1046 713 pad5A 0;
#X obj 109 191 s pd;
#X obj 84 41 r pd;
#X obj 109 151 tgl 15 0 empty empty empty 0 -6 0 8 -262144 -1 -1 0
1;
#X obj 16 116 hradio 55 1 0 1 empty empty empty 0 -6 0 8 -262144 -1
-1 0;
#X obj 14 111 cnv 15 60 60 empty \$0-pad05-A PAD05-A 6 8 0 12 -258699
-1 0;
#X msg 84 81 set \$1;
#X obj 195 168 sel 0;
#X obj 94 110 inlet;
#X obj 16 79 bang;
#X obj 89 228 outlet;
#X text 12 10 [pad05-A] - RANE 72 Pad;
#X obj 84 61 route pad05-A;
#X msg 108 171 pad05-A \$1;
#X msg 195 188 label PAD05-A \, color 43 22;
#X msg 225 208 label PAD05-A \, color 48 12;
#X obj 195 228 s \$0-pad05-A;
#X connect 1 0 11 0;
#X connect 2 0 6 0;
#X connect 2 0 9 0;
#X connect 2 0 12 0;
#X connect 3 0 8 0;
#X connect 5 0 2 0;
#X connect 6 0 13 0;
#X connect 6 1 14 0;
#X connect 7 0 2 0;
#X connect 8 0 2 0;
#X connect 11 0 5 0;
#X connect 11 0 6 0;
#X connect 12 0 0 0;
#X connect 13 0 15 0;
#X connect 14 0 15 0;
#X coords 0 -1 1 1 60 60 1 14 111;
#X restore 436 1130 pd pad5A;
#X obj 345 1086 tgl 15 0 empty empty empty 0 -6 0 8 -262144 -1 -1 0
1;
#X msg 365 1086 bang;
#X obj 344 1199 tgl 15 0 empty empty empty 17 7 0 10 -262144 -1 -1
0 1;
#N canvas 697 265 1046 713 pad4A 0;
#X obj 109 191 s pd;
#X obj 84 41 r pd;
#X obj 109 151 tgl 15 0 empty empty empty 0 -6 0 8 -262144 -1 -1 0
1;
#X obj 16 116 hradio 55 1 0 1 empty empty empty 0 -6 0 8 -262144 -1
-1 0;
#X obj 14 111 cnv 15 60 60 empty \$0-pad04-A PAD04-A 6 8 0 12 -258699
-1 0;
#X msg 84 81 set \$1;
#X obj 195 168 sel 0;
#X obj 94 110 inlet;
#X obj 16 79 bang;
#X obj 89 228 outlet;
#X text 12 10 [pad04-A] - RANE 72 Pad;
#X obj 84 61 route pad04-A;
#X msg 108 171 pad04-A \$1;
#X obj 195 228 s \$0-pad04-A;
#X msg 195 188 label PAD04-A \, color 43 22;
#X msg 225 208 label PAD04-A \, color 48 12;
#X connect 1 0 11 0;
#X connect 2 0 6 0;
#X connect 2 0 9 0;
#X connect 2 0 12 0;
#X connect 3 0 8 0;
#X connect 5 0 2 0;
#X connect 6 0 14 0;
#X connect 6 1 15 0;
#X connect 7 0 2 0;
#X connect 8 0 2 0;
#X connect 11 0 5 0;
#X connect 11 0 6 0;
#X connect 12 0 0 0;
#X connect 14 0 13 0;
#X connect 15 0 13 0;
#X coords 0 -1 1 1 60 60 1 14 111;
#X restore 348 1128 pd pad4A;
#X floatatom 117 945 5 0 0 0 - - -;
#X obj 167 1038 bng 15 250 50 0 empty empty empty 17 7 0 10 -258113
-1 -1;
#X obj 170 986 sel 0 1;
#X obj 189 1037 bng 15 250 50 0 empty empty empty 17 7 0 10 -4034 -1
-1;
#X obj 39 28 expr if ($f1 == 1 && $f2 == 13 \, 1 \, 0) \;;
#X floatatom 159 947 5 0 0 0 - - -;
#X obj 47 92 expr if ($f1 == 2 && $f2 == 13 \, 1 \, 0) \;;
#X obj 225 1038 bng 15 250 50 0 empty empty empty 17 7 0 10 -258113
-1 -1;
#X obj 228 986 sel 0 1;
#X obj 247 1037 bng 15 250 50 0 empty empty empty 17 7 0 10 -4034 -1
-1;
#X floatatom 202 946 5 0 0 0 - - -;
#X obj 288 1039 bng 15 250 50 0 empty empty empty 17 7 0 10 -258113
-1 -1;
#X obj 291 987 sel 0 1;
#X obj 310 1038 bng 15 250 50 0 empty empty empty 17 7 0 10 -4034 -1
-1;
#X floatatom 247 946 5 0 0 0 - - -;
#X obj 350 1038 bng 15 250 50 0 empty empty empty 17 7 0 10 -258113
-1 -1;
#X obj 353 986 sel 0 1;
#X obj 372 1037 bng 15 250 50 0 empty empty empty 17 7 0 10 -4034 -1
-1;
#X obj 416 1039 bng 15 250 50 0 empty empty empty 17 7 0 10 -258113
-1 -1;
#X obj 419 987 sel 0 1;
#X obj 438 1038 bng 15 250 50 0 empty empty empty 17 7 0 10 -4034 -1
-1;
#X obj 50 147 expr if ($f1 == 3 && $f2 == 13 \, 1 \, 0) \;;
#X obj 56 202 expr if ($f1 == 4 && $f2 == 13 \, 1 \, 0) \;;
#X obj 61 263 expr if ($f1 == 5 && $f2 == 13 \, 1 \, 0) \;;
#X obj 67 323 expr if ($f1 == 6 && $f2 == 13 \, 1 \, 0) \;;
#X floatatom 296 946 5 0 0 0 - - -;
#X floatatom 344 946 5 0 0 0 - - -;
#X obj 479 1041 bng 15 250 50 0 empty empty empty 17 7 0 10 -258113
-1 -1;
#X obj 482 989 sel 0 1;
#X obj 501 1040 bng 15 250 50 0 empty empty empty 17 7 0 10 -4034 -1
-1;
#X obj 71 386 expr if ($f1 == 7 && $f2 == 13 \, 1 \, 0) \;;
#X floatatom 392 947 5 0 0 0 - - -;
#X obj 546 1043 bng 15 250 50 0 empty empty empty 17 7 0 10 -258113
-1 -1;
#X obj 549 991 sel 0 1;
#X obj 568 1042 bng 15 250 50 0 empty empty empty 17 7 0 10 -4034 -1
-1;
#N canvas 640 156 733 184 random_sec 0;
#X obj 26 25 inlet;
#X obj 26 71 random 2;
#X obj 86 71 random 2;
#X obj 146 71 random 2;
#X obj 206 71 random 2;
#X obj 265 71 random 2;
#X obj 325 71 random 2;
#X obj 385 71 random 2;
#X obj 445 71 random 2;
#X obj 26 107 pack 0 0 0 0 0 0 0 0;
#X obj 26 132 outlet;
#X connect 0 0 1 0;
#X connect 0 0 2 0;
#X connect 0 0 3 0;
#X connect 0 0 4 0;
#X connect 0 0 5 0;
#X connect 0 0 6 0;
#X connect 0 0 7 0;
#X connect 0 0 8 0;
#X connect 1 0 9 0;
#X connect 2 0 9 1;
#X connect 3 0 9 2;
#X connect 4 0 9 3;
#X connect 5 0 9 4;
#X connect 6 0 9 5;
#X connect 7 0 9 6;
#X connect 8 0 9 7;
#X connect 9 0 10 0;
#X restore 1572 62 pd random_sec;
#X obj 1586 -7 bng 15 250 50 0 empty empty empty 17 7 0 10 -262144
-1 -1;
#X obj 1567 122 unpack 0 0 0 0 0 0 0 0;
#X obj 1301 -177 bng 30 250 50 0 empty empty empty 17 7 0 10 -262144
-1 -1;
#X floatatom 1207 -46 5 0 0 0 - - -;
#X floatatom 1291 -45 5 0 0 0 - - -;
#X floatatom 1368 -44 5 0 0 0 - - -;
#X obj 1214 10 t f;
#X obj 1232 130 array set RanePadArray;
#N canvas 0 50 450 250 (subpatch) 0;
#X array RanePadArray 16 float 1;
#A 0 1 2 10 13 0 0 0 0 0 0 0 0 0 0 0 0;
#X coords 0 1 16 -1 200 140 1;
#X restore 1685 164 graph;
#X floatatom 1341 82 5 0 0 0 - - -;
#X msg 1387 96 0 0 0 0 0 0 0 0 0 0 0 0 0 0 0 0;
#X obj 720 -248 bng 15 250 50 0 empty empty empty 17 7 0 10 -262144
-1 -1;
#X obj 683 -207 array get RanePadArray;
#X floatatom 685 -121 5 0 0 0 - - -;
#X floatatom 738 -121 5 0 0 0 - - -;
#X floatatom 789 -119 5 0 0 0 - - -;
#X floatatom 760 -248 5 0 0 0 - - -;
#X obj 851 -178 print;
#X obj 51 1239 sel 0 1;
#X obj 44 2732 bng 30 250 50 0 empty empty empty 17 7 0 10 -262144
-1 -1;
#X msg 8 2788 0;
#X msg 47 2790 1;
#X msg 83 2793 2;
#X msg 131 2792 3;
#X msg 170 2792 4;
#X msg 208 2792 5;
#X msg 248 2790 6;
#X msg 290 2790 7;
#X floatatom 163 2689 5 0 0 0 - - -;
#X msg 167 2652 48, f 4;
#X obj 222 2458 &&;
#X obj 186 2565 bng 30 250 50 0 empty empty empty 17 7 0 10 -262144
-1 -1;
#X floatatom 195 2484 5 0 0 0 - - -;
#X obj 249 2385 >= 1;
#X obj 183 2525 sel 1;
#X obj 184 2347 r note;
#X obj 243 2347 r vel;
#X obj 302 2348 r chan;
#X obj 192 2383 == 66;
#X obj 295 2383 == 5;
#X obj 237 2556 s top_buttons;
#X obj 242 2415 t b f;
#X obj 36 2959 noteout 13;
#X obj 263 2614 loadbang;
#X obj 166 2612 delay 500;
#X msg 1367 2709 66, f 4;
#X obj 1308 2889 noteout 5, f 14;
#X obj 1472 2608 bng 30 250 50 0 empty empty empty 17 7 0 10 -262144
-1 -1;
#X obj 1426 2890 noteout 5, f 14;
#X msg 1430 2709 67, f 4;
#X obj 1404 2402 bng 30 250 50 0 empty empty empty 17 7 0 10 -262144
-1 -1;
#X floatatom 1383 2533 5 0 0 0 - - -;
#X msg 1389 2488 48, f 4;
#X obj 1397 2447 delay 100;
#X floatatom 1449 2536 5 0 0 0 - - -;
#X floatatom 1515 2534 5 0 0 0 - - -;
#X obj 1548 2887 noteout 5, f 14;
#X msg 1509 2710 68, f 4;
#X obj 1399 2610 bng 30 250 50 0 empty empty empty 17 7 0 10 -262144
-1 -1;
#X obj 1556 2604 bng 30 250 50 0 empty empty empty 17 7 0 10 -262144
-1 -1;
#X msg 1521 2489 83, f 4;
#X floatatom 1607 2535 5 0 0 0 - - -;
#X obj 1662 2885 noteout 5, f 14;
#X obj 1644 2603 bng 30 250 50 0 empty empty empty 17 7 0 10 -262144
-1 -1;
#X msg 1626 2709 69, f 4;
#X msg 1595 2488 28, f 4;
#X floatatom 1718 2535 5 0 0 0 - - -;
#X obj 1773 2885 noteout 5, f 14;
#X obj 1755 2603 bng 30 250 50 0 empty empty empty 17 7 0 10 -262144
-1 -1;
#X msg 1681 2487 13, f 4;
#X msg 1737 2709 70, f 4;
#X obj 1314 2935 noteout 6, f 14;
#X obj 1432 2936 noteout 6, f 14;
#X obj 1554 2933 noteout 6, f 14;
#X obj 1668 2931 noteout 6, f 14;
#X obj 1779 2931 noteout 6, f 14;
#X msg 1428 2326 Top Buttons;
#X obj 1397 2366 r top_buttons;
#X msg 1359 2969 Parameter Buttons;
#X obj 1515 2397 delay 500;
#X msg 1455 2490 67, f 4;
#X obj 1553 2438 loadbang;
#X msg 857 -287 1;
#X msg 894 -285 2;
#X msg 932 -285 3;
#X text 1037 -292 Number of pads to light!;
#X floatatom 837 -119 5 0 0 0 - - -;
#X obj 686 -166 unpack f f f f;
#X obj 518 -46 expr if ($f1 == 0 || $f2 == 0 || $f3 == 0 || $f4 ==
0 \, 1 \, 0) \;, f 63;
#X obj 537 -23 expr if ($f1 == 1 || $f2 == 1 || $f3 == 1 || $f4 ==
1 \, 1 \, 0) \;, f 62;
#X obj 548 1 expr if ($f1 == 2 || $f2 == 2 || $f3 == 2 || $f4 == 2
\, 1 \, 0) \;, f 63;
#X obj 556 24 expr if ($f1 == 3 || $f2 == 3 || $f3 == 3 || $f4 == 3
\, 1 \, 0) \;, f 63;
#X obj 562 45 expr if ($f1 == 4 || $f2 == 4 || $f3 == 4 || $f4 == 4
\, 1 \, 0) \;, f 63;
#X obj 570 67 expr if ($f1 == 5 || $f2 == 5 || $f3 == 5 || $f4 == 5
\, 1 \, 0) \;, f 63;
#X obj 577 89 expr if ($f1 == 6 || $f2 == 6 || $f3 == 6 || $f4 == 6
\, 1 \, 0) \;, f 63;
#X obj 584 111 expr if ($f1 == 7 || $f2 == 7 || $f3 == 7 || $f4 ==
7 \, 1 \, 0) \;, f 63;
#X floatatom 1420 -47 5 0 0 0 - - -;
#X obj 1253 58 pack f f f f;
#X msg 972 -284 4;
#X obj 35 -60 spigot;
#X obj 39 7 spigot;
#X obj 45 68 spigot;
#X obj 49 126 spigot;
#X obj 54 180 spigot;
#X obj 59 237 spigot;
#X obj 65 302 spigot;
#X obj 70 365 spigot;
#X obj 1373 670 phasor~;
#X obj 1462 782 *~;
#X obj 1373 774 *~ -1;
#X obj 1373 799 +~ 1;
#X obj 1538 801 *~;
#X obj 1462 834 min~;
#X text 1385 578 Making waveforms with corners by specifying line segment
slopes;
#X floatatom 1647 642 0 0 0 0 - - -;
#X text 1633 642 x;
#X obj 1564 615 hsl 128 15 0 1 0 0 empty empty empty -2 -8 0 10 -262144
-1 -1 200 1;
#X obj 1518 689 expr .5/$f1;
#X obj 1628 689 expr .5/(1-$f1);
#X floatatom 1549 713 0 0 0 0 - - -;
#X floatatom 1665 714 0 0 0 0 - - -;
#X text 1535 713 s;
#X text 1651 714 t;
#X obj 1400 888 dac~;
#X obj 1402 633 vline~;
#X msg 1452 601 50 20 \, 0 30 70;
#X obj 611 2016 bng 15 250 50 0 empty empty empty 17 7 0 10 -258113
-1 -1;
#X obj 1355 543 bang;
#X obj 601 2126 osc~ 800;
#X obj 586 2170 *~;
#X obj 586 2095 vline~;
#X text 680 2043 got to 1 (full volume) in 20 \, then go to zero (no
volume) in 20 ms after waiting 20 ms;
#X text 634 2094 translate to audio rate signal;
#X text 664 2127 generate 800 hz sine tone;
#X text 616 2169 multiply sine tone by amplitude envelope;
#X obj 600 2244 dac~;
#X msg 585 2046 1 20 \, 0 20 20;
#X floatatom 76 -210 5 0 0 0 - - -;
#X obj 83 -178 +;
#X floatatom 84 -149 5 0 0 0 - - -;
#X obj 72 -236 expr if ($f1 == 14 \, 8 \, 0) \;, f 29;
#X floatatom 1244 431 5 0 0 0 - - -;
#X obj 1258 466 sel 0 1;
#X obj 1281 498 bng 15 250 50 0 empty empty empty 17 7 0 10 -4034 -1
-1;
#X obj 1245 495 bng 15 250 50 0 empty empty empty 17 7 0 10 -258113
-1 -1;
#X obj 1232 386 expr if ($f1 == $f2 || $f1 == $f3 || $f1 == $f4 ||
$f1 == $f5 \, 1 \, 0) \;, f 71;
#X msg 878 -245 99;
#X msg 919 -245 99;
#X msg 957 -246 99;
#X obj 1325 -337 tgl 60 0 empty empty empty 17 7 0 10 -262144 -1 -1
1 1;
#X obj 1311 -232 metro 2000;
#X obj 454 2740 bng 30 250 50 0 empty empty empty 17 7 0 10 -262144
-1 -1;
#X msg 457 2798 1;
#X msg 493 2801 2;
#X msg 541 2800 3;
#X msg 580 2800 4;
#X msg 618 2800 5;
#X msg 658 2798 6;
#X msg 700 2798 7;
#X floatatom 573 2697 5 0 0 0 - - -;
#X msg 577 2658 48, f 4;
#X obj 576 2620 delay 500;
#X obj 632 2466 &&;
#X obj 596 2573 bng 30 250 50 0 empty empty empty 17 7 0 10 -262144
-1 -1;
#X floatatom 637 2500 5 0 0 0 - - -;
#X obj 659 2393 >= 1;
#X obj 631 2534 sel 1;
#X obj 594 2355 r note;
#X obj 653 2355 r vel;
#X obj 712 2356 r chan;
#X obj 602 2391 == 66;
#X obj 645 2573 s top_buttons;
#X obj 679 2424 t b f;
#X obj 705 2391 == 6;
#X msg 415 2798 0;
#X obj 446 2967 noteout 14;
#X obj 649 2634 loadbang;
#X obj 590 134 expr if ($f1 == 8 || $f2 == 8 || $f3 == 8 || $f4 ==
8 \, 1 \, 0) \;, f 63;
#X obj 75 430 spigot;
#X obj 76 451 expr if ($f1 == 8 && $f2 == 14 \, 1 \, 0) \;;
#X obj 837 1087 tgl 15 0 empty empty empty 0 -6 0 8 -262144 -1 -1 1
1;
#X msg 857 1087 bang;
#X obj 836 1200 tgl 15 0 empty empty empty 17 7 0 10 -262144 -1 -1
1 1;
#X floatatom 825 945 5 0 0 0 - - -;
#X obj 852 1037 bng 15 250 50 0 empty empty empty 17 7 0 10 -258113
-1 -1;
#X obj 855 985 sel 0 1;
#X obj 875 1036 bng 15 250 50 0 empty empty empty 17 7 0 10 -4034 -1
-1;
#X obj 822 1247 sel 0 1;
#X msg 713 1417 0;
#X msg 756 1417 1;
#X msg 792 1420 2;
#X msg 837 1419 3;
#X msg 879 1419 4;
#X msg 917 1418 5;
#X msg 957 1417 6;
#X msg 999 1417 7;
#X obj 1182 1487 bng 30 250 50 0 empty empty empty 17 7 0 10 -262144
-1 -1;
#X msg 1563 1300 67;
#X floatatom 1143 1493 5 0 0 0 - - -;
#X msg 1024 1639 \$1;
#X obj 1076 1681 nbx 5 14 -1e+37 1e+37 0 0 empty empty empty 0 -8 0
10 -262144 -1 -1 150 256;
#X obj 907 1785 print;
#X msg 969 1599 \$1 116;
#X obj 905 1657 bng 40 250 50 0 empty empty empty 17 7 0 10 -4034 -1
-1;
#X obj 1250 1497 loadbang;
#X obj 988 1782 noteout 14;
#X msg 786 1462 0;
#X obj 1036 850 bng 30 250 50 0 empty empty empty 17 7 0 10 -262144
-1 -1;
#X msg 1023 1737 \$1 48;
#X obj 811 1325 spigot;
#X obj 1023 1710 pipe 150;
#X msg 40 1389 0, f 4;
#X msg 87 1391 1;
#X msg 127 1394 2;
#X msg 171 1393 3;
#X msg 223 1392 4;
#X msg 265 1392 5;
#X msg 308 1391 6;
#X msg 357 1394 7;
#X obj 517 1466 bng 30 250 50 0 empty empty empty 17 7 0 10 -262144
-1 -1;
#X msg 705 1298 67;
#X floatatom 478 1472 5 0 0 0 - - -;
#X msg 359 1618 \$1;
#X obj 411 1660 nbx 5 14 -1e+37 1e+37 0 0 empty empty empty 0 -8 0
10 -262144 -1 -1 150 256;
#X obj 242 1764 print;
#X msg 304 1578 \$1 116;
#X obj 240 1636 bng 40 250 50 0 empty empty empty 17 7 0 10 -4034 -1
-1;
#X obj 592 1494 loadbang;
#X msg 113 1456 0;
#X msg 358 1716 \$1 48;
#X obj 67 1325 spigot;
#X msg 153 1459 1;
#X msg 189 1462 2;
#X msg 237 1461 3;
#X msg 276 1461 4;
#X msg 314 1461 5;
#X msg 354 1459 6;
#X msg 396 1459 7;
#X obj 150 1328 spigot;
#X obj 229 1329 spigot;
#X obj 315 1327 spigot;
#X obj 397 1330 spigot;
#X obj 478 1329 spigot;
#X obj 557 1328 spigot;
#X obj 630 1326 spigot;
#X obj 358 1689 pipe 150;
#X msg 446 1614 150;
#X msg 1111 1636 150;
#X obj 311 1763 noteout 13;
#X obj 82 1727 noteout 13;
#X obj 109 1809 bng 15 250 50 0 empty empty empty 17 7 0 10 -258113
-1 -1;
#X obj 99 1919 osc~ 800;
#X obj 84 1963 *~;
#X obj 84 1888 vline~;
#X text 178 1836 got to 1 (full volume) in 20 \, then go to zero (no
volume) in 20 ms after waiting 20 ms;
#X text 132 1886 translate to audio rate signal;
#X text 162 1920 generate 800 hz sine tone;
#X text 114 1962 multiply sine tone by amplitude envelope;
#X obj 98 2037 dac~;
#X msg 85 1840 3 20 \, 0 10 5;
#X msg 821 1463 1;
#X msg 857 1466 2;
#X msg 905 1465 3;
#X msg 944 1465 4;
#X msg 982 1465 5;
#X msg 1022 1463 6;
#X msg 1064 1463 7;
#X obj 749 1780 noteout 14;
#X obj 932 1087 tgl 15 0 empty empty empty 0 -6 0 8 -262144 -1 -1 1
1;
#X msg 952 1087 bang;
#X obj 931 1200 tgl 15 0 empty empty empty 17 7 0 10 -262144 -1 -1
1 1;
#X floatatom 920 945 5 0 0 0 - - -;
#X obj 947 1037 bng 15 250 50 0 empty empty empty 17 7 0 10 -258113
-1 -1;
#X obj 945 987 sel 0 1;
#X obj 970 1036 bng 15 250 50 0 empty empty empty 17 7 0 10 -4034 -1
-1;
#X obj 917 1247 sel 0 1;
#X obj 906 1325 spigot;
#X obj 600 155 expr if ($f1 == 9 || $f2 == 9 || $f3 == 9 || $f4 ==
9 \, 1 \, 0) \;, f 63;
#X obj 75 502 spigot;
#X obj 1286 -91 random 15;
#X obj 1202 -89 random 15;
#X obj 1360 -93 random 15;
#X obj 1437 -94 random 15;
#X obj 76 524 expr if ($f1 == 9 && $f2 == 14 \, 1 \, 0) \;;
#X obj 611 177 expr if ($f1 == 10 || $f2 == 10 || $f3 == 10 || $f4
== 10 \, 1 \, 0) \;, f 66;
#X obj 74 564 spigot;
#X obj 75 586 expr if ($f1 == 10 && $f2 == 14 \, 1 \, 0) \;;
#N canvas 629 284 1046 713 pad1B 0;
#X obj 105 210 s pd;
#X obj 84 41 r pd;
#X obj 109 151 tgl 15 0 empty empty empty 0 -6 0 8 -262144 -1 -1 1
1;
#X obj 17 114 hradio 55 1 0 1 empty empty empty 0 -6 0 8 -262144 -1
-1 0;
#X obj 14 111 cnv 15 60 60 empty \$0-pad01-B PAD01-B 6 8 0 12 -62784
-1 0;
#X msg 84 81 set \$1;
#X obj 188 172 sel 0;
#X obj 94 110 inlet;
#X obj 16 79 bang;
#X obj 87 235 outlet;
#X text 12 10 [pad01-B] - RANE 72 Pad;
#X msg 188 192 label PAD01-B \, color 43 22;
#X msg 218 212 label PAD01-B \, color 48 12;
#X obj 188 232 s \$0-pad01-B;
#X msg 111 180 pad01-B \$1;
#X obj 84 61 route pad01-B;
#X connect 1 0 15 0;
#X connect 2 0 6 0;
#X connect 2 0 14 0;
#X connect 2 0 9 0;
#X connect 3 0 8 0;
#X connect 5 0 2 0;
#X connect 6 0 11 0;
#X connect 6 1 12 0;
#X connect 7 0 2 0;
#X connect 8 0 2 0;
#X connect 11 0 13 0;
#X connect 12 0 13 0;
#X connect 14 0 0 0;
#X connect 15 0 5 0;
#X connect 15 0 6 0;
#X coords 0 -1 1 1 60 60 1 14 111;
#X restore 840 1127 pd pad1B;
#N canvas 629 284 1046 713 pad2B 0;
#X obj 105 210 s pd;
#X obj 84 41 r pd;
#X obj 109 151 tgl 15 0 empty empty empty 0 -6 0 8 -262144 -1 -1 1
1;
#X obj 16 114 hradio 55 1 0 1 empty empty empty 0 -6 0 8 -262144 -1
-1 0;
#X obj 14 111 cnv 15 60 60 empty \$0-pad02-B PAD02-B 6 8 0 12 -62784
-1 0;
#X msg 84 81 set \$1;
#X obj 188 172 sel 0;
#X obj 94 110 inlet;
#X obj 16 79 bang;
#X obj 87 235 outlet;
#X text 12 10 [pad02-B] - RANE 72 Pad;
#X obj 188 232 s \$0-pad02-B;
#X msg 188 192 label PAD02-B \, color 43 22;
#X msg 218 212 label PAD02-B \, color 48 12;
#X msg 111 180 pad02-B \$1;
#X obj 84 61 route pad02-B;
#X connect 1 0 15 0;
#X connect 2 0 6 0;
#X connect 2 0 14 0;
#X connect 2 0 9 0;
#X connect 3 0 8 0;
#X connect 5 0 2 0;
#X connect 6 0 12 0;
#X connect 6 1 13 0;
#X connect 7 0 2 0;
#X connect 8 0 2 0;
#X connect 12 0 11 0;
#X connect 13 0 11 0;
#X connect 14 0 0 0;
#X connect 15 0 5 0;
#X connect 15 0 6 0;
#X coords 0 -1 1 1 60 60 1 14 111;
#X restore 928 1127 pd pad2B;
#X obj 1023 1087 tgl 15 0 empty empty empty 0 -6 0 8 -262144 -1 -1
0 1;
#X msg 1043 1087 bang;
#X obj 1022 1200 tgl 15 0 empty empty empty 17 7 0 10 -262144 -1 -1
0 1;
#X floatatom 1011 945 5 0 0 0 - - -;
#X obj 1038 1037 bng 15 250 50 0 empty empty empty 17 7 0 10 -258113
-1 -1;
#X obj 1041 985 sel 0 1;
#X obj 1061 1036 bng 15 250 50 0 empty empty empty 17 7 0 10 -4034
-1 -1;
#X obj 1008 1247 sel 0 1;
#X obj 997 1325 spigot;
#N canvas 629 284 1046 713 pad3B 0;
#X obj 105 210 s pd;
#X obj 84 41 r pd;
#X obj 109 151 tgl 15 0 empty empty empty 0 -6 0 8 -262144 -1 -1 0
1;
#X obj 16 113 hradio 55 1 0 1 empty empty empty 0 -6 0 8 -262144 -1
-1 0;
#X obj 14 111 cnv 15 60 60 empty \$0-pad03-B PAD03-B 6 8 0 12 -258699
-1 0;
#X msg 84 81 set \$1;
#X obj 188 172 sel 0;
#X obj 94 110 inlet;
#X obj 16 79 bang;
#X obj 87 235 outlet;
#X text 12 10 [pad03-B] - RANE 72 Pad;
#X obj 84 61 route pad03-B;
#X msg 111 180 pad03-B \$1;
#X msg 188 192 label PAD03-B \, color 43 22;
#X msg 218 212 label PAD03-B \, color 48 12;
#X obj 188 232 s \$0-pad03-B;
#X connect 1 0 11 0;
#X connect 2 0 6 0;
#X connect 2 0 12 0;
#X connect 2 0 9 0;
#X connect 3 0 8 0;
#X connect 5 0 2 0;
#X connect 6 0 13 0;
#X connect 6 1 14 0;
#X connect 7 0 2 0;
#X connect 8 0 2 0;
#X connect 11 0 5 0;
#X connect 11 0 6 0;
#X connect 12 0 0 0;
#X connect 13 0 15 0;
#X connect 14 0 15 0;
#X coords 0 -1 1 1 60 60 1 14 111;
#X restore 1019 1127 pd pad3B;
#X obj 75 623 spigot;
#X obj 626 198 expr if ($f1 == 11 || $f2 == 11 || $f3 == 11 || $f4
== 11 \, 1 \, 0) \;, f 66;
#X obj 1122 1087 tgl 15 0 empty empty empty 0 -6 0 8 -262144 -1 -1
0 1;
#X msg 1142 1087 bang;
#X obj 1121 1200 tgl 15 0 empty empty empty 17 7 0 10 -262144 -1 -1
0 1;
#X floatatom 1110 945 5 0 0 0 - - -;
#X obj 1137 1037 bng 15 250 50 0 empty empty empty 17 7 0 10 -258113
-1 -1;
#X obj 1140 985 sel 0 1;
#X obj 1160 1036 bng 15 250 50 0 empty empty empty 17 7 0 10 -4034
-1 -1;
#X obj 1107 1247 sel 0 1;
#X obj 1096 1325 spigot;
#N canvas 629 284 1046 713 pad4B 0;
#X obj 105 210 s pd;
#X obj 84 41 r pd;
#X obj 109 151 tgl 15 0 empty empty empty 0 -6 0 8 -262144 -1 -1 0
1;
#X obj 16 113 hradio 55 1 0 1 empty empty empty 0 -6 0 8 -262144 -1
-1 0;
#X obj 14 111 cnv 15 60 60 empty \$0-pad04-B PAD04-B 6 8 0 12 -258699
-1 0;
#X msg 84 81 set \$1;
#X obj 188 172 sel 0;
#X obj 94 110 inlet;
#X obj 16 79 bang;
#X obj 87 235 outlet;
#X text 12 10 [pad04-B] - RANE 72 Pad;
#X obj 84 61 route pad04-B;
#X msg 111 180 pad04-B \$1;
#X msg 188 192 label PAD04-B \, color 43 22;
#X msg 218 212 label PAD04-B \, color 48 12;
#X obj 188 232 s \$0-pad04-B;
#X connect 1 0 11 0;
#X connect 2 0 6 0;
#X connect 2 0 12 0;
#X connect 2 0 9 0;
#X connect 3 0 8 0;
#X connect 5 0 2 0;
#X connect 6 0 13 0;
#X connect 6 1 14 0;
#X connect 7 0 2 0;
#X connect 8 0 2 0;
#X connect 11 0 5 0;
#X connect 11 0 6 0;
#X connect 12 0 0 0;
#X connect 13 0 15 0;
#X connect 14 0 15 0;
#X coords 0 -1 1 1 60 60 1 14 111;
#X restore 1118 1127 pd pad4B;
#X obj 76 645 expr if ($f1 == 11 && $f2 == 14 \, 1 \, 0) \;;
#X obj 1214 1087 tgl 15 0 empty empty empty 0 -6 0 8 -262144 -1 -1
0 1;
#X msg 1234 1087 bang;
#X obj 1213 1200 tgl 15 0 empty empty empty 17 7 0 10 -262144 -1 -1
0 1;
#X floatatom 1202 945 5 0 0 0 - - -;
#X obj 1229 1037 bng 15 250 50 0 empty empty empty 17 7 0 10 -258113
-1 -1;
#X obj 1232 985 sel 0 1;
#X obj 1252 1036 bng 15 250 50 0 empty empty empty 17 7 0 10 -4034
-1 -1;
#X obj 1200 1240 sel 0 1;
#X obj 1184 1322 spigot;
#N canvas 629 284 1046 713 pad5B 0;
#X obj 105 210 s pd;
#X obj 84 41 r pd;
#X obj 109 151 tgl 15 0 empty empty empty 0 -6 0 8 -262144 -1 -1 0
1;
#X obj 16 113 hradio 55 1 0 1 empty empty empty 0 -6 0 8 -262144 -1
-1 0;
#X obj 14 111 cnv 15 60 60 empty \$0-pad05-B PAD05-B 6 8 0 12 -258699
-1 0;
#X msg 84 81 set \$1;
#X obj 188 172 sel 0;
#X obj 94 110 inlet;
#X obj 16 79 bang;
#X obj 87 235 outlet;
#X text 12 10 [pad05-B] - RANE 72 Pad;
#X obj 84 61 route pad05-B;
#X msg 188 192 label PAD05-B \, color 43 22;
#X msg 218 212 label PAD05-B \, color 48 12;
#X obj 188 232 s \$0-pad05-B;
#X msg 111 180 pad05-B \$1;
#X connect 1 0 11 0;
#X connect 2 0 6 0;
#X connect 2 0 15 0;
#X connect 2 0 9 0;
#X connect 3 0 8 0;
#X connect 5 0 2 0;
#X connect 6 0 12 0;
#X connect 6 1 13 0;
#X connect 7 0 2 0;
#X connect 8 0 2 0;
#X connect 11 0 5 0;
#X connect 11 0 6 0;
#X connect 12 0 14 0;
#X connect 13 0 14 0;
#X connect 15 0 0 0;
#X coords 0 -1 1 1 60 60 1 14 111;
#X restore 1210 1127 pd pad5B;
#X obj 638 220 expr if ($f1 == 12 || $f2 == 12 || $f3 == 12 || $f4
== 12 \, 1 \, 0) \;, f 66;
#X obj 77 683 spigot;
#X obj 77 704 expr if ($f1 == 12 && $f2 == 14 \, 1 \, 0) \;;
#X obj 1306 1087 tgl 15 0 empty empty empty 0 -6 0 8 -262144 -1 -1
0 1;
#X msg 1326 1087 bang;
#X obj 1305 1200 tgl 15 0 empty empty empty 17 7 0 10 -262144 -1 -1
0 1;
#X floatatom 1294 945 5 0 0 0 - - -;
#X obj 1321 1037 bng 15 250 50 0 empty empty empty 17 7 0 10 -258113
-1 -1;
#X obj 1324 985 sel 0 1;
#X obj 1344 1036 bng 15 250 50 0 empty empty empty 17 7 0 10 -4034
-1 -1;
#X obj 1292 1240 sel 0 1;
#X obj 1276 1322 spigot;
#N canvas 629 284 1046 713 pad6B 0;
#X obj 105 210 s pd;
#X obj 84 41 r pd;
#X obj 109 151 tgl 15 0 empty empty empty 0 -6 0 8 -262144 -1 -1 0
1;
#X obj 16 113 hradio 55 1 0 1 empty empty empty 0 -6 0 8 -262144 -1
-1 0;
#X obj 14 111 cnv 15 60 60 empty \$0-pad06-B PAD06-B 6 8 0 12 -258699
-1 0;
#X msg 84 81 set \$1;
#X obj 188 172 sel 0;
#X obj 94 110 inlet;
#X obj 16 79 bang;
#X obj 87 235 outlet;
#X text 12 10 [pad06-B] - RANE 72 Pad;
#X obj 84 61 route pad06-B;
#X msg 111 180 pad06-B \$1;
#X obj 188 232 s \$0-pad06-B;
#X msg 188 192 label PAD06-B \, color 43 22;
#X msg 218 212 label PAD06-B \, color 48 12;
#X connect 1 0 11 0;
#X connect 2 0 6 0;
#X connect 2 0 12 0;
#X connect 2 0 9 0;
#X connect 3 0 8 0;
#X connect 5 0 2 0;
#X connect 6 0 14 0;
#X connect 6 1 15 0;
#X connect 7 0 2 0;
#X connect 8 0 2 0;
#X connect 11 0 5 0;
#X connect 11 0 6 0;
#X connect 12 0 0 0;
#X connect 14 0 13 0;
#X connect 15 0 13 0;
#X coords 0 -1 1 1 60 60 1 14 110;
#X restore 1302 1127 pd pad6B;
#X obj 77 744 spigot;
#X obj 77 765 expr if ($f1 == 13 && $f2 == 14 \, 1 \, 0) \;;
#X obj 1396 1089 tgl 15 0 empty empty empty 0 -6 0 8 -262144 -1 -1
0 1;
#X msg 1416 1089 bang;
#X obj 1395 1202 tgl 15 0 empty empty empty 17 7 0 10 -262144 -1 -1
0 1;
#X floatatom 1384 947 5 0 0 0 - - -;
#X obj 1411 1039 bng 15 250 50 0 empty empty empty 17 7 0 10 -258113
-1 -1;
#X obj 1414 987 sel 0 1;
#X obj 1434 1038 bng 15 250 50 0 empty empty empty 17 7 0 10 -4034
-1 -1;
#X obj 1380 1240 sel 0 1;
#X obj 1366 1324 spigot;
#N canvas 629 284 1046 713 pad7B 0;
#X obj 105 210 s pd;
#X obj 84 41 r pd;
#X obj 109 151 tgl 15 0 empty empty empty 0 -6 0 8 -262144 -1 -1 0
1;
#X obj 16 113 hradio 55 1 0 1 empty empty empty 0 -6 0 8 -262144 -1
-1 0;
#X obj 14 111 cnv 15 60 60 empty \$0-pad07-B PAD07-B 6 8 0 12 -258699
-1 0;
#X msg 84 81 set \$1;
#X obj 188 172 sel 0;
#X obj 94 110 inlet;
#X obj 16 79 bang;
#X obj 87 235 outlet;
#X text 12 10 [pad07-B] - RANE 72 Pad;
#X obj 84 61 route pad07-B;
#X msg 111 180 pad07-B \$1;
#X obj 188 232 s \$0-pad07-B;
#X msg 218 212 label PAD07-B \, color 48 12;
#X msg 188 192 label PAD07-B \, color 43 22;
#X connect 1 0 11 0;
#X connect 2 0 6 0;
#X connect 2 0 12 0;
#X connect 2 0 9 0;
#X connect 3 0 8 0;
#X connect 5 0 2 0;
#X connect 6 0 15 0;
#X connect 6 1 14 0;
#X connect 7 0 2 0;
#X connect 8 0 2 0;
#X connect 11 0 5 0;
#X connect 11 0 6 0;
#X connect 12 0 0 0;
#X connect 14 0 13 0;
#X connect 15 0 13 0;
#X coords 0 -1 1 1 60 60 1 14 111;
#X restore 1392 1128 pd pad7B;
#X obj 663 263 expr if ($f1 == 14 || $f2 == 14 || $f3 == 14 || $f4
== 14 \, 1 \, 0) \;, f 66;
#X obj 649 242 expr if ($f1 == 13 || $f2 == 13 || $f3 == 13 || $f4
== 13 \, 1 \, 0) \;, f 66;
#X obj 77 802 spigot;
#X obj 1491 1086 tgl 15 0 empty empty empty 0 -6 0 8 -262144 -1 -1
0 1;
#X msg 1511 1086 bang;
#X obj 1490 1199 tgl 15 0 empty empty empty 17 7 0 10 -262144 -1 -1
0 1;
#X floatatom 1479 944 5 0 0 0 - - -;
#X obj 1506 1036 bng 15 250 50 0 empty empty empty 17 7 0 10 -258113
-1 -1;
#X obj 1509 984 sel 0 1;
#X obj 1529 1035 bng 15 250 50 0 empty empty empty 17 7 0 10 -4034
-1 -1;
#X obj 1475 1237 sel 0 1;
#X obj 1461 1321 spigot;
#X obj 84 866 spigot;
#X obj 674 285 expr if ($f1 == 15 || $f2 == 15 || $f3 == 15 || $f4
== 15 \, 1 \, 0) \;, f 66;
#N canvas 629 284 1046 713 pad8B 0;
#X obj 105 210 s pd;
#X obj 84 41 r pd;
#X obj 109 151 tgl 15 0 empty empty empty 0 -6 0 8 -262144 -1 -1 0
1;
#X obj 16 113 hradio 55 1 0 1 empty empty empty 0 -6 0 8 -262144 -1
-1 0;
#X obj 14 111 cnv 15 60 60 empty \$0-pad08-B PAD08-B 6 8 0 12 -258699
-1 0;
#X msg 84 81 set \$1;
#X obj 188 172 sel 0;
#X obj 94 110 inlet;
#X obj 16 79 bang;
#X obj 87 235 outlet;
#X text 12 10 [pad08-B] - RANE 72 Pad;
#X obj 84 61 route pad08-B;
#X msg 111 180 pad08-B \$1;
#X obj 188 232 s \$0-pad08-B;
#X msg 188 192 label PAD08-B \, color 43 22;
#X msg 218 212 label PAD08-B \, color 48 12;
#X connect 1 0 11 0;
#X connect 2 0 6 0;
#X connect 2 0 12 0;
#X connect 2 0 9 0;
#X connect 3 0 8 0;
#X connect 5 0 2 0;
#X connect 6 0 14 0;
#X connect 6 1 15 0;
#X connect 7 0 2 0;
#X connect 8 0 2 0;
#X connect 11 0 5 0;
#X connect 11 0 6 0;
#X connect 12 0 0 0;
#X connect 14 0 13 0;
#X connect 15 0 13 0;
#X coords 0 -1 1 1 60 60 1 14 111;
#X restore 1487 1125 pd pad8B;
#X obj 77 823 expr if ($f1 == 14 && $f2 == 14 \, 1 \, 0) \;;
#X obj 84 887 expr if ($f1 == 15 && $f2 == 14 \, 1 \, 0) \;;
#X connect 0 0 46 0;
#X connect 1 0 46 0;
#X connect 2 0 112 0;
#X connect 2 0 324 1;
#X connect 3 0 47 0;
#X connect 4 0 47 0;
#X connect 5 0 20 0;
#X connect 5 0 332 1;
#X connect 6 0 48 0;
#X connect 7 0 48 0;
#X connect 8 0 21 0;
#X connect 8 0 333 1;
#X connect 9 0 18 0;
#X connect 10 0 18 0;
#X connect 11 0 24 0;
#X connect 11 0 336 1;
#X connect 12 0 49 0;
#X connect 13 0 49 0;
#X connect 14 0 25 0;
#X connect 14 0 337 1;
#X connect 15 0 19 0;
#X connect 16 0 19 0;
#X connect 17 0 26 0;
#X connect 17 0 338 1;
#X connect 18 0 11 0;
#X connect 19 0 17 0;
#X connect 20 0 332 0;
#X connect 20 1 306 0;
#X connect 20 1 314 0;
#X connect 21 0 333 0;
#X connect 21 1 307 0;
#X connect 21 1 314 0;
#X connect 22 0 334 0;
#X connect 22 1 308 0;
#X connect 22 1 314 0;
#X connect 23 0 335 0;
#X connect 23 1 309 0;
#X connect 23 1 314 0;
#X connect 24 0 336 0;
#X connect 24 1 310 0;
#X connect 24 1 314 0;
#X connect 25 0 337 0;
#X connect 25 1 311 0;
#X connect 25 1 314 0;
#X connect 26 0 338 0;
#X connect 26 1 312 0;
#X connect 26 1 314 0;
#X connect 27 0 28 0;
#X connect 27 1 29 0;
#X connect 27 2 30 0;
#X connect 28 0 32 0;
#X connect 29 0 31 0;
#X connect 30 0 33 0;
#X connect 35 0 38 0;
#X connect 36 0 38 1;
#X connect 37 0 42 0;
#X connect 38 0 41 0;
#X connect 39 0 44 0;
#X connect 40 0 39 0;
#X connect 41 0 232 0;
#X connect 42 0 40 1;
#X connect 42 0 62 1;
#X connect 42 0 64 1;
#X connect 42 0 79 1;
#X connect 42 0 80 1;
#X connect 42 0 82 1;
#X connect 42 0 88 1;
#X connect 42 0 81 1;
#X connect 42 0 234 0;
#X connect 42 0 273 1;
#X connect 42 0 377 1;
#X connect 42 0 380 1;
#X connect 42 0 405 1;
#X connect 42 0 418 1;
#X connect 42 0 430 1;
#X connect 42 0 456 1;
#X connect 42 0 457 1;
#X connect 44 0 43 0;
#X connect 44 1 45 0;
#X connect 45 0 0 0;
#X connect 46 0 2 0;
#X connect 47 0 5 0;
#X connect 48 0 8 0;
#X connect 49 0 14 0;
#X connect 50 0 53 0;
#X connect 51 0 53 0;
#X connect 52 0 23 0;
#X connect 52 0 335 1;
#X connect 53 0 52 0;
#X connect 54 0 57 0;
#X connect 55 0 57 0;
#X connect 56 0 22 0;
#X connect 56 0 334 1;
#X connect 57 0 56 0;
#X connect 58 0 60 0;
#X connect 60 0 59 0;
#X connect 60 1 61 0;
#X connect 61 0 3 0;
#X connect 62 0 58 0;
#X connect 63 0 66 0;
#X connect 64 0 63 0;
#X connect 66 0 65 0;
#X connect 66 1 67 0;
#X connect 67 0 6 0;
#X connect 68 0 70 0;
#X connect 70 0 69 0;
#X connect 70 1 71 0;
#X connect 71 0 54 0;
#X connect 72 0 74 0;
#X connect 74 0 73 0;
#X connect 74 1 75 0;
#X connect 75 0 50 0;
#X connect 77 0 76 0;
#X connect 77 1 78 0;
#X connect 78 0 9 0;
#X connect 79 0 68 0;
#X connect 80 0 72 0;
#X connect 81 0 83 0;
#X connect 82 0 84 0;
#X connect 83 0 77 0;
#X connect 84 0 86 0;
#X connect 86 0 85 0;
#X connect 86 1 87 0;
#X connect 87 0 12 0;
#X connect 88 0 89 0;
#X connect 89 0 91 0;
#X connect 91 0 90 0;
#X connect 91 1 92 0;
#X connect 92 0 15 0;
#X connect 93 0 95 0;
#X connect 94 0 93 0;
#X connect 96 0 105 0;
#X connect 96 0 373 0;
#X connect 96 0 374 0;
#X connect 96 0 375 0;
#X connect 96 0 376 0;
#X connect 97 0 100 0;
#X connect 98 0 191 1;
#X connect 99 0 191 2;
#X connect 100 0 191 0;
#X connect 103 0 101 1;
#X connect 104 0 101 0;
#X connect 105 0 106 0;
#X connect 106 0 111 0;
#X connect 106 0 181 0;
#X connect 107 0 182 0;
#X connect 107 0 183 0;
#X connect 107 0 184 0;
#X connect 107 0 185 0;
#X connect 107 0 186 0;
#X connect 107 0 187 0;
#X connect 107 0 188 0;
#X connect 107 0 189 0;
#X connect 107 0 239 1;
#X connect 107 0 271 0;
#X connect 107 0 371 0;
#X connect 107 0 378 0;
#X connect 107 0 394 0;
#X connect 107 0 416 0;
#X connect 107 0 442 0;
#X connect 107 0 441 0;
#X connect 107 0 454 0;
#X connect 108 0 182 1;
#X connect 108 0 183 1;
#X connect 108 0 184 1;
#X connect 108 0 185 1;
#X connect 108 0 186 1;
#X connect 108 0 187 1;
#X connect 108 0 188 1;
#X connect 108 0 189 1;
#X connect 108 0 239 2;
#X connect 108 0 271 1;
#X connect 108 0 371 1;
#X connect 108 0 378 1;
#X connect 108 0 394 1;
#X connect 108 0 416 1;
#X connect 108 0 442 1;
#X connect 108 0 441 1;
#X connect 108 0 454 1;
#X connect 109 0 182 2;
#X connect 109 0 183 2;
#X connect 109 0 184 2;
#X connect 109 0 185 2;
#X connect 109 0 186 2;
#X connect 109 0 187 2;
#X connect 109 0 188 2;
#X connect 109 0 189 2;
#X connect 109 0 239 3;
#X connect 109 0 271 2;
#X connect 109 0 371 2;
#X connect 109 0 378 2;
#X connect 109 0 394 2;
#X connect 109 0 416 2;
#X connect 109 0 442 2;
#X connect 109 0 441 2;
#X connect 109 0 454 2;
#X connect 110 0 106 1;
#X connect 112 0 324 0;
#X connect 112 1 314 0;
#X connect 112 1 305 0;
#X connect 113 0 114 0;
#X connect 113 0 115 0;
#X connect 113 0 116 0;
#X connect 113 0 117 0;
#X connect 113 0 118 0;
#X connect 113 0 119 0;
#X connect 113 0 120 0;
#X connect 113 0 121 0;
#X connect 114 0 136 0;
#X connect 115 0 136 0;
#X connect 116 0 136 0;
#X connect 117 0 136 0;
#X connect 118 0 136 0;
#X connect 119 0 136 0;
#X connect 120 0 136 0;
#X connect 121 0 136 0;
#X connect 122 0 113 0;
#X connect 122 0 136 1;
#X connect 123 0 122 0;
#X connect 124 0 126 0;
#X connect 125 0 138 0;
#X connect 126 0 128 0;
#X connect 128 0 125 0;
#X connect 128 0 134 0;
#X connect 129 0 132 0;
#X connect 130 0 127 0;
#X connect 131 0 133 0;
#X connect 132 0 124 0;
#X connect 133 0 135 0;
#X connect 135 0 124 0;
#X connect 135 1 124 1;
#X connect 137 0 123 0;
#X connect 138 0 123 0;
#X connect 139 0 140 0;
#X connect 139 0 165 0;
#X connect 141 0 143 0;
#X connect 143 0 142 0;
#X connect 143 0 166 0;
#X connect 144 0 147 0;
#X connect 145 0 152 0;
#X connect 145 0 165 1;
#X connect 145 0 140 1;
#X connect 146 0 145 0;
#X connect 147 0 146 0;
#X connect 147 0 154 0;
#X connect 147 0 159 0;
#X connect 147 0 163 0;
#X connect 147 0 174 0;
#X connect 148 0 141 0;
#X connect 148 0 166 1;
#X connect 148 0 142 1;
#X connect 149 0 153 0;
#X connect 149 0 167 1;
#X connect 149 0 150 1;
#X connect 151 0 150 0;
#X connect 151 0 167 0;
#X connect 152 0 139 0;
#X connect 153 0 151 0;
#X connect 154 0 149 0;
#X connect 155 0 157 0;
#X connect 155 0 168 1;
#X connect 155 0 156 1;
#X connect 157 0 158 0;
#X connect 158 0 156 0;
#X connect 158 0 168 0;
#X connect 159 0 155 0;
#X connect 160 0 162 0;
#X connect 160 0 169 1;
#X connect 160 0 161 1;
#X connect 162 0 164 0;
#X connect 163 0 160 0;
#X connect 164 0 161 0;
#X connect 164 0 169 0;
#X connect 171 0 144 0;
#X connect 174 0 148 0;
#X connect 175 0 146 0;
#X connect 175 0 174 0;
#X connect 175 0 154 0;
#X connect 175 0 159 0;
#X connect 175 0 163 0;
#X connect 176 0 240 0;
#X connect 176 0 110 0;
#X connect 176 0 241 0;
#X connect 176 0 242 0;
#X connect 177 0 241 0;
#X connect 177 0 110 0;
#X connect 177 0 242 0;
#X connect 178 0 110 0;
#X connect 178 0 242 0;
#X connect 180 0 182 3;
#X connect 180 0 183 3;
#X connect 180 0 184 3;
#X connect 180 0 185 3;
#X connect 180 0 186 3;
#X connect 180 0 187 3;
#X connect 180 0 188 3;
#X connect 180 0 189 3;
#X connect 180 0 239 4;
#X connect 180 0 271 3;
#X connect 180 0 371 3;
#X connect 180 0 378 3;
#X connect 180 0 394 3;
#X connect 180 0 416 3;
#X connect 180 0 442 3;
#X connect 180 0 441 3;
#X connect 180 0 454 3;
#X connect 181 0 107 0;
#X connect 181 1 108 0;
#X connect 181 2 109 0;
#X connect 181 3 180 0;
#X connect 182 0 0 0;
#X connect 182 0 193 1;
#X connect 183 0 3 0;
#X connect 183 0 194 1;
#X connect 184 0 6 0;
#X connect 184 0 195 1;
#X connect 185 0 54 0;
#X connect 185 0 196 1;
#X connect 186 0 50 0;
#X connect 186 0 197 1;
#X connect 187 0 9 0;
#X connect 187 0 198 1;
#X connect 188 0 12 0;
#X connect 188 0 199 1;
#X connect 189 0 15 0;
#X connect 189 0 200 1;
#X connect 190 0 191 3;
#X connect 191 0 101 0;
#X connect 192 0 110 0;
#X connect 193 0 40 0;
#X connect 194 0 62 0;
#X connect 195 0 64 0;
#X connect 196 0 79 0;
#X connect 197 0 80 0;
#X connect 198 0 81 0;
#X connect 199 0 82 0;
#X connect 200 0 88 0;
#X connect 201 0 202 0;
#X connect 201 0 203 0;
#X connect 202 0 206 0;
#X connect 203 0 204 0;
#X connect 204 0 205 0;
#X connect 205 0 206 1;
#X connect 206 0 217 0;
#X connect 206 0 217 1;
#X connect 210 0 208 0;
#X connect 210 0 211 0;
#X connect 210 0 212 0;
#X connect 211 0 202 1;
#X connect 211 0 213 0;
#X connect 212 0 205 1;
#X connect 212 0 214 0;
#X connect 218 0 201 0;
#X connect 219 0 218 0;
#X connect 220 0 230 0;
#X connect 221 0 219 0;
#X connect 222 0 223 1;
#X connect 223 0 229 0;
#X connect 223 0 229 1;
#X connect 224 0 223 0;
#X connect 230 0 224 0;
#X connect 231 0 232 1;
#X connect 231 0 453 0;
#X connect 232 0 233 0;
#X connect 233 0 193 0;
#X connect 233 0 194 0;
#X connect 233 0 195 0;
#X connect 233 0 196 0;
#X connect 233 0 197 0;
#X connect 233 0 198 0;
#X connect 233 0 199 0;
#X connect 233 0 200 0;
#X connect 233 0 239 0;
#X connect 233 0 272 0;
#X connect 233 0 372 0;
#X connect 233 0 393 0;
#X connect 233 0 379 0;
#X connect 233 0 417 0;
#X connect 233 0 429 0;
#X connect 233 0 443 0;
#X connect 234 0 231 0;
#X connect 235 0 236 0;
#X connect 236 0 238 0;
#X connect 236 1 237 0;
#X connect 238 0 221 0;
#X connect 239 0 235 0;
#X connect 240 0 108 0;
#X connect 241 0 109 0;
#X connect 242 0 180 0;
#X connect 243 0 244 0;
#X connect 244 0 96 0;
#X connect 245 0 246 0;
#X connect 245 0 247 0;
#X connect 245 0 248 0;
#X connect 245 0 249 0;
#X connect 245 0 250 0;
#X connect 245 0 251 0;
#X connect 245 0 252 0;
#X connect 245 0 268 0;
#X connect 246 0 269 0;
#X connect 247 0 269 0;
#X connect 248 0 269 0;
#X connect 249 0 269 0;
#X connect 250 0 269 0;
#X connect 251 0 269 0;
#X connect 252 0 269 0;
#X connect 253 0 245 0;
#X connect 253 0 269 1;
#X connect 254 0 253 0;
#X connect 255 0 254 0;
#X connect 256 0 258 0;
#X connect 257 0 255 0;
#X connect 258 0 260 0;
#X connect 260 0 257 0;
#X connect 260 0 265 0;
#X connect 261 0 264 0;
#X connect 262 0 259 0;
#X connect 263 0 267 0;
#X connect 264 0 256 0;
#X connect 266 0 256 0;
#X connect 266 1 256 1;
#X connect 267 0 266 0;
#X connect 268 0 269 0;
#X connect 270 0 254 0;
#X connect 271 0 272 1;
#X connect 271 0 274 0;
#X connect 272 0 273 0;
#X connect 273 0 277 0;
#X connect 274 0 381 0;
#X connect 275 0 381 0;
#X connect 276 0 281 0;
#X connect 276 0 303 1;
#X connect 277 0 279 0;
#X connect 279 0 278 0;
#X connect 279 1 280 0;
#X connect 280 0 274 0;
#X connect 281 0 303 0;
#X connect 281 1 291 0;
#X connect 281 1 282 0;
#X connect 282 0 361 0;
#X connect 283 0 361 0;
#X connect 284 0 361 0;
#X connect 285 0 361 0;
#X connect 286 0 361 0;
#X connect 287 0 361 0;
#X connect 288 0 361 0;
#X connect 289 0 361 0;
#X connect 290 0 220 0;
#X connect 291 0 290 0;
#X connect 291 0 292 0;
#X connect 292 0 361 1;
#X connect 293 0 304 0;
#X connect 294 0 304 1;
#X connect 296 0 293 0;
#X connect 296 0 295 0;
#X connect 296 0 297 0;
#X connect 296 0 299 0;
#X connect 297 0 344 0;
#X connect 298 0 341 0;
#X connect 298 0 291 0;
#X connect 300 0 296 0;
#X connect 301 0 96 0;
#X connect 302 0 295 0;
#X connect 302 0 299 0;
#X connect 303 0 300 0;
#X connect 304 0 302 0;
#X connect 305 0 343 0;
#X connect 306 0 343 0;
#X connect 307 0 343 0;
#X connect 308 0 343 0;
#X connect 309 0 343 0;
#X connect 310 0 343 0;
#X connect 311 0 343 0;
#X connect 312 0 343 0;
#X connect 313 0 220 0;
#X connect 314 0 313 0;
#X connect 314 0 315 0;
#X connect 315 0 343 1;
#X connect 316 0 339 0;
#X connect 317 0 339 1;
#X connect 319 0 316 0;
#X connect 319 0 318 0;
#X connect 319 0 320 0;
#X connect 319 0 342 0;
#X connect 320 0 344 0;
#X connect 321 0 340 0;
#X connect 321 0 314 0;
#X connect 322 0 319 0;
#X connect 323 0 318 0;
#X connect 323 0 342 0;
#X connect 324 0 322 0;
#X connect 325 0 319 0;
#X connect 326 0 319 0;
#X connect 327 0 319 0;
#X connect 328 0 319 0;
#X connect 329 0 319 0;
#X connect 330 0 319 0;
#X connect 331 0 319 0;
#X connect 332 0 325 0;
#X connect 333 0 326 0;
#X connect 334 0 327 0;
#X connect 335 0 328 0;
#X connect 336 0 329 0;
#X connect 337 0 330 0;
#X connect 338 0 331 0;
#X connect 339 0 323 0;
#X connect 340 0 317 0;
#X connect 341 0 294 0;
#X connect 344 0 353 0;
#X connect 345 0 346 1;
#X connect 346 0 352 0;
#X connect 346 0 352 1;
#X connect 347 0 346 0;
#X connect 353 0 347 0;
#X connect 354 0 296 0;
#X connect 355 0 296 0;
#X connect 356 0 296 0;
#X connect 357 0 296 0;
#X connect 358 0 296 0;
#X connect 359 0 296 0;
#X connect 360 0 296 0;
#X connect 362 0 382 0;
#X connect 363 0 382 0;
#X connect 364 0 369 0;
#X connect 364 0 370 1;
#X connect 365 0 367 0;
#X connect 367 0 366 0;
#X connect 367 1 368 0;
#X connect 368 0 362 0;
#X connect 369 0 370 0;
#X connect 369 1 283 0;
#X connect 369 1 291 0;
#X connect 370 0 354 0;
#X connect 371 0 362 0;
#X connect 371 0 372 1;
#X connect 372 0 377 0;
#X connect 373 0 98 0;
#X connect 374 0 97 0;
#X connect 375 0 99 0;
#X connect 376 0 190 0;
#X connect 377 0 365 0;
#X connect 378 0 379 1;
#X connect 378 0 383 0;
#X connect 379 0 380 0;
#X connect 380 0 386 0;
#X connect 381 0 276 0;
#X connect 382 0 364 0;
#X connect 383 0 392 0;
#X connect 384 0 392 0;
#X connect 385 0 390 0;
#X connect 385 0 391 1;
#X connect 386 0 388 0;
#X connect 388 0 387 0;
#X connect 388 1 389 0;
#X connect 389 0 383 0;
#X connect 390 0 391 0;
#X connect 390 1 291 0;
#X connect 390 1 284 0;
#X connect 391 0 355 0;
#X connect 392 0 385 0;
#X connect 393 0 405 0;
#X connect 394 0 393 1;
#X connect 394 0 395 0;
#X connect 395 0 404 0;
#X connect 396 0 404 0;
#X connect 397 0 402 0;
#X connect 397 0 403 1;
#X connect 398 0 400 0;
#X connect 400 0 399 0;
#X connect 400 1 401 0;
#X connect 401 0 395 0;
#X connect 402 0 403 0;
#X connect 402 1 291 0;
#X connect 402 1 285 0;
#X connect 403 0 356 0;
#X connect 404 0 397 0;
#X connect 405 0 398 0;
#X connect 406 0 415 0;
#X connect 407 0 415 0;
#X connect 408 0 413 0;
#X connect 408 0 414 1;
#X connect 409 0 411 0;
#X connect 411 0 410 0;
#X connect 411 1 412 0;
#X connect 412 0 406 0;
#X connect 413 0 414 0;
#X connect 413 1 291 0;
#X connect 413 1 286 0;
#X connect 414 0 357 0;
#X connect 415 0 408 0;
#X connect 416 0 406 0;
#X connect 416 0 417 1;
#X connect 417 0 418 0;
#X connect 418 0 409 0;
#X connect 419 0 428 0;
#X connect 420 0 428 0;
#X connect 421 0 426 0;
#X connect 421 0 427 1;
#X connect 422 0 424 0;
#X connect 424 0 423 0;
#X connect 424 1 425 0;
#X connect 425 0 419 0;
#X connect 426 0 427 0;
#X connect 426 1 291 0;
#X connect 426 1 287 0;
#X connect 427 0 358 0;
#X connect 428 0 421 0;
#X connect 429 0 430 0;
#X connect 430 0 422 0;
#X connect 431 0 440 0;
#X connect 432 0 440 0;
#X connect 433 0 438 0;
#X connect 433 0 439 1;
#X connect 434 0 436 0;
#X connect 436 0 435 0;
#X connect 436 1 437 0;
#X connect 437 0 431 0;
#X connect 438 0 439 0;
#X connect 438 1 288 0;
#X connect 438 1 291 0;
#X connect 439 0 359 0;
#X connect 440 0 433 0;
#X connect 441 0 443 1;
#X connect 441 0 431 0;
#X connect 442 0 429 1;
#X connect 442 0 419 0;
#X connect 443 0 456 0;
#X connect 444 0 455 0;
#X connect 445 0 455 0;
#X connect 446 0 451 0;
#X connect 446 0 452 1;
#X connect 447 0 449 0;
#X connect 449 0 448 0;
#X connect 449 1 450 0;
#X connect 450 0 444 0;
#X connect 451 0 452 0;
#X connect 451 1 291 0;
#X connect 451 1 289 0;
#X connect 452 0 360 0;
#X connect 453 0 457 0;
#X connect 454 0 453 1;
#X connect 454 0 444 0;
#X connect 455 0 446 0;
#X connect 456 0 434 0;
#X connect 457 0 447 0;
#X coords 0 1101 1 1100 85 60 0;
